SplineFontDB: 3.2
FontName: AtkinsonHyperPro-Bold
FullName: Atkinson Hyperlegible Pro Bold
FamilyName: Atkinson Hyperlegible Pro
Weight: Bold
Copyright: Copyright 2020 Braille Institute of America, Inc.
UComments: "Update by Jacob Perez+AAoA-https://jacobxperez.github.io/atkinson-hyperlegible-pro/"
Version: 1.000
ItalicAngle: 0
UnderlinePosition: -106
UnderlineWidth: 57
Ascent: 800
Descent: 200
InvalidEm: 0
sfntRevision: 0x00010000
LayerCount: 2
Layer: 0 1 "Back" 1
Layer: 1 1 "Fore" 0
XUID: [1021 466 782043844 10191]
StyleMap: 0x0020
FSType: 0
OS2Version: 4
OS2_WeightWidthSlopeOnly: 0
OS2_UseTypoMetrics: 1
CreationTime: 1615339189
ModificationTime: 1695801547
PfmFamily: 81
TTFWeight: 700
TTFWidth: 5
LineGap: 0
VLineGap: 0
Panose: 0 0 0 0 0 0 0 0 0 0
OS2TypoAscent: 950
OS2TypoAOffset: 0
OS2TypoDescent: -290
OS2TypoDOffset: 0
OS2TypoLinegap: 0
OS2WinAscent: 950
OS2WinAOffset: 0
OS2WinDescent: 290
OS2WinDOffset: 0
HheadAscent: 950
HheadAOffset: 0
HheadDescent: -290
HheadDOffset: 0
OS2SubXSize: 650
OS2SubYSize: 699
OS2SubXOff: 0
OS2SubYOff: 140
OS2SupXSize: 650
OS2SupYSize: 699
OS2SupXOff: 0
OS2SupYOff: 479
OS2StrikeYSize: 49
OS2StrikeYPos: 258
OS2CapHeight: 668
OS2XHeight: 496
OS2Vendor: 'NONE'
OS2CodePages: 20000003.00000000
OS2UnicodeRanges: 800000ef.0000204b.00000000.00000000
Lookup: 4 0 1 "'liga' Standard Ligatures lookup 0" { "'liga' Standard Ligatures lookup 0-1"  } ['liga' ('DFLT' <'dflt' > 'grek' <'dflt' > 'latn' <'MOL ' 'dflt' > ) ]
Lookup: 1 0 0 "'zero' Slashed Zero lookup 0" { "'zero' Slashed Zero lookup 0-1"  } ['zero' ('DFLT' <'dflt' > 'grek' <'dflt' > 'latn' <'MOL ' 'dflt' > ) ]
Lookup: 1 0 0 "'aalt' Access All Alternates lookup 0" { "'aalt' Access All Alternates lookup 0 subtable"  } ['aalt' ('DFLT' <'dflt' > 'grek' <'dflt' > 'latn' <'dflt' > ) ]
Lookup: 3 0 0 "'aalt' Access All Alternates lookup 1" { "'aalt' Access All Alternates lookup 1 subtable"  } ['aalt' ('DFLT' <'dflt' > 'grek' <'dflt' > 'latn' <'dflt' > ) ]

StartChar: .notdef
Encoding: 256 -1 0
Width: 527
GlyphClass: 1
Flags: W
HStem: 0 21<79 449> 680 20<78 449>
VStem: 50 21<49 650> 457 20<47 652>
LayerCount: 2
Fore
SplineSet
50 0 m 1,0,-1
 50 700 l 1,1,-1
 477 700 l 1,2,-1
 477 0 l 1,3,-1
 50 0 l 1,0,-1
263 371 m 1,4,-1
 449 680 l 1,5,-1
 78 680 l 1,6,-1
 263 371 l 1,4,-1
457 47 m 1,7,-1
 457 652 l 1,8,-1
 276 350 l 1,9,-1
 457 47 l 1,7,-1
71 49 m 1,10,-1
 251 350 l 1,11,-1
 71 650 l 1,12,-1
 71 49 l 1,10,-1
79 21 m 1,13,-1
 449 21 l 1,14,-1
 264 329 l 1,15,-1
 79 21 l 1,13,-1
EndSplineSet
Validated: 1
EndChar

StartChar: zero
Encoding: 48 48 5
Width: 652
GlyphClass: 1
Flags: W
HStem: -12 113<268.192 395> 567 113<267.756 394.464>
VStem: 45 156<185.885 429.615> 461 157<247.415 483.361>
LayerCount: 2
Fore
SplineSet
331 -12 m 0,0,1
 238 -12 238 -12 174 30.5 c 128,-1,2
 110 73 110 73 77.5 151 c 128,-1,3
 45 229 45 229 45 335 c 0,4,5
 45 496 45 496 118 588 c 128,-1,6
 191 680 191 680 331 680 c 0,7,8
 472 680 472 680 545 588 c 128,-1,9
 618 496 618 496 618 335 c 0,10,11
 618 229 618 229 585.5 151 c 128,-1,12
 553 73 553 73 489 30.5 c 128,-1,13
 425 -12 425 -12 331 -12 c 0,0,1
455 246 m 1,14,15
 461 285 461 285 461 334 c 0,16,17
 461 456 461 456 425.5 511.5 c 128,-1,18
 390 567 390 567 331 567 c 0,19,20
 286 567 286 567 254 534 c 1,21,-1
 455 246 l 1,14,15
331 101 m 0,22,23
 381 101 381 101 412 139 c 1,24,-1
 209 431 l 1,25,26
 205 410 205 410 203 386.5 c 128,-1,27
 201 363 201 363 201 335 c 0,28,29
 201 214 201 214 237 157.5 c 128,-1,30
 273 101 273 101 331 101 c 0,22,23
EndSplineSet
Validated: 1
Substitution2: "'zero' Slashed Zero lookup 0-1" zero.alt1
Substitution2: "'aalt' Access All Alternates lookup 0 subtable" zero.alt1
Substitution2: "'tnum' Tabular Numbers lookup 14 subtable" zero.tf
EndChar

StartChar: one
Encoding: 49 49 6
Width: 448
GlyphClass: 1
Flags: W
HStem: 0 21G<199 350> 448 123<47 180.204> 648 20G<226 350>
VStem: 199 151<0 448>
LayerCount: 2
Fore
SplineSet
199 0 m 1,0,-1
 199 448 l 1,1,-1
 47 448 l 1,2,-1
 47 571 l 1,3,4
 100 571 100 571 135 576.5 c 128,-1,5
 170 582 170 582 193.5 602.5 c 128,-1,6
 217 623 217 623 235 668 c 1,7,-1
 350 668 l 1,8,-1
 350 0 l 1,9,-1
 199 0 l 1,0,-1
EndSplineSet
Validated: 1
Substitution2: "'tnum' Tabular Numbers lookup 14 subtable" one.tf
Substitution2: "'sups' Superscript lookup 9 subtable" uni00B9
AlternateSubs2: "'aalt' Access All Alternates lookup 1 subtable" uni00B9 one.tf
EndChar

StartChar: two
Encoding: 50 50 7
Width: 586
GlyphClass: 1
Flags: W
HStem: 0 125<228 547> 567 113<236.074 363.694>
VStem: 391 153<416.467 541.927>
LayerCount: 2
Fore
SplineSet
34 0 m 1,0,-1
 34 125 l 1,1,2
 166 218 166 218 244 282.5 c 128,-1,3
 322 347 322 347 356.5 396 c 128,-1,4
 391 445 391 445 391 488 c 0,5,6
 391 527 391 527 363.5 547 c 128,-1,7
 336 567 336 567 299 567 c 0,8,9
 268 567 268 567 238 549.5 c 128,-1,10
 208 532 208 532 197 485 c 1,11,-1
 59 535 l 1,12,13
 86 605 86 605 152 642.5 c 128,-1,14
 218 680 218 680 306 680 c 0,15,16
 374 680 374 680 428 657.5 c 128,-1,17
 482 635 482 635 513 591.5 c 128,-1,18
 544 548 544 548 544 485 c 0,19,20
 544 384 544 384 459.5 297.5 c 128,-1,21
 375 211 375 211 228 125 c 1,22,-1
 547 125 l 1,23,-1
 547 0 l 1,24,-1
 34 0 l 1,0,-1
EndSplineSet
Validated: 1
Substitution2: "'tnum' Tabular Numbers lookup 14 subtable" two.tf
Substitution2: "'sups' Superscript lookup 9 subtable" uni00B2
AlternateSubs2: "'aalt' Access All Alternates lookup 1 subtable" uni00B2 two.tf
EndChar

StartChar: three
Encoding: 51 51 8
Width: 605
GlyphClass: 1
Flags: W
HStem: -12 113<215.947 368.002> 291 106<211 338.628> 567 113<216.048 361.434>
VStem: 390 153<438.542 540.235> 398 156<130.578 247.216>
LayerCount: 2
Fore
SplineSet
291 -12 m 0,0,1
 235 -12 235 -12 183.5 4 c 128,-1,2
 132 20 132 20 93 53.5 c 128,-1,3
 54 87 54 87 33 140 c 1,4,-1
 171 190 l 1,5,6
 184 141 184 141 219 121 c 128,-1,7
 254 101 254 101 295 101 c 0,8,9
 342 101 342 101 370 124 c 128,-1,10
 398 147 398 147 398 188 c 256,11,12
 398 229 398 229 372 251.5 c 128,-1,13
 346 274 346 274 303.5 282.5 c 128,-1,14
 261 291 261 291 211 291 c 1,15,-1
 211 397 l 1,16,17
 297 397 297 397 343.5 421 c 128,-1,18
 390 445 390 445 390 489 c 0,19,20
 390 528 390 528 358.5 547.5 c 128,-1,21
 327 567 327 567 286 567 c 0,22,23
 249 567 249 567 218 549 c 128,-1,24
 187 531 187 531 177 485 c 1,25,-1
 40 535 l 1,26,27
 60 586 60 586 99 618 c 128,-1,28
 138 650 138 650 189 665 c 128,-1,29
 240 680 240 680 295 680 c 0,30,31
 341 680 341 680 385 670 c 128,-1,32
 429 660 429 660 464.5 638.5 c 128,-1,33
 500 617 500 617 521.5 584.5 c 128,-1,34
 543 552 543 552 543 507 c 0,35,36
 543 453 543 453 514 412.5 c 128,-1,37
 485 372 485 372 450 352 c 1,38,39
 483 340 483 340 506.5 314 c 128,-1,40
 530 288 530 288 542 257 c 128,-1,41
 554 226 554 226 554 195 c 0,42,43
 554 125 554 125 517 79.5 c 128,-1,44
 480 34 480 34 420 11 c 128,-1,45
 360 -12 360 -12 291 -12 c 0,0,1
EndSplineSet
Validated: 1
Substitution2: "'tnum' Tabular Numbers lookup 14 subtable" three.tf
Substitution2: "'sups' Superscript lookup 9 subtable" uni00B3
AlternateSubs2: "'aalt' Access All Alternates lookup 1 subtable" uni00B3 three.tf
EndChar

StartChar: four
Encoding: 52 52 9
Width: 626
GlyphClass: 1
Flags: W
HStem: 0 21G<348 500> 141 134<188 348 500 592> 648 20G<332.375 500>
VStem: 348 152<0 141 275 469>
LayerCount: 2
Fore
SplineSet
348 0 m 1,0,-1
 348 141 l 1,1,-1
 23 141 l 1,2,-1
 23 252 l 1,3,-1
 348 668 l 1,4,-1
 500 668 l 1,5,-1
 500 275 l 1,6,-1
 592 275 l 1,7,-1
 592 141 l 1,8,-1
 500 141 l 1,9,-1
 500 0 l 1,10,-1
 348 0 l 1,0,-1
188 275 m 1,11,-1
 348 275 l 1,12,-1
 348 469 l 1,13,-1
 188 275 l 1,11,-1
EndSplineSet
Validated: 1
Substitution2: "'tnum' Tabular Numbers lookup 14 subtable" four.tf
Substitution2: "'sups' Superscript lookup 9 subtable" uni2074
AlternateSubs2: "'aalt' Access All Alternates lookup 1 subtable" four.tf uni2074
EndChar

StartChar: five
Encoding: 53 53 10
Width: 612
GlyphClass: 1
Flags: W
HStem: -12 113<217.39 362.019> 341 113<220.664 362.352> 544 124<213 534>
VStem: 408 157<146.366 297.065>
LayerCount: 2
Fore
SplineSet
295 -12 m 0,0,1
 208 -12 208 -12 140.5 26.5 c 128,-1,2
 73 65 73 65 41 139 c 1,3,-1
 173 187 l 1,4,5
 187 138 187 138 218.5 119.5 c 128,-1,6
 250 101 250 101 287 101 c 0,7,8
 340 101 340 101 374 132 c 128,-1,9
 408 163 408 163 408 221 c 0,10,11
 408 283 408 283 372.5 312 c 128,-1,12
 337 341 337 341 290 341 c 0,13,14
 216 341 216 341 180 276 c 1,15,-1
 45 326 l 1,16,-1
 87 668 l 1,17,-1
 534 668 l 1,18,-1
 534 544 l 1,19,-1
 213 544 l 1,20,-1
 198 419 l 1,21,22
 221 436 221 436 258.5 445 c 128,-1,23
 296 454 296 454 331 454 c 0,24,25
 391 454 391 454 444.5 428 c 128,-1,26
 498 402 498 402 531.5 350.5 c 128,-1,27
 565 299 565 299 565 221 c 0,28,29
 565 145 565 145 527.5 93 c 128,-1,30
 490 41 490 41 428.5 14.5 c 128,-1,31
 367 -12 367 -12 295 -12 c 0,0,1
EndSplineSet
Validated: 1
Substitution2: "'tnum' Tabular Numbers lookup 14 subtable" five.tf
Substitution2: "'aalt' Access All Alternates lookup 0 subtable" five.tf
EndChar

StartChar: six
Encoding: 54 54 11
Width: 632
GlyphClass: 1
Flags: W
HStem: -12 113<253.69 385.62> 338 114<252.515 385.66> 570 110<263.144 395.884>
VStem: 51 161<155.963 381.08 403 465.366> 425 153<142.421 296.687>
LayerCount: 2
Fore
SplineSet
321 -12 m 0,0,1
 225 -12 225 -12 165.5 28 c 128,-1,2
 106 68 106 68 78.5 140 c 128,-1,3
 51 212 51 212 51 306 c 0,4,5
 51 378 51 378 67 445 c 128,-1,6
 83 512 83 512 117.5 565 c 128,-1,7
 152 618 152 618 207 649 c 128,-1,8
 262 680 262 680 340 680 c 0,9,10
 416 680 416 680 467 653.5 c 128,-1,11
 518 627 518 627 544 583 c 1,12,-1
 408 534 l 1,13,14
 398 551 398 551 377 560.5 c 128,-1,15
 356 570 356 570 330 570 c 0,16,17
 277 570 277 570 243.5 529.5 c 128,-1,18
 210 489 210 489 210 403 c 1,19,20
 235 426 235 426 269.5 439 c 128,-1,21
 304 452 304 452 353 452 c 0,22,23
 412 452 412 452 463.5 424.5 c 128,-1,24
 515 397 515 397 546.5 346.5 c 128,-1,25
 578 296 578 296 578 227 c 256,26,27
 578 158 578 158 545 104 c 128,-1,28
 512 50 512 50 454 19 c 128,-1,29
 396 -12 396 -12 321 -12 c 0,0,1
320 101 m 256,30,31
 369 101 369 101 397 133.5 c 128,-1,32
 425 166 425 166 425 219 c 256,33,34
 425 272 425 272 397 305 c 128,-1,35
 369 338 369 338 319 338 c 0,36,37
 271 338 271 338 241.5 306 c 128,-1,38
 212 274 212 274 212 220 c 256,39,40
 212 166 212 166 241.5 133.5 c 128,-1,41
 271 101 271 101 320 101 c 256,30,31
EndSplineSet
Validated: 1
Substitution2: "'tnum' Tabular Numbers lookup 14 subtable" six.tf
Substitution2: "'aalt' Access All Alternates lookup 0 subtable" six.tf
EndChar

StartChar: seven
Encoding: 55 55 12
Width: 543
GlyphClass: 1
Flags: W
HStem: 0 21G<83 267.466> 543 125<15 354>
LayerCount: 2
Fore
SplineSet
83 0 m 1,0,-1
 354 543 l 1,1,-1
 15 543 l 1,2,-1
 15 668 l 1,3,-1
 515 668 l 1,4,-1
 515 543 l 1,5,-1
 258 0 l 1,6,-1
 83 0 l 1,0,-1
EndSplineSet
Validated: 1
Substitution2: "'tnum' Tabular Numbers lookup 14 subtable" seven.tf
Substitution2: "'aalt' Access All Alternates lookup 0 subtable" seven.tf
EndChar

StartChar: eight
Encoding: 56 56 13
Width: 625
GlyphClass: 1
Flags: W
HStem: -12 126<233.886 391.007> 294 123<263.239 359.889> 555 125<263.836 361.144>
VStem: 38 157<150.308 261.32> 120 124<436.271 535.302> 380 125<437.374 536.061> 430 157<150.459 261.245>
LayerCount: 2
Fore
SplineSet
313 -12 m 256,0,1
 235 -12 235 -12 172.5 13 c 128,-1,2
 110 38 110 38 74 87 c 128,-1,3
 38 136 38 136 38 207 c 0,4,5
 38 268 38 268 67 307 c 128,-1,6
 96 346 96 346 152 377 c 1,7,8
 137 401 137 401 128.5 428.5 c 128,-1,9
 120 456 120 456 120 487 c 0,10,11
 120 540 120 540 144.5 584 c 128,-1,12
 169 628 169 628 212.5 654 c 128,-1,13
 256 680 256 680 313 680 c 256,14,15
 370 680 370 680 413.5 654 c 128,-1,16
 457 628 457 628 481 584 c 128,-1,17
 505 540 505 540 505 487 c 0,18,19
 505 427 505 427 472 378 c 1,20,21
 528 347 528 347 557.5 307.5 c 128,-1,22
 587 268 587 268 587 206 c 0,23,24
 587 136 587 136 551 87 c 128,-1,25
 515 38 515 38 453 13 c 128,-1,26
 391 -12 391 -12 313 -12 c 256,0,1
313 417 m 256,27,28
 341 417 341 417 360.5 437.5 c 128,-1,29
 380 458 380 458 380 486 c 0,30,31
 380 515 380 515 361 535 c 128,-1,32
 342 555 342 555 313 555 c 0,33,34
 285 555 285 555 264.5 535 c 128,-1,35
 244 515 244 515 244 486 c 0,36,37
 244 458 244 458 264.5 437.5 c 128,-1,38
 285 417 285 417 313 417 c 256,27,28
313 114 m 0,39,40
 364 114 364 114 397 140 c 128,-1,41
 430 166 430 166 430 206 c 0,42,43
 430 248 430 248 397 271 c 128,-1,44
 364 294 364 294 313 294 c 0,45,46
 261 294 261 294 228 271 c 128,-1,47
 195 248 195 248 195 206 c 0,48,49
 195 165 195 165 228 139.5 c 128,-1,50
 261 114 261 114 313 114 c 0,39,40
EndSplineSet
Validated: 1
Substitution2: "'tnum' Tabular Numbers lookup 14 subtable" eight.tf
Substitution2: "'aalt' Access All Alternates lookup 0 subtable" eight.tf
EndChar

StartChar: nine
Encoding: 57 57 14
Width: 561
GlyphClass: 1
Flags: W
HStem: 0 21G<170 350.5> 202 133<213.98 278> 544 135<210.711 341.971>
VStem: 38 135<374.781 505.98> 381 135<375.344 505.879>
LayerCount: 2
Fore
SplineSet
170 0 m 1,0,1
 199 50 199 50 225.5 100 c 128,-1,2
 252 150 252 150 278 202 c 1,3,-1
 267 202 l 2,4,5
 204 205 204 205 152 237.5 c 128,-1,6
 100 270 100 270 69 323 c 128,-1,7
 38 376 38 376 38 441 c 0,8,9
 38 507 38 507 70 561 c 128,-1,10
 102 615 102 615 156 647 c 128,-1,11
 210 679 210 679 275 679 c 0,12,13
 341 679 341 679 396 646.5 c 128,-1,14
 451 614 451 614 483.5 559.5 c 128,-1,15
 516 505 516 505 516 439 c 0,16,17
 516 408 516 408 507.5 379 c 128,-1,18
 499 350 499 350 481 313 c 0,19,20
 449 246 449 246 410 165 c 128,-1,21
 371 84 371 84 330 0 c 1,22,-1
 170 0 l 1,0,1
278 335 m 0,23,24
 322 335 322 335 352 366.5 c 128,-1,25
 382 398 382 398 381 445 c 256,26,27
 380 492 380 492 348 518 c 128,-1,28
 316 544 316 544 275 544 c 0,29,30
 228 544 228 544 200.5 513 c 128,-1,31
 173 482 173 482 173 440 c 0,32,33
 173 391 173 391 205.5 363 c 128,-1,34
 238 335 238 335 278 335 c 0,23,24
EndSplineSet
Validated: 33
Substitution2: "'tnum' Tabular Numbers lookup 14 subtable" nine.tf
Substitution2: "'aalt' Access All Alternates lookup 0 subtable" nine.tf
EndChar

StartChar: A
Encoding: 65 65 15
Width: 690
GlyphClass: 2
Flags: W
HStem: 0 21G<5 183.723 506.277 685> 119 128<260 430> 648 20G<250.425 439.575>
AnchorPoint: "Anchor-2" 654 0 basechar 0
AnchorPoint: "Anchor-1" 345 0 basechar 0
AnchorPoint: "Anchor-0" 345 668 basechar 0
LayerCount: 2
Fore
SplineSet
5 0 m 1,0,-1
 258 668 l 1,1,-1
 432 668 l 1,2,-1
 685 0 l 1,3,-1
 513 0 l 1,4,-1
 473 119 l 1,5,-1
 217 119 l 1,6,-1
 177 0 l 1,7,-1
 5 0 l 1,0,-1
260 247 m 1,8,-1
 430 247 l 1,9,-1
 344 501 l 1,10,-1
 260 247 l 1,8,-1
EndSplineSet
Validated: 1
Substitution2: "Single Substitution lookup 12 subtable" ordfeminine
Substitution2: "'aalt' Access All Alternates lookup 0 subtable" ordfeminine
EndChar

StartChar: B
Encoding: 66 66 16
Width: 639
GlyphClass: 1
Flags: W
HStem: 0 131<202 423.697> 282 122<202 402.793> 539 129<202 402.793>
VStem: 44 158<131 282 404 539> 426 164<423.071 521.023> 450 167<155.38 258.239>
LayerCount: 2
Fore
SplineSet
44 0 m 1,0,-1
 44 668 l 1,1,-1
 336 668 l 2,2,3
 409 668 409 668 466 653.5 c 128,-1,4
 523 639 523 639 556.5 601.5 c 128,-1,5
 590 564 590 564 590 494 c 0,6,7
 590 448 590 448 569.5 413 c 128,-1,8
 549 378 549 378 511 355 c 1,9,10
 558 339 558 339 587.5 303 c 128,-1,11
 617 267 617 267 617 206 c 0,12,13
 617 131 617 131 583.5 86 c 128,-1,14
 550 41 550 41 489 20.5 c 128,-1,15
 428 0 428 0 347 0 c 2,16,-1
 44 0 l 1,0,-1
202 404 m 1,17,-1
 341 404 l 2,18,19
 381 404 381 404 403.5 422.5 c 128,-1,20
 426 441 426 441 426 472 c 0,21,22
 426 504 426 504 403.5 521.5 c 128,-1,23
 381 539 381 539 341 539 c 2,24,-1
 202 539 l 1,25,-1
 202 404 l 1,17,-1
202 131 m 1,26,-1
 348 131 l 2,27,28
 399 131 399 131 424.5 151.5 c 128,-1,29
 450 172 450 172 450 207 c 256,30,31
 450 242 450 242 424.5 262 c 128,-1,32
 399 282 399 282 348 282 c 2,33,-1
 202 282 l 1,34,-1
 202 131 l 1,26,-1
EndSplineSet
Validated: 1
EndChar

StartChar: C
Encoding: 67 67 17
Width: 673
GlyphClass: 2
Flags: W
HStem: -12 130<291.107 460.991> 550 130<290.443 454.592>
VStem: 35 167<215.231 450.159>
AnchorPoint: "Anchor-1" 357 0 basechar 0
AnchorPoint: "Anchor-0" 357 668 basechar 0
LayerCount: 2
Fore
SplineSet
369 -12 m 0,0,1
 265 -12 265 -12 190 30 c 128,-1,2
 115 72 115 72 75 150 c 128,-1,3
 35 228 35 228 35 334 c 256,4,5
 35 440 35 440 76.5 517.5 c 128,-1,6
 118 595 118 595 194 637.5 c 128,-1,7
 270 680 270 680 373 680 c 0,8,9
 468 680 468 680 538.5 638 c 128,-1,10
 609 596 609 596 647 525 c 1,11,-1
 507 474 l 1,12,13
 485 515 485 515 447 532.5 c 128,-1,14
 409 550 409 550 368 550 c 0,15,16
 322 550 322 550 284 524.5 c 128,-1,17
 246 499 246 499 224 450.5 c 128,-1,18
 202 402 202 402 202 334 c 0,19,20
 202 229 202 229 250.5 173.5 c 128,-1,21
 299 118 299 118 370 118 c 0,22,23
 408 118 408 118 448.5 134 c 128,-1,24
 489 150 489 150 512 193 c 1,25,-1
 651 142 l 1,26,27
 611 71 611 71 537.5 29.5 c 128,-1,28
 464 -12 464 -12 369 -12 c 0,0,1
EndSplineSet
Validated: 1
EndChar

StartChar: D
Encoding: 68 68 18
Width: 686
GlyphClass: 2
Flags: W
HStem: 0 133<202 396.444> 537 131<202 394.188>
VStem: 44 158<133 537> 488 163<221.226 447.903>
AnchorPoint: "Anchor-1" 343 0 basechar 0
AnchorPoint: "Anchor-0" 333 668 basechar 0
LayerCount: 2
Fore
SplineSet
44 0 m 1,0,-1
 44 668 l 1,1,-1
 264 668 l 2,2,3
 346 668 346 668 416.5 651.5 c 128,-1,4
 487 635 487 635 539.5 596.5 c 128,-1,5
 592 558 592 558 621.5 493.5 c 128,-1,6
 651 429 651 429 651 334 c 0,7,8
 651 238 651 238 621.5 174 c 128,-1,9
 592 110 592 110 539.5 71.5 c 128,-1,10
 487 33 487 33 416.5 16.5 c 128,-1,11
 346 0 346 0 264 0 c 2,12,-1
 44 0 l 1,0,-1
202 133 m 1,13,-1
 267 133 l 2,14,15
 310 133 310 133 349.5 140 c 128,-1,16
 389 147 389 147 420.5 167.5 c 128,-1,17
 452 188 452 188 470 228 c 128,-1,18
 488 268 488 268 488 334 c 256,19,20
 488 400 488 400 470 440.5 c 128,-1,21
 452 481 452 481 420.5 501.5 c 128,-1,22
 389 522 389 522 349.5 529.5 c 128,-1,23
 310 537 310 537 267 537 c 2,24,-1
 202 537 l 1,25,-1
 202 133 l 1,13,-1
EndSplineSet
Validated: 1
EndChar

StartChar: E
Encoding: 69 69 19
Width: 580
GlyphClass: 2
Flags: W
HStem: 0 139<202 558> 274 139<202 419> 529 139<202 558>
VStem: 44 158<139 274 413 529>
AnchorPoint: "Anchor-2" 522 0 basechar 0
AnchorPoint: "Anchor-1" 290 0 basechar 0
AnchorPoint: "Anchor-0" 303 668 basechar 0
LayerCount: 2
Fore
SplineSet
44 0 m 1,0,-1
 44 668 l 1,1,-1
 558 668 l 1,2,-1
 558 529 l 1,3,-1
 202 529 l 1,4,-1
 202 413 l 1,5,-1
 419 413 l 1,6,-1
 419 274 l 1,7,-1
 202 274 l 1,8,-1
 202 139 l 1,9,-1
 558 139 l 1,10,-1
 558 0 l 1,11,-1
 44 0 l 1,0,-1
EndSplineSet
Validated: 1
EndChar

StartChar: F
Encoding: 70 70 20
Width: 544
GlyphClass: 1
Flags: W
HStem: 0 21G<44 202> 274 139<202 522> 529 139<202 522>
VStem: 44 158<0 274 413 529>
LayerCount: 2
Fore
SplineSet
44 0 m 1,0,-1
 44 668 l 1,1,-1
 522 668 l 1,2,-1
 522 529 l 1,3,-1
 202 529 l 1,4,-1
 202 413 l 1,5,-1
 522 413 l 1,6,-1
 522 274 l 1,7,-1
 202 274 l 1,8,-1
 202 0 l 1,9,-1
 44 0 l 1,0,-1
EndSplineSet
Validated: 1
EndChar

StartChar: G
Encoding: 71 71 21
Width: 719
GlyphClass: 2
Flags: W
HStem: -12 130<291.336 472.04> 0 21G<573.054 683> 250 128<375 525> 550 130<290.994 463.09>
VStem: 35 167<216.912 451.58> 525 158<164.005 250>
AnchorPoint: "Anchor-1" 350 0 basechar 0
AnchorPoint: "Anchor-0" 370 668 basechar 0
LayerCount: 2
Fore
SplineSet
352 -12 m 0,0,1
 254 -12 254 -12 183 30.5 c 128,-1,2
 112 73 112 73 73.5 151.5 c 128,-1,3
 35 230 35 230 35 336 c 256,4,5
 35 442 35 442 78 519 c 128,-1,6
 121 596 121 596 197.5 638 c 128,-1,7
 274 680 274 680 375 680 c 0,8,9
 463 680 463 680 533.5 645 c 128,-1,10
 604 610 604 610 644 542 c 1,11,-1
 508 486 l 1,12,13
 492 512 492 512 458.5 531 c 128,-1,14
 425 550 425 550 373 550 c 0,15,16
 326 550 326 550 287 526 c 128,-1,17
 248 502 248 502 225 454.5 c 128,-1,18
 202 407 202 407 202 336 c 0,19,20
 202 231 202 231 250 174.5 c 128,-1,21
 298 118 298 118 376 118 c 0,22,23
 413 118 413 118 447 128.5 c 128,-1,24
 481 139 481 139 503 164 c 128,-1,25
 525 189 525 189 525 231 c 2,26,-1
 525 250 l 1,27,-1
 375 250 l 1,28,-1
 375 378 l 1,29,-1
 683 378 l 1,30,-1
 683 0 l 1,31,-1
 579 0 l 1,32,-1
 557 74 l 1,33,34
 493 -12 493 -12 352 -12 c 0,0,1
EndSplineSet
Validated: 1
EndChar

StartChar: H
Encoding: 72 72 22
Width: 679
GlyphClass: 2
Flags: W
HStem: 0 21G<44 202 477 635> 274 139<202 477> 648 20G<44 202 477 635>
VStem: 44 158<0 274 413 668> 477 158<0 274 413 668>
AnchorPoint: "Anchor-1" 340 0 basechar 0
AnchorPoint: "Anchor-0" 340 668 basechar 0
LayerCount: 2
Fore
SplineSet
44 0 m 1,0,-1
 44 668 l 1,1,-1
 202 668 l 1,2,-1
 202 413 l 1,3,-1
 477 413 l 1,4,-1
 477 668 l 1,5,-1
 635 668 l 1,6,-1
 635 0 l 1,7,-1
 477 0 l 1,8,-1
 477 274 l 1,9,-1
 202 274 l 1,10,-1
 202 0 l 1,11,-1
 44 0 l 1,0,-1
EndSplineSet
Validated: 1
EndChar

StartChar: I
Encoding: 73 73 23
Width: 458
GlyphClass: 2
Flags: W
HStem: 0 124<57 151 309 401> 544 124<57 151 309 401>
VStem: 57 344<0 124 544 668>
AnchorPoint: "Anchor-2" 331 0 basechar 0
AnchorPoint: "Anchor-1" 229 0 basechar 0
AnchorPoint: "Anchor-0" 231 668 basechar 0
LayerCount: 2
Fore
SplineSet
57 0 m 1,0,-1
 57 124 l 1,1,-1
 151 124 l 1,2,-1
 151 544 l 1,3,-1
 57 544 l 1,4,-1
 57 668 l 1,5,-1
 401 668 l 1,6,-1
 401 544 l 1,7,-1
 309 544 l 1,8,-1
 309 124 l 1,9,-1
 401 124 l 1,10,-1
 401 0 l 1,11,-1
 57 0 l 1,0,-1
EndSplineSet
Validated: 1
EndChar

StartChar: J
Encoding: 74 74 24
Width: 560
GlyphClass: 1
Flags: W
HStem: -12 125<197.985 321.916> 648 20G<358 516>
VStem: 358 158<150.833 668>
LayerCount: 2
Fore
SplineSet
255 -12 m 0,0,1
 150 -12 150 -12 88 39 c 128,-1,2
 26 90 26 90 5 175 c 1,3,-1
 150 228 l 1,4,5
 156 200 156 200 168.5 173.5 c 128,-1,6
 181 147 181 147 202.5 130 c 128,-1,7
 224 113 224 113 255 113 c 0,8,9
 305 113 305 113 331.5 144.5 c 128,-1,10
 358 176 358 176 358 256 c 2,11,-1
 358 668 l 1,12,-1
 516 668 l 1,13,-1
 516 256 l 2,14,15
 516 131 516 131 449.5 59.5 c 128,-1,16
 383 -12 383 -12 255 -12 c 0,0,1
EndSplineSet
Validated: 1
EndChar

StartChar: K
Encoding: 75 75 25
Width: 659
GlyphClass: 2
Flags: W
HStem: 0 21G<44 202 451.588 649> 648 20G<44 202 424.811 636>
VStem: 44 158<0 197 403 668>
AnchorPoint: "Anchor-1" 319 0 basechar 0
AnchorPoint: "Anchor-0" 330 668 basechar 0
LayerCount: 2
Fore
SplineSet
44 0 m 1,0,-1
 44 668 l 1,1,-1
 202 668 l 1,2,-1
 202 403 l 1,3,-1
 443 668 l 1,4,-1
 636 668 l 1,5,-1
 372 382 l 1,6,-1
 649 0 l 1,7,-1
 466 0 l 1,8,-1
 270 272 l 1,9,-1
 202 197 l 1,10,-1
 202 0 l 1,11,-1
 44 0 l 1,0,-1
EndSplineSet
Validated: 1
EndChar

StartChar: L
Encoding: 76 76 26
Width: 537
GlyphClass: 2
Flags: W
HStem: 0 139<202 522> 648 20G<44 202>
VStem: 44 158<139 668>
AnchorPoint: "Anchor-1" 269 0 basechar 0
AnchorPoint: "Anchor-0" 269 668 basechar 0
LayerCount: 2
Fore
SplineSet
44 0 m 1,0,-1
 44 668 l 1,1,-1
 202 668 l 1,2,-1
 202 139 l 1,3,-1
 522 139 l 1,4,-1
 522 0 l 1,5,-1
 44 0 l 1,0,-1
EndSplineSet
Validated: 1
EndChar

StartChar: M
Encoding: 77 77 27
Width: 842
GlyphClass: 1
Flags: W
HStem: 0 21G<44 197 348.981 491.057 644 798> 648 20G<44 286.804 555.113 798>
VStem: 44 153<0 525> 644 154<0 525>
LayerCount: 2
Fore
SplineSet
44 0 m 1,0,-1
 44 668 l 1,1,-1
 281 668 l 1,2,-1
 420 189 l 1,3,-1
 561 668 l 1,4,-1
 798 668 l 1,5,-1
 798 0 l 1,6,-1
 644 0 l 1,7,-1
 644 525 l 1,8,-1
 485 0 l 1,9,-1
 355 0 l 1,10,-1
 197 525 l 1,11,-1
 197 0 l 1,12,-1
 44 0 l 1,0,-1
EndSplineSet
Validated: 1
EndChar

StartChar: N
Encoding: 78 78 28
Width: 700
GlyphClass: 2
Flags: W
HStem: 0 21G<44 196 443.16 656> 648 20G<44 255.84 503 656>
VStem: 44 152<0 476> 503 153<192 668>
AnchorPoint: "Anchor-1" 322 0 basechar 0
AnchorPoint: "Anchor-0" 365 668 basechar 0
LayerCount: 2
Fore
SplineSet
44 0 m 1,0,-1
 44 668 l 1,1,-1
 245 668 l 1,2,-1
 503 192 l 1,3,-1
 503 668 l 1,4,-1
 656 668 l 1,5,-1
 656 0 l 1,6,-1
 454 0 l 1,7,-1
 196 476 l 1,8,-1
 196 0 l 1,9,-1
 44 0 l 1,0,-1
EndSplineSet
Validated: 1
EndChar

StartChar: O
Encoding: 79 79 29
Width: 764
GlyphClass: 2
Flags: W
HStem: -12 130<296.748 466.092> 550 130<296.748 466.092>
VStem: 35 167<221.765 446.235> 561 168<221.765 446.235>
AnchorPoint: "Anchor-2" 688 10 basechar 0
AnchorPoint: "Anchor-1" 382 0 basechar 0
AnchorPoint: "Anchor-0" 382 668 basechar 0
LayerCount: 2
Fore
SplineSet
381 -12 m 0,0,1
 279 -12 279 -12 201 31 c 128,-1,2
 123 74 123 74 79 152 c 128,-1,3
 35 230 35 230 35 334 c 256,4,5
 35 438 35 438 79 516 c 128,-1,6
 123 594 123 594 201 637 c 128,-1,7
 279 680 279 680 381 680 c 0,8,9
 484 680 484 680 562 637 c 128,-1,10
 640 594 640 594 684.5 516 c 128,-1,11
 729 438 729 438 729 334 c 256,12,13
 729 230 729 230 684.5 152 c 128,-1,14
 640 74 640 74 562 31 c 128,-1,15
 484 -12 484 -12 381 -12 c 0,0,1
381 118 m 0,16,17
 430 118 430 118 471 142.5 c 128,-1,18
 512 167 512 167 536.5 215 c 128,-1,19
 561 263 561 263 561 334 c 256,20,21
 561 405 561 405 536.5 453 c 128,-1,22
 512 501 512 501 471 525.5 c 128,-1,23
 430 550 430 550 381 550 c 0,24,25
 333 550 333 550 292 525.5 c 128,-1,26
 251 501 251 501 226.5 453 c 128,-1,27
 202 405 202 405 202 334 c 256,28,29
 202 263 202 263 226.5 215 c 128,-1,30
 251 167 251 167 292 142.5 c 128,-1,31
 333 118 333 118 381 118 c 0,16,17
EndSplineSet
Validated: 1
Substitution2: "Single Substitution lookup 12 subtable" ordmasculine
Substitution2: "'aalt' Access All Alternates lookup 0 subtable" ordmasculine
EndChar

StartChar: P
Encoding: 80 80 30
Width: 626
GlyphClass: 1
Flags: W
HStem: 0 21G<44 202> 232 131<202 404.876> 535 133<202 407.22>
VStem: 44 158<0 232 363 535> 437 167<394.584 504.287>
LayerCount: 2
Fore
SplineSet
44 0 m 1,0,-1
 44 668 l 1,1,-1
 301 668 l 2,2,3
 388 668 388 668 456.5 650 c 128,-1,4
 525 632 525 632 564.5 585 c 128,-1,5
 604 538 604 538 604 450 c 0,6,7
 604 363 604 363 564.5 315.5 c 128,-1,8
 525 268 525 268 456.5 250 c 128,-1,9
 388 232 388 232 301 232 c 2,10,-1
 202 232 l 1,11,-1
 202 0 l 1,12,-1
 44 0 l 1,0,-1
202 363 m 1,13,-1
 306 363 l 2,14,15
 343 363 343 363 372.5 370 c 128,-1,16
 402 377 402 377 419.5 396 c 128,-1,17
 437 415 437 415 437 450 c 256,18,19
 437 485 437 485 419.5 503.5 c 128,-1,20
 402 522 402 522 372.5 528.5 c 128,-1,21
 343 535 343 535 306 535 c 2,22,-1
 202 535 l 1,23,-1
 202 363 l 1,13,-1
EndSplineSet
Validated: 1
EndChar

StartChar: Q
Encoding: 81 81 31
Width: 781
GlyphClass: 1
Flags: W
HStem: -12 130<296.748 464.922> 550 130<296.748 466.092>
VStem: 35 167<221.765 446.235> 561 168<251.547 446.235>
LayerCount: 2
Fore
SplineSet
698 -55 m 1,0,-1
 589 48 l 1,1,2
 503 -12 503 -12 381 -12 c 0,3,4
 279 -12 279 -12 201 31 c 128,-1,5
 123 74 123 74 79 152 c 128,-1,6
 35 230 35 230 35 334 c 256,7,8
 35 438 35 438 79 516 c 128,-1,9
 123 594 123 594 201 637 c 128,-1,10
 279 680 279 680 381 680 c 0,11,12
 484 680 484 680 562 637 c 128,-1,13
 640 594 640 594 684.5 516 c 128,-1,14
 729 438 729 438 729 334 c 0,15,16
 729 276 729 276 714.5 226 c 128,-1,17
 700 176 700 176 674 135 c 1,18,-1
 781 34 l 1,19,-1
 698 -55 l 1,0,-1
381 118 m 0,20,21
 438 118 438 118 481 149 c 1,22,-1
 338 285 l 1,23,-1
 421 372 l 1,24,-1
 550 251 l 1,25,26
 556 270 556 270 558.5 290.5 c 128,-1,27
 561 311 561 311 561 334 c 0,28,29
 561 405 561 405 536.5 453 c 128,-1,30
 512 501 512 501 471 525.5 c 128,-1,31
 430 550 430 550 381 550 c 0,32,33
 333 550 333 550 292 525.5 c 128,-1,34
 251 501 251 501 226.5 453 c 128,-1,35
 202 405 202 405 202 334 c 256,36,37
 202 263 202 263 226.5 215 c 128,-1,38
 251 167 251 167 292 142.5 c 128,-1,39
 333 118 333 118 381 118 c 0,20,21
EndSplineSet
Validated: 1
EndChar

StartChar: R
Encoding: 82 82 32
Width: 654
GlyphClass: 2
Flags: W
HStem: 0 21G<44 202 439.635 637> 252 132<202 273> 535 133<202 411.881>
VStem: 44 158<0 252 384 535> 437 167<407.418 511.648>
AnchorPoint: "Anchor-1" 327 0 basechar 0
AnchorPoint: "Anchor-0" 307 668 basechar 0
LayerCount: 2
Fore
SplineSet
44 0 m 1,0,-1
 44 668 l 1,1,-1
 301 668 l 2,2,3
 388 668 388 668 456.5 651 c 128,-1,4
 525 634 525 634 564.5 589 c 128,-1,5
 604 544 604 544 604 461 c 0,6,7
 604 423 604 423 590 385.5 c 128,-1,8
 576 348 576 348 541.5 317 c 128,-1,9
 507 286 507 286 443 269 c 1,10,-1
 637 0 l 1,11,-1
 454 0 l 1,12,-1
 273 252 l 1,13,-1
 202 252 l 1,14,-1
 202 0 l 1,15,-1
 44 0 l 1,0,-1
202 384 m 1,16,-1
 306 384 l 2,17,18
 362 384 362 384 399.5 398.5 c 128,-1,19
 437 413 437 413 437 459 c 0,20,21
 437 506 437 506 399.5 520.5 c 128,-1,22
 362 535 362 535 306 535 c 2,23,-1
 202 535 l 1,24,-1
 202 384 l 1,16,-1
EndSplineSet
Validated: 1
EndChar

StartChar: S
Encoding: 83 83 33
Width: 619
GlyphClass: 2
Flags: W
HStem: -12 127<224.575 406.838> 553 127<217.01 383.598>
VStem: 28 162<445.579 530.707> 434 162<141.117 230.914>
AnchorPoint: "Anchor-1" 329 0 basechar 0
AnchorPoint: "Anchor-0" 304 668 basechar 0
LayerCount: 2
Fore
SplineSet
314 -12 m 0,0,1
 205 -12 205 -12 130.5 32.5 c 128,-1,2
 56 77 56 77 25 157 c 1,3,-1
 169 209 l 1,4,5
 183 161 183 161 221.5 138 c 128,-1,6
 260 115 260 115 315 115 c 0,7,8
 344 115 344 115 371 121.5 c 128,-1,9
 398 128 398 128 416 143.5 c 128,-1,10
 434 159 434 159 434 185 c 0,11,12
 434 220 434 220 400 239.5 c 128,-1,13
 366 259 366 259 312 269 c 2,14,-1
 231 285 l 2,15,16
 177 296 177 296 130.5 318.5 c 128,-1,17
 84 341 84 341 56 378.5 c 128,-1,18
 28 416 28 416 28 473 c 0,19,20
 28 527 28 527 53 566 c 128,-1,21
 78 605 78 605 119.5 630 c 128,-1,22
 161 655 161 655 211 667.5 c 128,-1,23
 261 680 261 680 311 680 c 0,24,25
 365 680 365 680 415.5 665 c 128,-1,26
 466 650 466 650 506 618.5 c 128,-1,27
 546 587 546 587 567 535 c 1,28,-1
 424 483 l 1,29,30
 411 517 411 517 377.5 535 c 128,-1,31
 344 553 344 553 297 553 c 0,32,33
 251 553 251 553 220.5 536.5 c 128,-1,34
 190 520 190 520 190 489 c 0,35,36
 190 464 190 464 211 446 c 128,-1,37
 232 428 232 428 266 421 c 2,38,-1
 356 403 l 2,39,40
 397 395 397 395 439 382.5 c 128,-1,41
 481 370 481 370 516.5 349.5 c 128,-1,42
 552 329 552 329 574 295 c 128,-1,43
 596 261 596 261 596 209 c 0,44,45
 596 156 596 156 571.5 114.5 c 128,-1,46
 547 73 547 73 506.5 45 c 128,-1,47
 466 17 466 17 416 2.5 c 128,-1,48
 366 -12 366 -12 314 -12 c 0,0,1
EndSplineSet
Validated: 1
EndChar

StartChar: T
Encoding: 84 84 34
Width: 617
GlyphClass: 2
Flags: W
HStem: 0 21G<230 387> 529 139<15 230 387 602>
VStem: 230 157<0 529>
AnchorPoint: "Anchor-1" 309 0 basechar 0
AnchorPoint: "Anchor-0" 309 668 basechar 0
LayerCount: 2
Fore
SplineSet
230 0 m 1,0,-1
 230 529 l 1,1,-1
 15 529 l 1,2,-1
 15 668 l 1,3,-1
 602 668 l 1,4,-1
 602 529 l 1,5,-1
 387 529 l 1,6,-1
 387 0 l 1,7,-1
 230 0 l 1,0,-1
EndSplineSet
Validated: 1
EndChar

StartChar: U
Encoding: 85 85 35
Width: 663
GlyphClass: 2
Flags: W
HStem: -12 129<248.364 414.911> 648 20G<44 202 461 619>
VStem: 44 158<164.983 668> 461 158<164.983 668>
AnchorPoint: "Anchor-2" 440 0 basechar 0
AnchorPoint: "Anchor-1" 332 0 basechar 0
AnchorPoint: "Anchor-0" 332 668 basechar 0
LayerCount: 2
Fore
SplineSet
332 -12 m 0,0,1
 175 -12 175 -12 109.5 63 c 128,-1,2
 44 138 44 138 44 292 c 2,3,-1
 44 668 l 1,4,-1
 202 668 l 1,5,-1
 202 279 l 2,6,7
 202 230 202 230 211.5 193.5 c 128,-1,8
 221 157 221 157 249 137 c 128,-1,9
 277 117 277 117 332 117 c 256,10,11
 387 117 387 117 414.5 137 c 128,-1,12
 442 157 442 157 451.5 193.5 c 128,-1,13
 461 230 461 230 461 279 c 2,14,-1
 461 668 l 1,15,-1
 619 668 l 1,16,-1
 619 292 l 2,17,18
 619 138 619 138 553 63 c 128,-1,19
 487 -12 487 -12 332 -12 c 0,0,1
EndSplineSet
Validated: 1
EndChar

StartChar: V
Encoding: 86 86 36
Width: 656
GlyphClass: 1
Flags: W
HStem: 0 21G<229.234 425.796> 648 20G<10 180.232 474.727 646>
LayerCount: 2
Fore
SplineSet
236 0 m 1,0,-1
 10 668 l 1,1,-1
 174 668 l 1,2,-1
 327 177 l 1,3,-1
 481 668 l 1,4,-1
 646 668 l 1,5,-1
 419 0 l 1,6,-1
 236 0 l 1,0,-1
EndSplineSet
Validated: 1
EndChar

StartChar: W
Encoding: 87 87 37
Width: 883
GlyphClass: 1
Flags: W
HStem: 0 21G<166.18 344.298 538.66 716.82> 648 20G<10 172.017 354.767 527.276 710.983 873>
LayerCount: 2
Fore
SplineSet
171 0 m 1,0,-1
 10 668 l 1,1,-1
 168 668 l 1,2,-1
 261 205 l 1,3,-1
 359 668 l 1,4,-1
 523 668 l 1,5,-1
 622 205 l 1,6,-1
 715 668 l 1,7,-1
 873 668 l 1,8,-1
 712 0 l 1,9,-1
 543 0 l 1,10,-1
 441 470 l 1,11,-1
 340 0 l 1,12,-1
 171 0 l 1,0,-1
EndSplineSet
Validated: 1
EndChar

StartChar: X
Encoding: 88 88 38
Width: 699
GlyphClass: 1
Flags: W
HStem: 0 21G<10 214.123 484.782 689> 648 20G<24 227.167 471.729 675>
LayerCount: 2
Fore
SplineSet
10 0 m 1,0,-1
 255 343 l 1,1,-1
 24 668 l 1,2,-1
 213 668 l 1,3,-1
 349 476 l 1,4,-1
 486 668 l 1,5,-1
 675 668 l 1,6,-1
 444 343 l 1,7,-1
 689 0 l 1,8,-1
 499 0 l 1,9,-1
 349 211 l 1,10,-1
 200 0 l 1,11,-1
 10 0 l 1,0,-1
EndSplineSet
Validated: 1
EndChar

StartChar: Y
Encoding: 89 89 39
Width: 687
GlyphClass: 2
Flags: W
HStem: 0 21G<265 422> 648 20G<10 205.595 480.405 677>
VStem: 265 157<0 260>
AnchorPoint: "Anchor-1" 344 0 basechar 0
AnchorPoint: "Anchor-0" 344 668 basechar 0
LayerCount: 2
Fore
SplineSet
265 0 m 1,0,-1
 265 260 l 1,1,-1
 10 668 l 1,2,-1
 194 668 l 1,3,-1
 343 411 l 1,4,-1
 492 668 l 1,5,-1
 677 668 l 1,6,-1
 422 260 l 1,7,-1
 422 0 l 1,8,-1
 265 0 l 1,0,-1
EndSplineSet
Validated: 1
EndChar

StartChar: Z
Encoding: 90 90 40
Width: 621
GlyphClass: 2
Flags: W
HStem: 0 139<240 589> 529 139<47 369>
AnchorPoint: "Anchor-1" 311 0 basechar 0
AnchorPoint: "Anchor-0" 311 668 basechar 0
LayerCount: 2
Fore
SplineSet
32 0 m 1,0,-1
 32 121 l 1,1,-1
 369 529 l 1,2,-1
 47 529 l 1,3,-1
 47 668 l 1,4,-1
 574 668 l 1,5,-1
 574 547 l 1,6,-1
 240 139 l 1,7,-1
 589 139 l 1,8,-1
 589 0 l 1,9,-1
 32 0 l 1,0,-1
EndSplineSet
Validated: 1
EndChar

StartChar: a
Encoding: 97 97 41
Width: 553
GlyphClass: 2
Flags: W
HStem: -12 104<194.267 302.333> 0 21G<373 520> 220 90<228.876 353> 407 103<206.417 335.926>
VStem: 24 157<106.385 186.02> 356 147<124.574 220 308.591 386.597>
AnchorPoint: "Anchor-2" 518 0 basechar 0
AnchorPoint: "Anchor-1" 277 0 basechar 0
AnchorPoint: "Anchor-0" 285 496 basechar 0
LayerCount: 2
Fore
SplineSet
195 -12 m 0,0,1
 148 -12 148 -12 109 6 c 128,-1,2
 70 24 70 24 47 56.5 c 128,-1,3
 24 89 24 89 24 134 c 0,4,5
 24 195 24 195 66.5 231 c 128,-1,6
 109 267 109 267 183 285 c 128,-1,7
 257 303 257 303 353 310 c 1,8,9
 353 363 353 363 336 385 c 128,-1,10
 319 407 319 407 270 407 c 0,11,12
 239 407 239 407 215.5 392.5 c 128,-1,13
 192 378 192 378 184 348 c 1,14,-1
 56 394 l 1,15,16
 81 444 81 444 139.5 477 c 128,-1,17
 198 510 198 510 283 510 c 0,18,19
 389 510 389 510 446 463 c 128,-1,20
 503 416 503 416 503 303 c 2,21,-1
 503 194 l 2,22,23
 503 162 503 162 505 125 c 128,-1,24
 507 88 507 88 511 55 c 128,-1,25
 515 22 515 22 520 0 c 1,26,-1
 379 0 l 1,27,-1
 361 60 l 1,28,29
 333 21 333 21 290.5 4.5 c 128,-1,30
 248 -12 248 -12 195 -12 c 0,0,1
251 92 m 0,31,32
 296 92 296 92 326 116 c 128,-1,33
 356 140 356 140 356 208 c 2,34,-1
 356 220 l 1,35,36
 277 213 277 213 229 198.5 c 128,-1,37
 181 184 181 184 181 145 c 0,38,39
 181 121 181 121 201 106.5 c 128,-1,40
 221 92 221 92 251 92 c 0,31,32
EndSplineSet
Validated: 1
Substitution2: "Single Substitution lookup 12 subtable" ordfeminine
Substitution2: "'aalt' Access All Alternates lookup 0 subtable" ordfeminine
EndChar

StartChar: b
Encoding: 98 98 42
Width: 596
GlyphClass: 1
Flags: W
HStem: -12 118<263.632 364.702> 0 21G<50 188.672> 392 118<266.793 365.802> 648 20G<50 202>
VStem: 50 152<428 668> 50 145<152.922 344.443> 414 158<159.579 341.684>
AnchorPoint: "Anchor-1" 353 -12 basechar 0
AnchorPoint: "Anchor-0" 353 510 basechar 0
LayerCount: 2
Fore
SplineSet
353 -12 m 0,0,1
 313 -12 313 -12 269.5 7 c 128,-1,2
 226 26 226 26 202 67 c 1,3,-1
 183 0 l 1,4,-1
 50 0 l 1,5,-1
 50 668 l 1,6,-1
 202 668 l 1,7,-1
 202 428 l 1,8,9
 226 469 226 469 269.5 489.5 c 128,-1,10
 313 510 313 510 353 510 c 0,11,12
 417 510 417 510 466.5 479 c 128,-1,13
 516 448 516 448 544 390.5 c 128,-1,14
 572 333 572 333 572 252 c 256,15,16
 572 171 572 171 544 111.5 c 128,-1,17
 516 52 516 52 466.5 20 c 128,-1,18
 417 -12 417 -12 353 -12 c 0,0,1
305 106 m 0,19,20
 349 106 349 106 381.5 144.5 c 128,-1,21
 414 183 414 183 414 252 c 0,22,23
 414 320 414 320 381.5 356 c 128,-1,24
 349 392 349 392 305 392 c 0,25,26
 260 392 260 392 227.5 358.5 c 128,-1,27
 195 325 195 325 195 249 c 0,28,29
 195 172 195 172 227.5 139 c 128,-1,30
 260 106 260 106 305 106 c 0,19,20
EndSplineSet
EndChar

StartChar: c
Encoding: 99 99 43
Width: 520
GlyphClass: 2
Flags: W
HStem: -12 118<223.861 354.393> 392 118<223.3 351.673>
VStem: 24 155<154.371 344.993>
AnchorPoint: "Anchor-1" 275 0 basechar 0
AnchorPoint: "Anchor-0" 280 496 basechar 0
LayerCount: 2
Fore
SplineSet
278 -12 m 0,0,1
 196 -12 196 -12 139.5 21 c 128,-1,2
 83 54 83 54 53.5 113.5 c 128,-1,3
 24 173 24 173 24 251 c 256,4,5
 24 329 24 329 56 387.5 c 128,-1,6
 88 446 88 446 145.5 478 c 128,-1,7
 203 510 203 510 278 510 c 0,8,9
 321 510 321 510 363.5 498 c 128,-1,10
 406 486 406 486 442.5 457.5 c 128,-1,11
 479 429 479 429 502 380 c 1,12,-1
 375 334 l 1,13,14
 363 366 363 366 339.5 379 c 128,-1,15
 316 392 316 392 287 392 c 0,16,17
 260 392 260 392 235 378.5 c 128,-1,18
 210 365 210 365 194.5 334 c 128,-1,19
 179 303 179 303 179 250 c 0,20,21
 179 196 179 196 195 164.5 c 128,-1,22
 211 133 211 133 235.5 119.5 c 128,-1,23
 260 106 260 106 287 106 c 0,24,25
 319 106 319 106 341 118.5 c 128,-1,26
 363 131 363 131 376 153 c 1,27,-1
 500 108 l 1,28,29
 475 63 475 63 438 36.5 c 128,-1,30
 401 10 401 10 359.5 -1 c 128,-1,31
 318 -12 318 -12 278 -12 c 0,0,1
EndSplineSet
Validated: 1
EndChar

StartChar: d
Encoding: 100 100 44
Width: 596
GlyphClass: 2
Flags: W
HStem: -12 118<231.329 333.157> 0 21G<412.03 563> 392 118<230.222 329.591> 648 20G<394 546>
VStem: 24 158<159.579 341.684> 394 152<428 668> 401 145<152.922 344.443>
AnchorPoint: "Anchor-1" 243 -12 basechar 0
AnchorPoint: "Anchor-0" 243 510 basechar 0
LayerCount: 2
Fore
SplineSet
243 -12 m 0,0,1
 179 -12 179 -12 129.5 20 c 128,-1,2
 80 52 80 52 52 111.5 c 128,-1,3
 24 171 24 171 24 252 c 256,4,5
 24 333 24 333 52 390.5 c 128,-1,6
 80 448 80 448 129.5 479 c 128,-1,7
 179 510 179 510 243 510 c 0,8,9
 284 510 284 510 327 489.5 c 128,-1,10
 370 469 370 469 394 428 c 1,11,-1
 394 668 l 1,12,-1
 546 668 l 1,13,-1
 546 194 l 2,14,15
 546 157 546 157 549.5 106 c 128,-1,16
 553 55 553 55 563 0 c 1,17,-1
 418 0 l 1,18,-1
 398 67 l 1,19,20
 367 24 367 24 325.5 6 c 128,-1,21
 284 -12 284 -12 243 -12 c 0,0,1
292 106 m 0,22,23
 336 106 336 106 368.5 139 c 128,-1,24
 401 172 401 172 401 249 c 0,25,26
 401 325 401 325 368.5 358.5 c 128,-1,27
 336 392 336 392 292 392 c 0,28,29
 247 392 247 392 214.5 356 c 128,-1,30
 182 320 182 320 182 252 c 0,31,32
 182 183 182 183 214.5 144.5 c 128,-1,33
 247 106 247 106 292 106 c 0,22,23
EndSplineSet
EndChar

StartChar: e
Encoding: 101 101 45
Width: 566
GlyphClass: 2
Flags: W
HStem: -12 118<222.438 373.818> 210 90<177 403> 397 113<220.239 366.039>
AnchorPoint: "Anchor-2" 509 10 basechar 0
AnchorPoint: "Anchor-1" 283 0 basechar 0
AnchorPoint: "Anchor-0" 284 496 basechar 0
LayerCount: 2
Fore
SplineSet
296 -12 m 0,0,1
 216 -12 216 -12 154.5 19.5 c 128,-1,2
 93 51 93 51 58.5 110 c 128,-1,3
 24 169 24 169 24 251 c 0,4,5
 24 330 24 330 60.5 388 c 128,-1,6
 97 446 97 446 157.5 478 c 128,-1,7
 218 510 218 510 290 510 c 0,8,9
 372 510 372 510 430.5 471.5 c 128,-1,10
 489 433 489 433 519 365.5 c 128,-1,11
 549 298 549 298 544 210 c 1,12,-1
 177 210 l 1,13,14
 181 158 181 158 215.5 132 c 128,-1,15
 250 106 250 106 292 106 c 0,16,17
 327 106 327 106 352.5 116.5 c 128,-1,18
 378 127 378 127 392 143 c 1,19,-1
 513 99 l 1,20,21
 474 42 474 42 415.5 15 c 128,-1,22
 357 -12 357 -12 296 -12 c 0,0,1
177 300 m 1,23,-1
 403 300 l 1,24,25
 402 348 402 348 370 372.5 c 128,-1,26
 338 397 338 397 294 397 c 0,27,28
 251 397 251 397 217.5 374 c 128,-1,29
 184 351 184 351 177 300 c 1,23,-1
EndSplineSet
Validated: 33
EndChar

StartChar: f
Encoding: 102 102 46
Width: 367
GlyphClass: 1
Flags: W
HStem: 0 21G<87 239> 380 116<5 87 239 347> 608 120<252.413 347>
VStem: 87 152<0 380 496 599.745>
AnchorPoint: "Anchor-0" 80 658 basechar 0
LayerCount: 2
Fore
SplineSet
87 0 m 1,0,-1
 87 380 l 1,1,-1
 5 380 l 1,2,-1
 5 496 l 1,3,-1
 87 496 l 1,4,-1
 87 577 l 2,5,6
 87 636 87 636 107 669 c 128,-1,7
 127 702 127 702 169 715 c 128,-1,8
 211 728 211 728 278 728 c 2,9,-1
 347 728 l 1,10,-1
 347 608 l 1,11,-1
 305 608 l 2,12,13
 265 608 265 608 252 600 c 128,-1,14
 239 592 239 592 239 563 c 2,15,-1
 239 496 l 1,16,-1
 347 496 l 1,17,-1
 347 380 l 1,18,-1
 239 380 l 1,19,-1
 239 0 l 1,20,-1
 87 0 l 1,0,-1
EndSplineSet
EndChar

StartChar: g
Encoding: 103 103 47
Width: 597
GlyphClass: 2
Flags: W
HStem: -203 116<216.877 363.693> 18 118<227.523 327.001> 392 119<225.005 324.738> 476 20G<409.118 546>
VStem: 24 158<181.567 349.293> 395 151<-55.8784 96 168.32 359.35>
AnchorPoint: "Anchor-1" 299 -251 basechar 0
AnchorPoint: "Anchor-0" 297 496 basechar 0
LayerCount: 2
Fore
SplineSet
293 -203 m 0,0,1
 252 -203 252 -203 210 -192.5 c 128,-1,2
 168 -182 168 -182 132 -156 c 128,-1,3
 96 -130 96 -130 73 -85 c 1,4,-1
 197 -40 l 1,5,6
 211 -67 211 -67 237 -77 c 128,-1,7
 263 -87 263 -87 289 -87 c 0,8,9
 337 -87 337 -87 366 -64.5 c 128,-1,10
 395 -42 395 -42 395 7 c 2,11,-1
 395 96 l 1,12,13
 363 56 363 56 321.5 37 c 128,-1,14
 280 18 280 18 238 18 c 0,15,16
 184 18 184 18 135 47 c 128,-1,17
 86 76 86 76 55 130 c 128,-1,18
 24 184 24 184 24 259 c 0,19,20
 24 346 24 346 55 401.5 c 128,-1,21
 86 457 86 457 134 484 c 128,-1,22
 182 511 182 511 233 511 c 0,23,24
 280 511 280 511 323.5 490 c 128,-1,25
 367 469 367 469 395 428 c 1,26,-1
 415 496 l 1,27,-1
 546 496 l 1,28,-1
 546 37 l 2,29,30
 546 -87 546 -87 479 -145 c 128,-1,31
 412 -203 412 -203 293 -203 c 0,0,1
292 136 m 0,32,33
 322 136 322 136 346.5 147.5 c 128,-1,34
 371 159 371 159 386 187 c 128,-1,35
 401 215 401 215 401 263 c 0,36,37
 401 336 401 336 368.5 364 c 128,-1,38
 336 392 336 392 292 392 c 0,39,40
 247 392 247 392 214.5 362 c 128,-1,41
 182 332 182 332 182 267 c 0,42,43
 182 201 182 201 214.5 168.5 c 128,-1,44
 247 136 247 136 292 136 c 0,32,33
EndSplineSet
Validated: 1
EndChar

StartChar: h
Encoding: 104 104 48
Width: 572
GlyphClass: 2
Flags: W
HStem: 0 21G<50 202 370 522> 392 118<265.68 403> 648 20G<50 202>
VStem: 50 152<0 357.493 430 668> 370 152<0 371.07>
AnchorPoint: "Anchor-1" 286 0 basechar 0
AnchorPoint: "Anchor-0" 286 796 basechar 0
LayerCount: 2
Fore
SplineSet
50 0 m 1,0,-1
 50 668 l 1,1,-1
 202 668 l 1,2,-1
 202 430 l 1,3,4
 219 458 219 458 258.5 484 c 128,-1,5
 298 510 298 510 355 510 c 0,6,7
 451 510 451 510 486.5 456.5 c 128,-1,8
 522 403 522 403 522 302 c 2,9,-1
 522 0 l 1,10,-1
 370 0 l 1,11,-1
 370 264 l 2,12,13
 370 299 370 299 366 328 c 128,-1,14
 362 357 362 357 346.5 374.5 c 128,-1,15
 331 392 331 392 294 392 c 0,16,17
 246 392 246 392 224 357.5 c 128,-1,18
 202 323 202 323 202 255 c 2,19,-1
 202 0 l 1,20,-1
 50 0 l 1,0,-1
EndSplineSet
Validated: 1
EndChar

StartChar: i
Encoding: 105 105 49
Width: 315
GlyphClass: 1
Flags: W
HStem: 0 21G<118 271> 380 116<24 118> 578 180<136.561 254.02>
VStem: 105 180<609.561 727.02> 118 153<0 380>
LayerCount: 2
Fore
SplineSet
195 578 m 0,0,1
 158 578 158 578 131.5 604.5 c 128,-1,2
 105 631 105 631 105 668 c 0,3,4
 105 706 105 706 131.5 732 c 128,-1,5
 158 758 158 758 195 758 c 0,6,7
 233 758 233 758 259 732 c 128,-1,8
 285 706 285 706 285 668 c 0,9,10
 285 631 285 631 259 604.5 c 128,-1,11
 233 578 233 578 195 578 c 0,0,1
118 0 m 1,12,-1
 118 380 l 1,13,-1
 24 380 l 1,14,-1
 24 496 l 1,15,-1
 271 496 l 1,16,-1
 271 0 l 1,17,-1
 118 0 l 1,12,-1
EndSplineSet
Validated: 1
Substitution2: "Single Substitution lookup 4 subtable" dotlessi
Substitution2: "Single Substitution lookup 3 subtable" dotlessi
EndChar

StartChar: j
Encoding: 106 106 50
Width: 259
GlyphClass: 1
Flags: W
HStem: -161 120<-70 41.0719> 476 20G<55 207> 578 180<73.561 190.439>
VStem: 42 180<609.561 727.02> 55 152<-33.7769 496>
LayerCount: 2
Fore
SplineSet
132 578 m 256,0,1
 95 578 95 578 68.5 604.5 c 128,-1,2
 42 631 42 631 42 668 c 0,3,4
 42 706 42 706 68.5 732 c 128,-1,5
 95 758 95 758 132 758 c 256,6,7
 169 758 169 758 195.5 732 c 128,-1,8
 222 706 222 706 222 668 c 0,9,10
 222 631 222 631 195.5 604.5 c 128,-1,11
 169 578 169 578 132 578 c 256,0,1
17 -161 m 2,12,-1
 -70 -161 l 1,13,-1
 -70 -41 l 1,14,-1
 -11 -41 l 2,15,16
 28 -41 28 -41 41.5 -34 c 128,-1,17
 55 -27 55 -27 55 -2 c 2,18,-1
 55 496 l 1,19,-1
 207 496 l 1,20,-1
 207 -24 l 2,21,22
 207 -80 207 -80 182 -110 c 128,-1,23
 157 -140 157 -140 114.5 -150.5 c 128,-1,24
 72 -161 72 -161 17 -161 c 2,12,-1
EndSplineSet
Validated: 1
EndChar

StartChar: k
Encoding: 107 107 51
Width: 567
GlyphClass: 2
Flags: W
HStem: 0 21G<50 202 368.667 563> 476 20G<350.34 548> 648 20G<50 202>
VStem: 50 152<0 125 308 668>
AnchorPoint: "Anchor-1" 284 0 basechar 0
AnchorPoint: "Anchor-0" 284 796 basechar 0
LayerCount: 2
Fore
SplineSet
50 0 m 1,0,-1
 50 668 l 1,1,-1
 202 668 l 1,2,-1
 202 308 l 1,3,-1
 368 496 l 1,4,-1
 548 496 l 1,5,-1
 354 289 l 1,6,-1
 563 0 l 1,7,-1
 383 0 l 1,8,-1
 254 180 l 1,9,-1
 202 125 l 1,10,-1
 202 0 l 1,11,-1
 50 0 l 1,0,-1
EndSplineSet
Validated: 1
EndChar

StartChar: l
Encoding: 108 108 52
Width: 314
GlyphClass: 2
Flags: W
HStem: 0 124<216.443 311> 648 20G<50 202>
VStem: 50 152<134.834 668>
AnchorPoint: "Anchor-1" 167 0 basechar 0
AnchorPoint: "Anchor-0" 129 680 basechar 0
LayerCount: 2
Fore
SplineSet
214 0 m 2,0,1
 153 0 153 0 117 10.5 c 128,-1,2
 81 21 81 21 65.5 51.5 c 128,-1,3
 50 82 50 82 50 140 c 2,4,-1
 50 668 l 1,5,-1
 202 668 l 1,6,-1
 202 180 l 2,7,8
 202 145 202 145 216 134.5 c 128,-1,9
 230 124 230 124 268 124 c 2,10,-1
 311 124 l 1,11,-1
 311 0 l 1,12,-1
 214 0 l 2,0,1
EndSplineSet
Validated: 1
EndChar

StartChar: m
Encoding: 109 109 53
Width: 886
GlyphClass: 2
Flags: W
HStem: 0 21G<50 202 366 519 684 836> 392 118<265.284 381.5 570.779 716.5> 476 20G<50 188.758>
VStem: 50 152<0 357.993> 366 153<0 360.437> 684 152<0 371.07>
AnchorPoint: "Anchor-1" 443 0 basechar 0
AnchorPoint: "Anchor-0" 443 496 basechar 0
LayerCount: 2
Fore
SplineSet
50 0 m 1,0,-1
 50 496 l 1,1,-1
 183 496 l 1,2,-1
 202 430 l 1,3,4
 219 458 219 458 258 484 c 128,-1,5
 297 510 297 510 352 510 c 0,6,7
 411 510 411 510 446.5 489 c 128,-1,8
 482 468 482 468 499 427 c 1,9,10
 528 468 528 468 572.5 489 c 128,-1,11
 617 510 617 510 669 510 c 0,12,13
 764 510 764 510 800 456.5 c 128,-1,14
 836 403 836 403 836 302 c 2,15,-1
 836 0 l 1,16,-1
 684 0 l 1,17,-1
 684 264 l 2,18,19
 684 299 684 299 680 328 c 128,-1,20
 676 357 676 357 660 374.5 c 128,-1,21
 644 392 644 392 607 392 c 0,22,23
 561 392 561 392 540 359.5 c 128,-1,24
 519 327 519 327 519 262 c 2,25,-1
 519 0 l 1,26,-1
 366 0 l 1,27,-1
 366 264 l 2,28,29
 366 299 366 299 362.5 328 c 128,-1,30
 359 357 359 357 343.5 374.5 c 128,-1,31
 328 392 328 392 292 392 c 0,32,33
 245 392 245 392 223.5 358 c 128,-1,34
 202 324 202 324 202 259 c 2,35,-1
 202 0 l 1,36,-1
 50 0 l 1,0,-1
EndSplineSet
Validated: 1
EndChar

StartChar: n
Encoding: 110 110 54
Width: 572
GlyphClass: 2
Flags: W
HStem: 0 21G<50 202 370 522> 392 118<265.68 403> 476 20G<50 188.758>
VStem: 50 152<0 357.493> 370 152<0 371.07>
AnchorPoint: "Anchor-1" 286 0 basechar 0
AnchorPoint: "Anchor-0" 305 496 basechar 0
LayerCount: 2
Fore
SplineSet
50 0 m 1,0,-1
 50 496 l 1,1,-1
 183 496 l 1,2,-1
 202 430 l 1,3,4
 219 458 219 458 258.5 484 c 128,-1,5
 298 510 298 510 355 510 c 0,6,7
 451 510 451 510 486.5 456.5 c 128,-1,8
 522 403 522 403 522 302 c 2,9,-1
 522 0 l 1,10,-1
 370 0 l 1,11,-1
 370 264 l 2,12,13
 370 299 370 299 366 328 c 128,-1,14
 362 357 362 357 346.5 374.5 c 128,-1,15
 331 392 331 392 294 392 c 0,16,17
 246 392 246 392 224 357.5 c 128,-1,18
 202 323 202 323 202 255 c 2,19,-1
 202 0 l 1,20,-1
 50 0 l 1,0,-1
EndSplineSet
Validated: 1
EndChar

StartChar: o
Encoding: 111 111 55
Width: 573
GlyphClass: 2
Flags: W
HStem: -12 118<222.21 351.258> 392 118<221.997 351.15>
VStem: 24 155<151.169 347.944> 394 155<150.538 347.944>
AnchorPoint: "Anchor-2" 516 10 basechar 0
AnchorPoint: "Anchor-1" 287 0 basechar 0
AnchorPoint: "Anchor-0" 287 496 basechar 0
LayerCount: 2
Fore
SplineSet
287 -12 m 0,0,1
 218 -12 218 -12 158 16 c 128,-1,2
 98 44 98 44 61 102.5 c 128,-1,3
 24 161 24 161 24 250 c 0,4,5
 24 340 24 340 61 397.5 c 128,-1,6
 98 455 98 455 158 482.5 c 128,-1,7
 218 510 218 510 287 510 c 0,8,9
 355 510 355 510 415 482.5 c 128,-1,10
 475 455 475 455 512 397.5 c 128,-1,11
 549 340 549 340 549 250 c 0,12,13
 549 161 549 161 512 102.5 c 128,-1,14
 475 44 475 44 415 16 c 128,-1,15
 355 -12 355 -12 287 -12 c 0,0,1
287 106 m 256,16,17
 333 106 333 106 363.5 139 c 128,-1,18
 394 172 394 172 394 250 c 0,19,20
 394 329 394 329 362.5 360.5 c 128,-1,21
 331 392 331 392 287 392 c 0,22,23
 242 392 242 392 210.5 360.5 c 128,-1,24
 179 329 179 329 179 250 c 0,25,26
 179 172 179 172 210 139 c 128,-1,27
 241 106 241 106 287 106 c 256,16,17
EndSplineSet
Validated: 1
Substitution2: "Single Substitution lookup 12 subtable" ordmasculine
Substitution2: "'aalt' Access All Alternates lookup 0 subtable" ordmasculine
EndChar

StartChar: p
Encoding: 112 112 56
Width: 596
GlyphClass: 1
Flags: W
HStem: -161 21G<50 202> -12 118<268.081 365.802> 392 118<266.793 364.702> 476 20G<50 187.882>
VStem: 50 152<-161 71> 50 145<154.896 346.418> 414 158<157.166 338.529>
LayerCount: 2
Fore
SplineSet
50 -161 m 1,0,-1
 50 496 l 1,1,-1
 182 496 l 1,2,-1
 202 428 l 1,3,4
 226 469 226 469 269.5 489.5 c 128,-1,5
 313 510 313 510 353 510 c 0,6,7
 417 510 417 510 466.5 478 c 128,-1,8
 516 446 516 446 544 387.5 c 128,-1,9
 572 329 572 329 572 248 c 256,10,11
 572 167 572 167 544 108.5 c 128,-1,12
 516 50 516 50 466.5 19 c 128,-1,13
 417 -12 417 -12 353 -12 c 0,14,15
 313 -12 313 -12 269.5 9 c 128,-1,16
 226 30 226 30 202 71 c 1,17,-1
 202 -161 l 1,18,-1
 50 -161 l 1,0,-1
305 106 m 0,19,20
 349 106 349 106 381.5 142 c 128,-1,21
 414 178 414 178 414 248 c 0,22,23
 414 316 414 316 381.5 354 c 128,-1,24
 349 392 349 392 305 392 c 0,25,26
 260 392 260 392 227.5 360 c 128,-1,27
 195 328 195 328 195 251 c 0,28,29
 195 175 195 175 227.5 140.5 c 128,-1,30
 260 106 260 106 305 106 c 0,19,20
EndSplineSet
Validated: 1
EndChar

StartChar: q
Encoding: 113 113 57
Width: 601
GlyphClass: 1
Flags: W
HStem: -172 138<554.913 673.109> -12 118<230.222 328.319> 392 118<231.329 329.591> 476 20G<408.118 546>
VStem: 24 158<157.166 338.529> 394 152<-25.7031 70> 401 145<154.896 346.418>
LayerCount: 2
Fore
SplineSet
563 -172 m 0,0,1
 486 -172 486 -172 440 -134 c 128,-1,2
 394 -96 394 -96 394 -10 c 2,3,-1
 394 70 l 1,4,5
 370 30 370 30 327 9 c 128,-1,6
 284 -12 284 -12 243 -12 c 0,7,8
 179 -12 179 -12 129.5 19 c 128,-1,9
 80 50 80 50 52 108.5 c 128,-1,10
 24 167 24 167 24 248 c 256,11,12
 24 329 24 329 52 387.5 c 128,-1,13
 80 446 80 446 129.5 478 c 128,-1,14
 179 510 179 510 243 510 c 0,15,16
 284 510 284 510 327 489.5 c 128,-1,17
 370 469 370 469 394 428 c 1,18,-1
 414 496 l 1,19,-1
 546 496 l 1,20,-1
 546 38 l 2,21,22
 546 7 546 7 554.5 -13.5 c 128,-1,23
 563 -34 563 -34 604 -34 c 0,24,25
 633 -34 633 -34 674 -24 c 1,26,-1
 674 -155 l 1,27,28
 658 -160 658 -160 628 -166 c 128,-1,29
 598 -172 598 -172 563 -172 c 0,0,1
292 106 m 0,30,31
 336 106 336 106 368.5 140.5 c 128,-1,32
 401 175 401 175 401 251 c 0,33,34
 401 328 401 328 368.5 360 c 128,-1,35
 336 392 336 392 292 392 c 0,36,37
 247 392 247 392 214.5 354 c 128,-1,38
 182 316 182 316 182 248 c 0,39,40
 182 178 182 178 214.5 142 c 128,-1,41
 247 106 247 106 292 106 c 0,30,31
EndSplineSet
Validated: 1
EndChar

StartChar: r
Encoding: 114 114 58
Width: 372
GlyphClass: 2
Flags: W
HStem: 0 21G<50 202> 476 20G<50 175.934>
VStem: 50 152<0 327.035>
AnchorPoint: "Anchor-1" 128 0 basechar 0
AnchorPoint: "Anchor-0" 221 496 basechar 0
LayerCount: 2
Fore
SplineSet
50 0 m 1,0,-1
 50 496 l 1,1,-1
 170 496 l 1,2,-1
 197 405 l 1,3,4
 220 465 220 465 260 489 c 128,-1,5
 300 513 300 513 357 510 c 1,6,-1
 357 358 l 1,7,8
 345 360 345 360 336 360.5 c 128,-1,9
 327 361 327 361 316 361 c 0,10,11
 261 361 261 361 231.5 335 c 128,-1,12
 202 309 202 309 202 250 c 2,13,-1
 202 0 l 1,14,-1
 50 0 l 1,0,-1
EndSplineSet
Validated: 33
EndChar

StartChar: s
Encoding: 115 115 59
Width: 534
GlyphClass: 2
Flags: W
HStem: -12 111<182.142 349.241> 399 111<184.3 339.623>
VStem: 33 145<332.714 389.612> 361 146<114.221 174.02>
AnchorPoint: "Anchor-1" 267 0 basechar 0
AnchorPoint: "Anchor-0" 268 496 basechar 0
LayerCount: 2
Fore
SplineSet
264 -12 m 0,0,1
 177 -12 177 -12 113.5 20 c 128,-1,2
 50 52 50 52 21 114 c 1,3,-1
 150 161 l 1,4,5
 161 130 161 130 192.5 114.5 c 128,-1,6
 224 99 224 99 267 99 c 0,7,8
 304 99 304 99 332.5 110.5 c 128,-1,9
 361 122 361 122 361 145 c 0,10,11
 361 161 361 161 344 172 c 128,-1,12
 327 183 327 183 284 190 c 2,13,-1
 195 205 l 2,14,15
 123 217 123 217 78 254 c 128,-1,16
 33 291 33 291 33 353 c 0,17,18
 33 405 33 405 64.5 440 c 128,-1,19
 96 475 96 475 148 492.5 c 128,-1,20
 200 510 200 510 261 510 c 0,21,22
 332 510 332 510 392.5 484.5 c 128,-1,23
 453 459 453 459 481 400 c 1,24,-1
 353 353 l 1,25,26
 346 380 346 380 320 389.5 c 128,-1,27
 294 399 294 399 260 399 c 0,28,29
 178 399 178 399 178 359 c 0,30,31
 178 344 178 344 192 334.5 c 128,-1,32
 206 325 206 325 239 319 c 2,33,-1
 331 302 l 2,34,35
 421 286 421 286 464 255 c 128,-1,36
 507 224 507 224 507 162 c 0,37,38
 507 104 507 104 474 65 c 128,-1,39
 441 26 441 26 386 7 c 128,-1,40
 331 -12 331 -12 264 -12 c 0,0,1
EndSplineSet
Validated: 1
EndChar

StartChar: t
Encoding: 116 116 60
Width: 379
GlyphClass: 2
Flags: W
HStem: 0 124<260.928 355> 380 116<13 95 247 355>
VStem: 95 152<134.834 380 496 620>
AnchorPoint: "Anchor-1" 239 0 basechar 0
AnchorPoint: "Anchor-0" 170 620 basechar 0
LayerCount: 2
Fore
SplineSet
259 0 m 2,0,1
 198 0 198 0 162 10.5 c 128,-1,2
 126 21 126 21 110.5 51.5 c 128,-1,3
 95 82 95 82 95 140 c 2,4,-1
 95 380 l 1,5,-1
 13 380 l 1,6,-1
 13 496 l 1,7,-1
 95 496 l 1,8,-1
 95 620 l 1,9,-1
 247 620 l 1,10,-1
 247 496 l 1,11,-1
 355 496 l 1,12,-1
 355 380 l 1,13,-1
 247 380 l 1,14,-1
 247 180 l 2,15,16
 247 145 247 145 260.5 134.5 c 128,-1,17
 274 124 274 124 311 124 c 2,18,-1
 355 124 l 1,19,-1
 355 0 l 1,20,-1
 259 0 l 2,0,1
EndSplineSet
EndChar

StartChar: u
Encoding: 117 117 61
Width: 570
GlyphClass: 2
Flags: W
HStem: -12 118<189 310.392> 0 21G<381 519> 476 20G<50 202 366 519>
VStem: 50 152<127.216 496> 366 153<134.154 496>
AnchorPoint: "Anchor-2" 513 10 basechar 0
AnchorPoint: "Anchor-1" 285 0 basechar 0
AnchorPoint: "Anchor-0" 285 496 basechar 0
LayerCount: 2
Fore
SplineSet
222 -12 m 0,0,1
 156 -12 156 -12 118.5 12.5 c 128,-1,2
 81 37 81 37 65.5 84 c 128,-1,3
 50 131 50 131 50 198 c 2,4,-1
 50 496 l 1,5,-1
 202 496 l 1,6,-1
 202 219 l 2,7,8
 202 151 202 151 222.5 128.5 c 128,-1,9
 243 106 243 106 280 106 c 0,10,11
 325 106 325 106 345.5 136 c 128,-1,12
 366 166 366 166 366 235 c 2,13,-1
 366 496 l 1,14,-1
 519 496 l 1,15,-1
 519 0 l 1,16,-1
 387 0 l 1,17,-1
 366 70 l 1,18,19
 344 33 344 33 311.5 10.5 c 128,-1,20
 279 -12 279 -12 222 -12 c 0,0,1
EndSplineSet
Validated: 1
EndChar

StartChar: v
Encoding: 118 118 62
Width: 526
GlyphClass: 1
Flags: W
HStem: 0 21G<169.863 355.177> 476 20G<0 163.272 362.728 526>
LayerCount: 2
Fore
SplineSet
177 0 m 1,0,-1
 0 496 l 1,1,-1
 157 496 l 1,2,-1
 263 158 l 1,3,-1
 369 496 l 1,4,-1
 526 496 l 1,5,-1
 348 0 l 1,6,-1
 177 0 l 1,0,-1
EndSplineSet
Validated: 1
EndChar

StartChar: w
Encoding: 119 119 63
Width: 723
GlyphClass: 1
Flags: W
HStem: 0 21G<119 293.989 428.955 604> 476 20G<0 154.464 285.19 436.81 567.536 723>
LayerCount: 2
Fore
SplineSet
124 0 m 1,0,-1
 0 496 l 1,1,-1
 150 496 l 1,2,-1
 225 160 l 1,3,-1
 289 496 l 1,4,-1
 433 496 l 1,5,-1
 497 160 l 1,6,-1
 572 496 l 1,7,-1
 723 496 l 1,8,-1
 599 0 l 1,9,-1
 433 0 l 1,10,-1
 361 356 l 1,11,-1
 290 0 l 1,12,-1
 124 0 l 1,0,-1
EndSplineSet
Validated: 1
EndChar

StartChar: x
Encoding: 120 120 64
Width: 533
GlyphClass: 1
Flags: W
HStem: 0 21G<0 180.126 353.014 533> 476 20G<15 195.215 337.95 518>
LayerCount: 2
Fore
SplineSet
0 0 m 1,0,-1
 184 259 l 1,1,-1
 15 496 l 1,2,-1
 181 496 l 1,3,-1
 267 375 l 1,4,-1
 352 496 l 1,5,-1
 518 496 l 1,6,-1
 349 259 l 1,7,-1
 533 0 l 1,8,-1
 367 0 l 1,9,-1
 267 143 l 1,10,-1
 166 0 l 1,11,-1
 0 0 l 1,0,-1
EndSplineSet
Validated: 1
EndChar

StartChar: y
Encoding: 121 121 65
Width: 518
GlyphClass: 2
Flags: W
HStem: -161 110<65 175.442> 476 20G<0 169.258 348.871 518>
AnchorPoint: "Anchor-1" 259 0 basechar 0
AnchorPoint: "Anchor-0" 260 496 basechar 0
LayerCount: 2
Fore
SplineSet
65 -161 m 1,0,-1
 65 -51 l 1,1,-1
 95 -51 l 2,2,3
 129 -51 129 -51 146 -48 c 128,-1,4
 163 -45 163 -45 172.5 -33.5 c 128,-1,5
 182 -22 182 -22 190 3 c 1,6,-1
 0 496 l 1,7,-1
 163 496 l 1,8,-1
 260 186 l 1,9,-1
 355 496 l 1,10,-1
 518 496 l 1,11,-1
 328 0 l 2,12,13
 304 -63 304 -63 279.5 -98 c 128,-1,14
 255 -133 255 -133 217 -147 c 128,-1,15
 179 -161 179 -161 114 -161 c 2,16,-1
 65 -161 l 1,0,-1
EndSplineSet
Validated: 1
EndChar

StartChar: z
Encoding: 122 122 66
Width: 516
GlyphClass: 2
Flags: W
HStem: 0 121<226 496> 375 121<44 287>
AnchorPoint: "Anchor-1" 258 0 basechar 0
AnchorPoint: "Anchor-0" 268 496 basechar 0
LayerCount: 2
Fore
SplineSet
30 0 m 1,0,-1
 30 121 l 1,1,-1
 287 375 l 1,2,-1
 44 375 l 1,3,-1
 44 496 l 1,4,-1
 482 496 l 1,5,-1
 482 375 l 1,6,-1
 226 121 l 1,7,-1
 496 121 l 1,8,-1
 496 0 l 1,9,-1
 30 0 l 1,0,-1
EndSplineSet
Validated: 1
EndChar

StartChar: circumflex
Encoding: 258 710 67
Width: 467
GlyphClass: 1
Flags: W
HStem: 574 152
LayerCount: 2
Fore
SplineSet
37 574 m 1,0,-1
 184 706 l 2,1,2
 206 726 206 726 234 726 c 0,3,4
 248 726 248 726 261 720.5 c 128,-1,5
 274 715 274 715 284 706 c 2,6,-1
 430 574 l 1,7,-1
 302 574 l 1,8,-1
 234 635 l 1,9,-1
 166 574 l 1,10,-1
 37 574 l 1,0,-1
EndSplineSet
Validated: 1
EndChar

StartChar: caron
Encoding: 259 711 68
Width: 467
GlyphClass: 1
Flags: W
HStem: 568 152
LayerCount: 2
Fore
SplineSet
234 568 m 0,0,1
 205 568 205 568 184 587 c 2,2,-1
 37 720 l 1,3,-1
 166 720 l 1,4,-1
 234 659 l 1,5,-1
 302 720 l 1,6,-1
 430 720 l 1,7,-1
 284 587 l 2,8,9
 262 568 262 568 234 568 c 0,0,1
EndSplineSet
Validated: 1
EndChar

StartChar: breve
Encoding: 260 728 69
Width: 373
GlyphClass: 1
Flags: W
HStem: 569 77<154.046 247.551>
VStem: 57 287
LayerCount: 2
Fore
SplineSet
200 569 m 0,0,1
 147 569 147 569 106.5 603.5 c 128,-1,2
 66 638 66 638 57 689 c 1,3,-1
 142 689 l 1,4,5
 146 673 146 673 162 659.5 c 128,-1,6
 178 646 178 646 200 646 c 0,7,8
 223 646 223 646 239 659.5 c 128,-1,9
 255 673 255 673 259 689 c 1,10,-1
 344 689 l 1,11,12
 335 638 335 638 294.5 603.5 c 128,-1,13
 254 569 254 569 200 569 c 0,0,1
EndSplineSet
Validated: 1
EndChar

StartChar: dotaccent
Encoding: 261 729 70
Width: 201
GlyphClass: 1
Flags: W
HStem: 578 141<51.6582 149.857>
VStem: 30 141<599.143 697.342>
LayerCount: 2
Fore
SplineSet
101 578 m 256,0,1
 72 578 72 578 51 598.5 c 128,-1,2
 30 619 30 619 30 648 c 256,3,4
 30 677 30 677 51 698 c 128,-1,5
 72 719 72 719 101 719 c 256,6,7
 130 719 130 719 150.5 698 c 128,-1,8
 171 677 171 677 171 648 c 256,9,10
 171 619 171 619 150.5 598.5 c 128,-1,11
 130 578 130 578 101 578 c 256,0,1
EndSplineSet
Validated: 1
EndChar

StartChar: ring
Encoding: 262 730 71
Width: 295
GlyphClass: 1
Flags: W
HStem: 535 86<107.974 183.243> 715 85<110.91 183.243>
VStem: 15 85<628.895 704.164> 194 86<631.826 704.164>
LayerCount: 2
Fore
SplineSet
147 535 m 0,0,1
 111 535 111 535 81 553 c 128,-1,2
 51 571 51 571 33 601.5 c 128,-1,3
 15 632 15 632 15 668 c 0,4,5
 15 705 15 705 33 734.5 c 128,-1,6
 51 764 51 764 81 782 c 128,-1,7
 111 800 111 800 147 800 c 0,8,9
 184 800 184 800 214 782 c 128,-1,10
 244 764 244 764 262 734.5 c 128,-1,11
 280 705 280 705 280 668 c 0,12,13
 280 632 280 632 262 601.5 c 128,-1,14
 244 571 244 571 214 553 c 128,-1,15
 184 535 184 535 147 535 c 0,0,1
147 621 m 0,16,17
 167 621 167 621 180.5 635 c 128,-1,18
 194 649 194 649 194 668 c 0,19,20
 194 688 194 688 180.5 701.5 c 128,-1,21
 167 715 167 715 147 715 c 0,22,23
 128 715 128 715 114 701.5 c 128,-1,24
 100 688 100 688 100 668 c 0,25,26
 100 649 100 649 114 635 c 128,-1,27
 128 621 128 621 147 621 c 0,16,17
EndSplineSet
Validated: 1
EndChar

StartChar: ogonek
Encoding: 263 731 72
Width: 295
GlyphClass: 1
Flags: W
HStem: -174 76<171.368 257.732>
VStem: 37 126<-92.8991 -38.9277>
LayerCount: 2
Fore
SplineSet
179 -174 m 0,0,1
 125 -174 125 -174 94 -159.5 c 128,-1,2
 63 -145 63 -145 50 -124.5 c 128,-1,3
 37 -104 37 -104 37 -85 c 0,4,5
 37 -50 37 -50 62.5 -29.5 c 128,-1,6
 88 -9 88 -9 117 0 c 1,7,-1
 258 0 l 1,8,9
 224 -17 224 -17 193.5 -33.5 c 128,-1,10
 163 -50 163 -50 163 -68 c 256,11,12
 163 -86 163 -86 178 -92 c 128,-1,13
 193 -98 193 -98 209 -98 c 0,14,15
 224 -98 224 -98 238 -94 c 128,-1,16
 252 -90 252 -90 258 -89 c 1,17,-1
 258 -164 l 1,18,19
 247 -168 247 -168 222.5 -171 c 128,-1,20
 198 -174 198 -174 179 -174 c 0,0,1
EndSplineSet
Validated: 1
EndChar

StartChar: quoteleft
Encoding: 264 8216 73
Width: 277
GlyphClass: 1
Flags: W
HStem: 339 329<124 160.59>
VStem: 41 195<376.374 496.5>
LayerCount: 2
Fore
SplineSet
139 339 m 256,0,1
 99 339 99 339 70 368 c 128,-1,2
 41 397 41 397 41 437 c 0,3,4
 41 446 41 446 43 455 c 128,-1,5
 45 464 45 464 48 472 c 2,6,-1
 124 668 l 1,7,-1
 214 668 l 1,8,-1
 161 531 l 1,9,10
 193 524 193 524 214.5 498 c 128,-1,11
 236 472 236 472 236 437 c 0,12,13
 236 397 236 397 207.5 368 c 128,-1,14
 179 339 179 339 139 339 c 256,0,1
EndSplineSet
Validated: 1
EndChar

StartChar: quoteright
Encoding: 265 8217 74
Width: 277
GlyphClass: 1
Flags: W
HStem: 351 329<116.219 153>
VStem: 41 195<522.5 643.237>
LayerCount: 2
Fore
SplineSet
63 351 m 1,0,-1
 116 487 l 1,1,2
 84 495 84 495 62.5 521.5 c 128,-1,3
 41 548 41 548 41 582 c 0,4,5
 41 623 41 623 70 651.5 c 128,-1,6
 99 680 99 680 139 680 c 256,7,8
 179 680 179 680 207.5 651.5 c 128,-1,9
 236 623 236 623 236 582 c 0,10,11
 236 564 236 564 230 547 c 2,12,-1
 153 351 l 1,13,-1
 63 351 l 1,0,-1
EndSplineSet
Validated: 1
EndChar

StartChar: quotesinglbase
Encoding: 266 8218 75
Width: 277
GlyphClass: 1
Flags: W
HStem: -146 330<116.219 153>
VStem: 41 195<26.375 147.237>
LayerCount: 2
Fore
SplineSet
63 -146 m 1,0,-1
 116 -9 l 1,1,2
 84 -1 84 -1 62.5 25.5 c 128,-1,3
 41 52 41 52 41 86 c 0,4,5
 41 127 41 127 70 155.5 c 128,-1,6
 99 184 99 184 139 184 c 256,7,8
 179 184 179 184 207.5 155.5 c 128,-1,9
 236 127 236 127 236 86 c 0,10,11
 236 68 236 68 230 51 c 2,12,-1
 153 -146 l 1,13,-1
 63 -146 l 1,0,-1
EndSplineSet
Validated: 1
EndChar

StartChar: quotedblleft
Encoding: 267 8220 76
Width: 498
GlyphClass: 1
Flags: W
HStem: 339 329<124 160.59 345 380.864>
VStem: 41 195<376.374 497.625> 263 194<375.422 496.5>
LayerCount: 2
Fore
SplineSet
139 339 m 256,0,1
 99 339 99 339 70 368 c 128,-1,2
 41 397 41 397 41 437 c 0,3,4
 41 446 41 446 44 457 c 128,-1,5
 47 468 47 468 51 480 c 2,6,-1
 124 668 l 1,7,-1
 214 668 l 1,8,-1
 161 531 l 1,9,10
 193 524 193 524 214.5 498 c 128,-1,11
 236 472 236 472 236 437 c 0,12,13
 236 397 236 397 207.5 368 c 128,-1,14
 179 339 179 339 139 339 c 256,0,1
360 339 m 0,15,16
 320 339 320 339 291.5 368 c 128,-1,17
 263 397 263 397 263 437 c 0,18,19
 263 446 263 446 265 455 c 128,-1,20
 267 464 267 464 270 472 c 2,21,-1
 345 668 l 1,22,-1
 436 668 l 1,23,-1
 382 531 l 1,24,25
 414 524 414 524 435.5 498 c 128,-1,26
 457 472 457 472 457 437 c 0,27,28
 457 397 457 397 429 368 c 128,-1,29
 401 339 401 339 360 339 c 0,15,16
EndSplineSet
Validated: 1
EndChar

StartChar: quotedblright
Encoding: 268 8221 77
Width: 498
GlyphClass: 1
Flags: W
HStem: 351 329<116.219 153 337.219 374>
VStem: 41 195<522.5 643.237> 262 195<522.5 643.237>
LayerCount: 2
Fore
SplineSet
63 351 m 1,0,-1
 116 487 l 1,1,2
 84 495 84 495 62.5 521.5 c 128,-1,3
 41 548 41 548 41 582 c 0,4,5
 41 623 41 623 70 651.5 c 128,-1,6
 99 680 99 680 139 680 c 256,7,8
 179 680 179 680 207.5 651.5 c 128,-1,9
 236 623 236 623 236 582 c 0,10,11
 236 564 236 564 230 547 c 2,12,-1
 153 351 l 1,13,-1
 63 351 l 1,0,-1
284 351 m 1,14,-1
 337 487 l 1,15,16
 305 495 305 495 283.5 521.5 c 128,-1,17
 262 548 262 548 262 582 c 0,18,19
 262 623 262 623 291 651.5 c 128,-1,20
 320 680 320 680 360 680 c 256,21,22
 400 680 400 680 428.5 651.5 c 128,-1,23
 457 623 457 623 457 582 c 0,24,25
 457 564 457 564 451 547 c 2,26,-1
 374 351 l 1,27,-1
 284 351 l 1,14,-1
EndSplineSet
Validated: 1
EndChar

StartChar: quotedblbase
Encoding: 269 8222 78
Width: 498
GlyphClass: 1
Flags: W
HStem: -146 330<116.219 153 338.41 374>
VStem: 41 195<26.375 147.237> 263 194<26.375 148.18>
LayerCount: 2
Fore
SplineSet
63 -146 m 1,0,-1
 116 -9 l 1,1,2
 84 -1 84 -1 62.5 25.5 c 128,-1,3
 41 52 41 52 41 86 c 0,4,5
 41 127 41 127 70 155.5 c 128,-1,6
 99 184 99 184 139 184 c 256,7,8
 179 184 179 184 207.5 155.5 c 128,-1,9
 236 127 236 127 236 86 c 0,10,11
 236 68 236 68 230 51 c 2,12,-1
 153 -146 l 1,13,-1
 63 -146 l 1,0,-1
285 -146 m 1,14,-1
 338 -9 l 1,15,16
 306 -1 306 -1 284.5 25.5 c 128,-1,17
 263 52 263 52 263 86 c 0,18,19
 263 127 263 127 291.5 155.5 c 128,-1,20
 320 184 320 184 360 184 c 0,21,22
 401 184 401 184 429 155.5 c 128,-1,23
 457 127 457 127 457 86 c 0,24,25
 457 68 457 68 451 51 c 2,26,-1
 374 -146 l 1,27,-1
 285 -146 l 1,14,-1
EndSplineSet
Validated: 1
EndChar

StartChar: dagger
Encoding: 270 8224 79
Width: 594
GlyphClass: 1
Flags: W
HStem: 0 21G<225 369> 380 116<41 225 369 553> 648 20G<225 369>
VStem: 225 144<0 380 496 668>
LayerCount: 2
Fore
SplineSet
225 0 m 1,0,-1
 225 380 l 1,1,-1
 41 380 l 1,2,-1
 41 496 l 1,3,-1
 225 496 l 1,4,-1
 225 668 l 1,5,-1
 369 668 l 1,6,-1
 369 496 l 1,7,-1
 553 496 l 1,8,-1
 553 380 l 1,9,-1
 369 380 l 1,10,-1
 369 0 l 1,11,-1
 225 0 l 1,0,-1
EndSplineSet
Validated: 1
EndChar

StartChar: daggerdbl
Encoding: 271 8225 80
Width: 594
GlyphClass: 1
Flags: W
HStem: 0 21G<225 369> 173 115<41 225 369 553> 380 116<41 225 369 553> 648 20G<225 369>
VStem: 225 144<0 173 288 380 496 668>
LayerCount: 2
Fore
SplineSet
225 0 m 1,0,-1
 225 173 l 1,1,-1
 41 173 l 1,2,-1
 41 288 l 1,3,-1
 225 288 l 1,4,-1
 225 380 l 1,5,-1
 41 380 l 1,6,-1
 41 496 l 1,7,-1
 225 496 l 1,8,-1
 225 668 l 1,9,-1
 369 668 l 1,10,-1
 369 496 l 1,11,-1
 553 496 l 1,12,-1
 553 380 l 1,13,-1
 369 380 l 1,14,-1
 369 288 l 1,15,-1
 553 288 l 1,16,-1
 553 173 l 1,17,-1
 369 173 l 1,18,-1
 369 0 l 1,19,-1
 225 0 l 1,0,-1
EndSplineSet
Validated: 1
EndChar

StartChar: bullet
Encoding: 272 8226 81
Width: 438
GlyphClass: 1
Flags: W
HStem: 88 332<136.674 301.326>
VStem: 53 332<172.189 336.326>
LayerCount: 2
Fore
SplineSet
219 88 m 256,0,1
 173 88 173 88 135.5 110.5 c 128,-1,2
 98 133 98 133 75.5 171 c 128,-1,3
 53 209 53 209 53 254 c 0,4,5
 53 300 53 300 75.5 337.5 c 128,-1,6
 98 375 98 375 135.5 397.5 c 128,-1,7
 173 420 173 420 219 420 c 256,8,9
 265 420 265 420 302.5 397.5 c 128,-1,10
 340 375 340 375 362.5 337.5 c 128,-1,11
 385 300 385 300 385 254 c 0,12,13
 385 209 385 209 362.5 171 c 128,-1,14
 340 133 340 133 302.5 110.5 c 128,-1,15
 265 88 265 88 219 88 c 256,0,1
EndSplineSet
Validated: 1
EndChar

StartChar: ellipsis
Encoding: 273 8230 82
Width: 803
GlyphClass: 1
Flags: W
HStem: -12 196<78.3738 199.257 341.112 462.237 604.374 725.868>
VStem: 41 195<25.3738 147.237> 305 194<24.4219 148.18> 567 195<25.3738 147.237>
LayerCount: 2
Fore
SplineSet
665 -12 m 0,0,1
 625 -12 625 -12 596 17 c 128,-1,2
 567 46 567 46 567 86 c 0,3,4
 567 127 567 127 596 155.5 c 128,-1,5
 625 184 625 184 665 184 c 0,6,7
 706 184 706 184 734 155.5 c 128,-1,8
 762 127 762 127 762 86 c 0,9,10
 762 46 762 46 734 17 c 128,-1,11
 706 -12 706 -12 665 -12 c 0,0,1
139 -12 m 256,12,13
 99 -12 99 -12 70 17 c 128,-1,14
 41 46 41 46 41 86 c 0,15,16
 41 127 41 127 70 155.5 c 128,-1,17
 99 184 99 184 139 184 c 256,18,19
 179 184 179 184 207.5 155.5 c 128,-1,20
 236 127 236 127 236 86 c 0,21,22
 236 46 236 46 207.5 17 c 128,-1,23
 179 -12 179 -12 139 -12 c 256,12,13
401 -12 m 0,24,25
 361 -12 361 -12 333 17 c 128,-1,26
 305 46 305 46 305 86 c 0,27,28
 305 127 305 127 333 155.5 c 128,-1,29
 361 184 361 184 401 184 c 0,30,31
 442 184 442 184 470.5 155.5 c 128,-1,32
 499 127 499 127 499 86 c 0,33,34
 499 46 499 46 470.5 17 c 128,-1,35
 442 -12 442 -12 401 -12 c 0,24,25
EndSplineSet
Validated: 1
EndChar

StartChar: perthousand
Encoding: 274 8240 83
Width: 1406
GlyphClass: 1
Flags: W
HStem: -12 119<702.341 809.975 1130.31 1238.74> 0 21G<192 332.012> 264 118<702.341 809.975 1130.31 1238.74> 286 118<167.576 275.694> 561 119<167.576 275.694> 648 20G<645.018 786>
VStem: 24 119<428.306 536.74> 300 118<428.306 536.74> 559 118<132.442 238.537> 835 118<132.442 238.537> 988 118<131.306 239.674> 1263 119<131.306 239.674>
LayerCount: 2
Fore
SplineSet
221 286 m 256,0,1
 167 286 167 286 122 312.5 c 128,-1,2
 77 339 77 339 50.5 384 c 128,-1,3
 24 429 24 429 24 483 c 0,4,5
 24 538 24 538 50.5 582.5 c 128,-1,6
 77 627 77 627 122 653.5 c 128,-1,7
 167 680 167 680 221 680 c 256,8,9
 275 680 275 680 320 653.5 c 128,-1,10
 365 627 365 627 391.5 582.5 c 128,-1,11
 418 538 418 538 418 483 c 0,12,13
 418 429 418 429 391.5 384 c 128,-1,14
 365 339 365 339 320 312.5 c 128,-1,15
 275 286 275 286 221 286 c 256,0,1
192 0 m 1,16,-1
 659 668 l 1,17,-1
 786 668 l 1,18,-1
 318 0 l 1,19,-1
 192 0 l 1,16,-1
221 404 m 0,20,21
 254 404 254 404 277 427 c 128,-1,22
 300 450 300 450 300 483 c 0,23,24
 300 515 300 515 277 538 c 128,-1,25
 254 561 254 561 221 561 c 0,26,27
 189 561 189 561 166 538 c 128,-1,28
 143 515 143 515 143 483 c 0,29,30
 143 450 143 450 166 427 c 128,-1,31
 189 404 189 404 221 404 c 0,20,21
756 -12 m 0,32,33
 702 -12 702 -12 657 15 c 128,-1,34
 612 42 612 42 585.5 87 c 128,-1,35
 559 132 559 132 559 186 c 0,36,37
 559 241 559 241 585.5 285 c 128,-1,38
 612 329 612 329 657 355.5 c 128,-1,39
 702 382 702 382 756 382 c 0,40,41
 811 382 811 382 855.5 355.5 c 128,-1,42
 900 329 900 329 926.5 285 c 128,-1,43
 953 241 953 241 953 186 c 0,44,45
 953 132 953 132 926.5 87 c 128,-1,46
 900 42 900 42 855.5 15 c 128,-1,47
 811 -12 811 -12 756 -12 c 0,32,33
1185 -12 m 0,48,49
 1131 -12 1131 -12 1086 15 c 128,-1,50
 1041 42 1041 42 1014.5 87 c 128,-1,51
 988 132 988 132 988 186 c 0,52,53
 988 241 988 241 1014.5 285 c 128,-1,54
 1041 329 1041 329 1086 355.5 c 128,-1,55
 1131 382 1131 382 1185 382 c 0,56,57
 1240 382 1240 382 1284.5 355.5 c 128,-1,58
 1329 329 1329 329 1355.5 285 c 128,-1,59
 1382 241 1382 241 1382 186 c 0,60,61
 1382 132 1382 132 1355.5 87 c 128,-1,62
 1329 42 1329 42 1284.5 15 c 128,-1,63
 1240 -12 1240 -12 1185 -12 c 0,48,49
756 107 m 256,64,65
 788 107 788 107 811.5 130 c 128,-1,66
 835 153 835 153 835 186 c 0,67,68
 835 218 835 218 811.5 241 c 128,-1,69
 788 264 788 264 756 264 c 256,70,71
 724 264 724 264 700.5 241 c 128,-1,72
 677 218 677 218 677 186 c 0,73,74
 677 153 677 153 700.5 130 c 128,-1,75
 724 107 724 107 756 107 c 256,64,65
1185 107 m 0,76,77
 1217 107 1217 107 1240 130 c 128,-1,78
 1263 153 1263 153 1263 186 c 0,79,80
 1263 218 1263 218 1240 241 c 128,-1,81
 1217 264 1217 264 1185 264 c 0,82,83
 1152 264 1152 264 1129 241 c 128,-1,84
 1106 218 1106 218 1106 186 c 0,85,86
 1106 153 1106 153 1129 130 c 128,-1,87
 1152 107 1152 107 1185 107 c 0,76,77
EndSplineSet
Validated: 1
EndChar

StartChar: guilsinglleft
Encoding: 275 8249 84
Width: 404
GlyphClass: 1
Flags: W
VStem: 41 321
LayerCount: 2
Fore
SplineSet
189 40 m 1,0,-1
 41 250 l 1,1,-1
 189 461 l 1,2,-1
 362 461 l 1,3,-1
 214 250 l 1,4,-1
 363 40 l 1,5,-1
 189 40 l 1,0,-1
EndSplineSet
Validated: 1
EndChar

StartChar: guilsinglright
Encoding: 276 8250 85
Width: 404
GlyphClass: 1
Flags: W
VStem: 41 322
LayerCount: 2
Fore
SplineSet
41 40 m 1,0,-1
 191 249 l 1,1,-1
 42 460 l 1,2,-1
 216 460 l 1,3,-1
 363 249 l 1,4,-1
 216 40 l 1,5,-1
 41 40 l 1,0,-1
EndSplineSet
Validated: 1
EndChar

StartChar: fraction
Encoding: 277 8260 86
Width: 624
GlyphClass: 1
Flags: W
HStem: 0 21G<15 155.982> 648 20G<468.988 609>
LayerCount: 2
Fore
SplineSet
15 0 m 1,0,-1
 483 668 l 1,1,-1
 609 668 l 1,2,-1
 142 0 l 1,3,-1
 15 0 l 1,0,-1
EndSplineSet
Validated: 1
EndChar

StartChar: ordfeminine
Encoding: 278 170 87
Width: 395
GlyphClass: 1
Flags: W
HStem: 395 72<159.19 229.058> 523 61<166.801 238> 623 68<134.222 232.85>
VStem: 53 104<471.948 516.16> 240 97<478.346 526 588 615.263>
LayerCount: 2
Fore
SplineSet
160 395 m 0,0,1
 108 395 108 395 80.5 424 c 128,-1,2
 53 453 53 453 53 491 c 0,3,4
 53 527 53 527 73 545 c 128,-1,5
 93 563 93 563 127 571 c 128,-1,6
 161 579 161 579 203 584 c 2,7,-1
 238 588 l 1,8,9
 238 608 238 608 229.5 615.5 c 128,-1,10
 221 623 221 623 198 623 c 0,11,12
 185 623 185 623 173.5 618 c 128,-1,13
 162 613 162 613 159 599 c 1,14,-1
 72 630 l 1,15,16
 87 661 87 661 122.5 676 c 128,-1,17
 158 691 158 691 210 691 c 0,18,19
 274 691 274 691 306 664.5 c 128,-1,20
 338 638 338 638 337 578 c 2,21,-1
 337 518 l 2,22,23
 337 492 337 492 337.5 463 c 128,-1,24
 338 434 338 434 342 403 c 1,25,-1
 258 403 l 1,26,-1
 249 435 l 1,27,28
 239 418 239 418 217.5 406.5 c 128,-1,29
 196 395 196 395 160 395 c 0,0,1
190 467 m 0,30,31
 211 467 211 467 225.5 478 c 128,-1,32
 240 489 240 489 240 509 c 2,33,-1
 240 526 l 1,34,-1
 203 523 l 2,35,36
 176 521 176 521 166.5 513.5 c 128,-1,37
 157 506 157 506 157 495 c 256,38,39
 157 484 157 484 165 475.5 c 128,-1,40
 173 467 173 467 190 467 c 0,30,31
EndSplineSet
Validated: 33
EndChar

StartChar: guillemotleft
Encoding: 279 171 88
Width: 669
GlyphClass: 1
Flags: W
LayerCount: 2
Fore
SplineSet
440 40 m 1,0,-1
 294 251 l 1,1,-1
 440 461 l 1,2,-1
 615 461 l 1,3,-1
 466 251 l 1,4,-1
 616 40 l 1,5,-1
 440 40 l 1,0,-1
201 40 m 1,6,-1
 53 251 l 1,7,-1
 201 461 l 1,8,-1
 374 461 l 1,9,-1
 226 251 l 1,10,-1
 375 40 l 1,11,-1
 201 40 l 1,6,-1
EndSplineSet
Validated: 1
EndChar

StartChar: logicalnot
Encoding: 280 172 89
Width: 618
GlyphClass: 1
Flags: W
HStem: 295 127<53 437>
VStem: 437 128<56 295>
LayerCount: 2
Fore
SplineSet
437 56 m 1,0,-1
 437 295 l 1,1,-1
 53 295 l 1,2,-1
 53 422 l 1,3,-1
 565 422 l 1,4,-1
 565 56 l 1,5,-1
 437 56 l 1,0,-1
EndSplineSet
Validated: 1
EndChar

StartChar: registered
Encoding: 174 174 90
Width: 798
GlyphClass: 1
Flags: W
HStem: -12 69<291.88 505.248> 300 75<338 370> 453 76<338 437.888> 610 69<291.88 505.248>
VStem: 53 70<226.904 441.374> 241 97<161 300 375 453> 458 101<382.542 445.274> 675 70<226.904 441.374>
LayerCount: 2
Fore
SplineSet
398 -12 m 0,0,1
 327 -12 327 -12 264.5 15 c 128,-1,2
 202 42 202 42 154.5 89.5 c 128,-1,3
 107 137 107 137 80 199.5 c 128,-1,4
 53 262 53 262 53 334 c 0,5,6
 53 405 53 405 80 467.5 c 128,-1,7
 107 530 107 530 154.5 577.5 c 128,-1,8
 202 625 202 625 264.5 652 c 128,-1,9
 327 679 327 679 398 679 c 0,10,11
 470 679 470 679 533 652 c 128,-1,12
 596 625 596 625 643.5 577.5 c 128,-1,13
 691 530 691 530 718 467.5 c 128,-1,14
 745 405 745 405 745 334 c 0,15,16
 745 262 745 262 718 199.5 c 128,-1,17
 691 137 691 137 643.5 89.5 c 128,-1,18
 596 42 596 42 533 15 c 128,-1,19
 470 -12 470 -12 398 -12 c 0,0,1
398 57 m 256,20,21
 455 57 455 57 505.5 78.5 c 128,-1,22
 556 100 556 100 594 138 c 128,-1,23
 632 176 632 176 653.5 226.5 c 128,-1,24
 675 277 675 277 675 334 c 256,25,26
 675 391 675 391 653.5 441 c 128,-1,27
 632 491 632 491 594 529 c 128,-1,28
 556 567 556 567 505.5 588.5 c 128,-1,29
 455 610 455 610 398 610 c 256,30,31
 341 610 341 610 291.5 588.5 c 128,-1,32
 242 567 242 567 204 529 c 128,-1,33
 166 491 166 491 144.5 441 c 128,-1,34
 123 391 123 391 123 334 c 256,35,36
 123 277 123 277 144.5 226.5 c 128,-1,37
 166 176 166 176 204 138 c 128,-1,38
 242 100 242 100 291.5 78.5 c 128,-1,39
 341 57 341 57 398 57 c 256,20,21
241 161 m 1,40,-1
 241 529 l 1,41,-1
 392 529 l 2,42,43
 440 529 440 529 477.5 519.5 c 128,-1,44
 515 510 515 510 537 485.5 c 128,-1,45
 559 461 559 461 559 415 c 0,46,47
 559 384 559 384 541.5 354 c 128,-1,48
 524 324 524 324 472 310 c 1,49,-1
 579 161 l 1,50,-1
 471 161 l 1,51,-1
 370 300 l 1,52,-1
 338 300 l 1,53,-1
 338 161 l 1,54,-1
 241 161 l 1,40,-1
338 375 m 1,55,-1
 390 375 l 2,56,57
 419 375 419 375 438.5 382.5 c 128,-1,58
 458 390 458 390 458 414 c 256,59,60
 458 438 458 438 438.5 445.5 c 128,-1,61
 419 453 419 453 390 453 c 2,62,-1
 338 453 l 1,63,-1
 338 375 l 1,55,-1
EndSplineSet
Validated: 1
EndChar

StartChar: macron
Encoding: 281 175 91
Width: 405
GlyphClass: 1
Flags: W
HStem: 570 98<53 352>
VStem: 53 299<570 668>
LayerCount: 2
Fore
SplineSet
53 570 m 1,0,-1
 53 668 l 1,1,-1
 352 668 l 1,2,-1
 352 570 l 1,3,-1
 53 570 l 1,0,-1
EndSplineSet
Validated: 1
EndChar

StartChar: degree
Encoding: 282 176 92
Width: 404
GlyphClass: 1
Flags: W
HStem: 354 90<151.074 253.607> 590 89<151.074 253.607>
VStem: 40 89<465.65 568.257> 275 89<465.65 568.257>
LayerCount: 2
Fore
SplineSet
202 354 m 0,0,1
 158 354 158 354 121 376 c 128,-1,2
 84 398 84 398 62 435 c 128,-1,3
 40 472 40 472 40 517 c 256,4,5
 40 562 40 562 62 598.5 c 128,-1,6
 84 635 84 635 121 657 c 128,-1,7
 158 679 158 679 202 679 c 0,8,9
 247 679 247 679 284 657 c 128,-1,10
 321 635 321 635 342.5 598.5 c 128,-1,11
 364 562 364 562 364 517 c 256,12,13
 364 472 364 472 342.5 435 c 128,-1,14
 321 398 321 398 284 376 c 128,-1,15
 247 354 247 354 202 354 c 0,0,1
202 444 m 0,16,17
 233 444 233 444 254 465.5 c 128,-1,18
 275 487 275 487 275 517 c 256,19,20
 275 547 275 547 254 568.5 c 128,-1,21
 233 590 233 590 202 590 c 0,22,23
 172 590 172 590 150.5 568.5 c 128,-1,24
 129 547 129 547 129 517 c 256,25,26
 129 487 129 487 150.5 465.5 c 128,-1,27
 172 444 172 444 202 444 c 0,16,17
EndSplineSet
Validated: 1
EndChar

StartChar: plusminus
Encoding: 283 177 93
Width: 618
GlyphClass: 1
Flags: W
HStem: 0 128<53 565> 283 108<53 245 373 565> 475 20G<245 373>
VStem: 245 128<180 283 391 495>
LayerCount: 2
Fore
SplineSet
245 180 m 1,0,-1
 245 283 l 1,1,-1
 53 283 l 1,2,-1
 53 391 l 1,3,-1
 245 391 l 1,4,-1
 245 495 l 1,5,-1
 373 495 l 1,6,-1
 373 391 l 1,7,-1
 565 391 l 1,8,-1
 565 283 l 1,9,-1
 373 283 l 1,10,-1
 373 180 l 1,11,-1
 245 180 l 1,0,-1
53 0 m 1,12,-1
 53 128 l 1,13,-1
 565 128 l 1,14,-1
 565 0 l 1,15,-1
 53 0 l 1,12,-1
EndSplineSet
Validated: 1
EndChar

StartChar: uni00B2
Encoding: 284 178 94
Width: 407
GlyphClass: 1
Flags: W
HStem: 403 87<195 353> 709 76<168.635 243.352>
VStem: 251 103<622.395 702.175>
LayerCount: 2
Fore
SplineSet
53 403 m 1,0,-1
 53 484 l 1,1,2
 129 536 129 536 172 569.5 c 128,-1,3
 215 603 215 603 233 627 c 128,-1,4
 251 651 251 651 251 673 c 0,5,6
 251 691 251 691 238.5 700 c 128,-1,7
 226 709 226 709 208 709 c 0,8,9
 186 709 186 709 172.5 697 c 128,-1,10
 159 685 159 685 155 666 c 1,11,-1
 64 699 l 1,12,13
 80 741 80 741 118.5 763 c 128,-1,14
 157 785 157 785 213 785 c 0,15,16
 273 785 273 785 313.5 759 c 128,-1,17
 354 733 354 733 354 677 c 0,18,19
 354 622 354 622 311 580.5 c 128,-1,20
 268 539 268 539 195 490 c 1,21,-1
 353 490 l 1,22,-1
 353 403 l 1,23,-1
 53 403 l 1,0,-1
EndSplineSet
Validated: 1
EndChar

StartChar: uni00B3
Encoding: 285 179 95
Width: 413
GlyphClass: 1
Flags: W
HStem: 395 77<153.667 246.603> 491 20G<88.8485 147.5> 552 84<167 235.918> 675 21G<93.0606 150> 709 76<131.649 238.011>
VStem: 247 103<642.772 702.054> 255 105<480.85 543.417>
LayerCount: 2
Fore
SplineSet
203 395 m 0,0,1
 148 395 148 395 109.5 416.5 c 128,-1,2
 71 438 71 438 53 478 c 1,3,-1
 144 511 l 1,4,5
 151 492 151 492 167.5 482 c 128,-1,6
 184 472 184 472 205 472 c 0,7,8
 231 472 231 472 243 483.5 c 128,-1,9
 255 495 255 495 255 512 c 0,10,11
 255 534 255 534 236.5 543 c 128,-1,12
 218 552 218 552 182 552 c 2,13,-1
 167 552 l 1,14,-1
 167 636 l 1,15,-1
 182 636 l 2,16,17
 247 636 247 636 247 674 c 0,18,19
 247 693 247 693 232.5 701 c 128,-1,20
 218 709 218 709 201 709 c 0,21,22
 183 709 183 709 168 700.5 c 128,-1,23
 153 692 153 692 147 675 c 1,24,-1
 58 708 l 1,25,26
 75 746 75 746 113.5 765.5 c 128,-1,27
 152 785 152 785 205 785 c 0,28,29
 268 785 268 785 309 758.5 c 128,-1,30
 350 732 350 732 350 683 c 0,31,32
 350 653 350 653 335.5 631.5 c 128,-1,33
 321 610 321 610 301 600 c 1,34,35
 328 590 328 590 344 566.5 c 128,-1,36
 360 543 360 543 360 510 c 0,37,38
 360 473 360 473 338 447.5 c 128,-1,39
 316 422 316 422 280.5 408.5 c 128,-1,40
 245 395 245 395 203 395 c 0,0,1
EndSplineSet
Validated: 1
EndChar

StartChar: acute
Encoding: 286 180 96
Width: 314
GlyphClass: 1
Flags: W
HStem: 574 153<161.376 196.382>
VStem: 53 208
LayerCount: 2
Fore
SplineSet
53 574 m 1,0,1
 81 608 81 608 108.5 641.5 c 128,-1,2
 136 675 136 675 164 709 c 0,3,4
 179 727 179 727 205 727 c 0,5,6
 229 727 229 727 245 711 c 128,-1,7
 261 695 261 695 261 671 c 0,8,9
 261 645 261 645 242 629 c 0,10,11
 223 616 223 616 204.5 602 c 128,-1,12
 186 588 186 588 167 574 c 1,13,-1
 53 574 l 1,0,1
EndSplineSet
Validated: 1
EndChar

StartChar: uni03BC
Encoding: 287 956 97
Width: 570
GlyphClass: 1
Flags: W
HStem: -162 21G<50 202> -12 118<220.206 340.777> 0 21G<374.953 519> 475 20G<50 202 366 519>
VStem: 50 152<-162 18 123.798 495> 366 153<131.339 495>
LayerCount: 2
Fore
SplineSet
50 -162 m 1,0,-1
 50 495 l 1,1,-1
 202 495 l 1,2,-1
 202 230 l 2,3,4
 202 156 202 156 218 131 c 128,-1,5
 234 106 234 106 277 106 c 0,6,7
 325 106 325 106 345.5 133 c 128,-1,8
 366 160 366 160 366 230 c 2,9,-1
 366 495 l 1,10,-1
 519 495 l 1,11,-1
 519 0 l 1,12,-1
 381 0 l 1,13,-1
 368 43 l 1,14,15
 352 14 352 14 328 1 c 128,-1,16
 304 -12 304 -12 279 -12 c 0,17,18
 235 -12 235 -12 202 18 c 1,19,-1
 202 -162 l 1,20,-1
 50 -162 l 1,0,-1
EndSplineSet
Validated: 1
EndChar

StartChar: paragraph
Encoding: 182 182 98
Width: 515
GlyphClass: 1
Flags: W
HStem: -162 21G<166 261 353 448> 600 67<261 353 448 495>
VStem: 24 237<390.136 566.226> 166 95<-162 302.374> 353 95<-162 600>
LayerCount: 2
Fore
SplineSet
166 -162 m 1,0,-1
 166 295 l 1,1,2
 126 306 126 306 93.5 332 c 128,-1,3
 61 358 61 358 42.5 396 c 128,-1,4
 24 434 24 434 24 478 c 0,5,6
 24 530 24 530 49.5 573 c 128,-1,7
 75 616 75 616 118 641.5 c 128,-1,8
 161 667 161 667 213 667 c 2,9,-1
 495 667 l 1,10,-1
 495 600 l 1,11,-1
 448 600 l 1,12,-1
 448 -162 l 1,13,-1
 353 -162 l 1,14,-1
 353 600 l 1,15,-1
 261 600 l 1,16,-1
 261 -162 l 1,17,-1
 166 -162 l 1,0,-1
EndSplineSet
Validated: 1
EndChar

StartChar: periodcentered
Encoding: 288 183 99
Width: 301
GlyphClass: 1
Flags: W
HStem: 151 194<89.4219 212.195>
VStem: 53 195<187.743 308.868>
LayerCount: 2
Fore
SplineSet
151 151 m 256,0,1
 111 151 111 151 82 179.5 c 128,-1,2
 53 208 53 208 53 248 c 0,3,4
 53 289 53 289 82 317 c 128,-1,5
 111 345 111 345 151 345 c 256,6,7
 191 345 191 345 219.5 317 c 128,-1,8
 248 289 248 289 248 248 c 0,9,10
 248 208 248 208 219.5 179.5 c 128,-1,11
 191 151 191 151 151 151 c 256,0,1
EndSplineSet
Validated: 1
EndChar

StartChar: cedilla
Encoding: 289 184 100
Width: 321
GlyphClass: 1
Flags: W
HStem: -187 50<89.2523 180.593>
VStem: 194 94<-132.33 -88.5135>
LayerCount: 2
Fore
SplineSet
161 -187 m 0,0,1
 137 -187 137 -187 114.5 -183.5 c 128,-1,2
 92 -180 92 -180 73 -174 c 1,3,-1
 89 -124 l 1,4,5
 97 -128 97 -128 114.5 -132.5 c 128,-1,6
 132 -137 132 -137 150 -137 c 256,7,8
 168 -137 168 -137 181 -131 c 128,-1,9
 194 -125 194 -125 194 -110 c 0,10,11
 194 -98 194 -98 184 -91 c 128,-1,12
 174 -84 174 -84 157 -84 c 0,13,14
 145 -84 145 -84 130 -89 c 0,15,16
 121 -92 121 -92 113 -87 c 0,17,18
 106 -83 106 -83 103.5 -74.5 c 128,-1,19
 101 -66 101 -66 105 -59 c 2,20,-1
 157 25 l 1,21,-1
 198 0 l 1,22,-1
 168 -48 l 1,23,24
 182 -45 182 -45 202 -45 c 0,25,26
 221 -45 221 -45 241 -51 c 128,-1,27
 261 -57 261 -57 274.5 -70.5 c 128,-1,28
 288 -84 288 -84 288 -107 c 0,29,30
 288 -136 288 -136 269.5 -153.5 c 128,-1,31
 251 -171 251 -171 222 -179 c 128,-1,32
 193 -187 193 -187 161 -187 c 0,0,1
EndSplineSet
Validated: 1
EndChar

StartChar: uni00B9
Encoding: 290 185 101
Width: 291
GlyphClass: 1
Flags: W
HStem: 647 87<53 136.979>
VStem: 137 101<403 647>
LayerCount: 2
Fore
SplineSet
137 403 m 1,0,-1
 137 647 l 1,1,-1
 53 647 l 1,2,-1
 53 734 l 1,3,4
 94 734 94 734 121.5 741 c 128,-1,5
 149 748 149 748 159 779 c 1,6,-1
 238 779 l 1,7,-1
 238 403 l 1,8,-1
 137 403 l 1,0,-1
EndSplineSet
Validated: 1
EndChar

StartChar: ordmasculine
Encoding: 291 186 102
Width: 409
GlyphClass: 1
Flags: W
HStem: 395 77<173.418 244.801> 612 77<173.418 244.801>
VStem: 57 103<486.382 597.46> 258 102<486.045 598.254>
LayerCount: 2
Fore
SplineSet
209 395 m 0,0,1
 168 395 168 395 133 411 c 128,-1,2
 98 427 98 427 77.5 459.5 c 128,-1,3
 57 492 57 492 57 542 c 0,4,5
 57 593 57 593 77.5 625.5 c 128,-1,6
 98 658 98 658 133 673.5 c 128,-1,7
 168 689 168 689 209 689 c 0,8,9
 271 689 271 689 315.5 653.5 c 128,-1,10
 360 618 360 618 360 542 c 0,11,12
 360 467 360 467 315.5 431 c 128,-1,13
 271 395 271 395 209 395 c 0,0,1
209 472 m 0,14,15
 230 472 230 472 244 489.5 c 128,-1,16
 258 507 258 507 258 542 c 256,17,18
 258 577 258 577 244 594.5 c 128,-1,19
 230 612 230 612 209 612 c 0,20,21
 189 612 189 612 174.5 594.5 c 128,-1,22
 160 577 160 577 160 542 c 256,23,24
 160 507 160 507 174.5 489.5 c 128,-1,25
 189 472 189 472 209 472 c 0,14,15
EndSplineSet
Validated: 1
EndChar

StartChar: guillemotright
Encoding: 292 187 103
Width: 669
GlyphClass: 1
Flags: W
LayerCount: 2
Fore
SplineSet
294 40 m 1,0,-1
 442 251 l 1,1,-1
 294 461 l 1,2,-1
 468 461 l 1,3,-1
 616 251 l 1,4,-1
 468 40 l 1,5,-1
 294 40 l 1,0,-1
53 40 m 1,6,-1
 203 251 l 1,7,-1
 54 461 l 1,8,-1
 228 461 l 1,9,-1
 375 251 l 1,10,-1
 228 40 l 1,11,-1
 53 40 l 1,6,-1
EndSplineSet
Validated: 1
EndChar

StartChar: onequarter
Encoding: 293 188 104
Width: 853
GlyphClass: 1
Flags: W
HStem: 0 21G<110 251.033 641 742> 74 87<563 641 742 800> 535 88<53 136.979> 647 20G<154 238 563.967 705>
VStem: 137 101<292 535> 641 101<0 74 161 256>
LayerCount: 2
Fore
SplineSet
110 0 m 1,0,-1
 578 667 l 1,1,-1
 705 667 l 1,2,-1
 237 0 l 1,3,-1
 110 0 l 1,0,-1
137 292 m 1,4,-1
 137 535 l 1,5,-1
 53 535 l 1,6,-1
 53 623 l 1,7,8
 94 623 94 623 121.5 629.5 c 128,-1,9
 149 636 149 636 159 667 c 1,10,-1
 238 667 l 1,11,-1
 238 292 l 1,12,-1
 137 292 l 1,4,-1
641 0 m 1,13,-1
 641 74 l 1,14,-1
 460 74 l 1,15,-1
 460 152 l 1,16,-1
 641 375 l 1,17,-1
 742 375 l 1,18,-1
 742 161 l 1,19,-1
 800 161 l 1,20,-1
 800 74 l 1,21,-1
 742 74 l 1,22,-1
 742 0 l 1,23,-1
 641 0 l 1,13,-1
563 161 m 1,24,-1
 641 161 l 1,25,-1
 641 256 l 1,26,-1
 563 161 l 1,24,-1
EndSplineSet
Validated: 1
Ligature2: "'frac' Diagonal Fractions lookup 10 subtable" one slash four
EndChar

StartChar: onehalf
Encoding: 294 189 105
Width: 856
GlyphClass: 1
Flags: W
HStem: 0 87<644 802> 306 75<613.207 691.876> 535 88<53 136.979> 647 20G<154 238 563.967 705>
VStem: 137 101<292 535> 700 103<218.05 298.686>
LayerCount: 2
Fore
SplineSet
110 0 m 1,0,-1
 578 667 l 1,1,-1
 705 667 l 1,2,-1
 237 0 l 1,3,-1
 110 0 l 1,0,-1
137 292 m 1,4,-1
 137 535 l 1,5,-1
 53 535 l 1,6,-1
 53 623 l 1,7,8
 94 623 94 623 121.5 629.5 c 128,-1,9
 149 636 149 636 159 667 c 1,10,-1
 238 667 l 1,11,-1
 238 292 l 1,12,-1
 137 292 l 1,4,-1
502 0 m 1,13,-1
 502 81 l 1,14,15
 527 99 527 99 560.5 121.5 c 128,-1,16
 594 144 594 144 626 169 c 128,-1,17
 658 194 658 194 679 219 c 128,-1,18
 700 244 700 244 700 266 c 0,19,20
 700 287 700 287 687.5 296.5 c 128,-1,21
 675 306 675 306 657 306 c 0,22,23
 635 306 635 306 621.5 294 c 128,-1,24
 608 282 608 282 603 263 c 1,25,-1
 512 296 l 1,26,27
 528 337 528 337 566.5 359 c 128,-1,28
 605 381 605 381 661 381 c 0,29,30
 721 381 721 381 762 355 c 128,-1,31
 803 329 803 329 803 274 c 256,32,33
 803 219 803 219 759.5 177.5 c 128,-1,34
 716 136 716 136 644 87 c 1,35,-1
 802 87 l 1,36,-1
 802 0 l 1,37,-1
 502 0 l 1,13,-1
EndSplineSet
Validated: 1
Ligature2: "'frac' Diagonal Fractions lookup 10 subtable" one slash two
EndChar

StartChar: threequarters
Encoding: 295 190 106
Width: 959
GlyphClass: 1
Flags: W
HStem: 0 21G<200 341.033 748 849> 74 87<669 748 849 906> 290 76<153.3 246.603> 446 84<167 235.918> 603 76<130.875 238.085> 647 20G<653.967 795>
VStem: 247 103<537.231 595.797> 255 105<374.467 437.159> 748 101<0 74 161 256>
LayerCount: 2
Fore
SplineSet
203 290 m 0,0,1
 148 290 148 290 109.5 311.5 c 128,-1,2
 71 333 71 333 53 372 c 1,3,-1
 144 404 l 1,4,5
 151 385 151 385 167.5 375.5 c 128,-1,6
 184 366 184 366 205 366 c 0,7,8
 231 366 231 366 243 377 c 128,-1,9
 255 388 255 388 255 404 c 0,10,11
 255 427 255 427 236.5 436.5 c 128,-1,12
 218 446 218 446 182 446 c 2,13,-1
 167 446 l 1,14,-1
 167 530 l 1,15,-1
 182 530 l 2,16,17
 247 530 247 530 247 569 c 0,18,19
 247 586 247 586 232.5 594.5 c 128,-1,20
 218 603 218 603 201 603 c 0,21,22
 183 603 183 603 168 594.5 c 128,-1,23
 153 586 153 586 147 569 c 1,24,-1
 58 602 l 1,25,26
 93 679 93 679 208 679 c 0,27,28
 269 679 269 679 309.5 652.5 c 128,-1,29
 350 626 350 626 350 577 c 0,30,31
 350 547 350 547 335.5 525.5 c 128,-1,32
 321 504 321 504 301 494 c 1,33,34
 328 484 328 484 344 460.5 c 128,-1,35
 360 437 360 437 360 404 c 0,36,37
 360 368 360 368 338 342.5 c 128,-1,38
 316 317 316 317 280.5 303.5 c 128,-1,39
 245 290 245 290 203 290 c 0,0,1
200 0 m 1,40,-1
 668 667 l 1,41,-1
 795 667 l 1,42,-1
 327 0 l 1,43,-1
 200 0 l 1,40,-1
748 0 m 1,44,-1
 748 74 l 1,45,-1
 567 74 l 1,46,-1
 567 152 l 1,47,-1
 748 375 l 1,48,-1
 849 375 l 1,49,-1
 849 161 l 1,50,-1
 906 161 l 1,51,-1
 906 74 l 1,52,-1
 849 74 l 1,53,-1
 849 0 l 1,54,-1
 748 0 l 1,44,-1
669 161 m 1,55,-1
 748 161 l 1,56,-1
 748 256 l 1,57,-1
 669 161 l 1,55,-1
EndSplineSet
Validated: 1
Ligature2: "'frac' Diagonal Fractions lookup 10 subtable" three slash four
EndChar

StartChar: less
Encoding: 60 60 107
Width: 573
GlyphClass: 1
Flags: W
HStem: 490 20G<486.27 533>
LayerCount: 2
Fore
SplineSet
533 -12 m 1,0,-1
 40 200 l 1,1,-1
 40 299 l 1,2,-1
 533 510 l 1,3,-1
 533 368 l 1,4,-1
 209 250 l 1,5,-1
 533 130 l 1,6,-1
 533 -12 l 1,0,-1
EndSplineSet
Validated: 1
EndChar

StartChar: equal
Encoding: 61 61 108
Width: 618
GlyphClass: 1
Flags: W
HStem: 96 129<53 565> 283 127<53 565>
LayerCount: 2
Fore
SplineSet
53 283 m 1,0,-1
 53 410 l 1,1,-1
 565 410 l 1,2,-1
 565 283 l 1,3,-1
 53 283 l 1,0,-1
53 96 m 1,4,-1
 53 225 l 1,5,-1
 565 225 l 1,6,-1
 565 96 l 1,7,-1
 53 96 l 1,4,-1
EndSplineSet
Validated: 1
EndChar

StartChar: greater
Encoding: 62 62 109
Width: 573
GlyphClass: 1
Flags: W
HStem: 490 20G<40 86.7299>
LayerCount: 2
Fore
SplineSet
40 -12 m 1,0,-1
 40 130 l 1,1,-1
 365 250 l 1,2,-1
 40 368 l 1,3,-1
 40 510 l 1,4,-1
 533 299 l 1,5,-1
 533 200 l 1,6,-1
 40 -12 l 1,0,-1
EndSplineSet
Validated: 1
EndChar

StartChar: question
Encoding: 63 63 110
Width: 614
GlyphClass: 1
Flags: W
HStem: -12 195<203.743 324.868> 558 122<216.605 388.415>
VStem: 167 194<24.4219 147.797> 408 156<463.502 537.508>
LayerCount: 2
Fore
SplineSet
186 243 m 1,0,-1
 186 255 l 2,1,2
 188 303 188 303 201.5 333 c 128,-1,3
 215 363 215 363 243 384.5 c 128,-1,4
 271 406 271 406 315 427 c 0,5,6
 362 449 362 449 385 462.5 c 128,-1,7
 408 476 408 476 408 501 c 256,8,9
 408 526 408 526 379.5 542 c 128,-1,10
 351 558 351 558 303 558 c 0,11,12
 259 558 259 558 224.5 541 c 128,-1,13
 190 524 190 524 177 486 c 1,14,-1
 40 536 l 1,15,16
 68 606 68 606 139 643 c 128,-1,17
 210 680 210 680 309 680 c 0,18,19
 375 680 375 680 433 661.5 c 128,-1,20
 491 643 491 643 527.5 605.5 c 128,-1,21
 564 568 564 568 564 509 c 0,22,23
 564 443 564 443 527.5 406.5 c 128,-1,24
 491 370 491 370 438 345 c 0,25,26
 393 324 393 324 369 306 c 128,-1,27
 345 288 345 288 341 253 c 2,28,-1
 340 243 l 1,29,-1
 186 243 l 1,0,-1
264 -12 m 0,30,31
 224 -12 224 -12 195.5 17 c 128,-1,32
 167 46 167 46 167 86 c 0,33,34
 167 127 167 127 195.5 155 c 128,-1,35
 224 183 224 183 264 183 c 0,36,37
 305 183 305 183 333 155 c 128,-1,38
 361 127 361 127 361 86 c 0,39,40
 361 46 361 46 333 17 c 128,-1,41
 305 -12 305 -12 264 -12 c 0,30,31
EndSplineSet
Validated: 1
EndChar

StartChar: at
Encoding: 64 64 111
Width: 754
GlyphClass: 1
Flags: W
HStem: -12 70<272.583 487.86> 153 87<528.133 612.621> 155 95<312.104 396.474> 427 91<323.529 418.75> 610 70<272.488 488.796>
VStem: 35 69<225.646 441.818> 200 97<265.402 400.3> 419 94<273.208 426.414> 642 77<271.292 460.804>
LayerCount: 2
Fore
SplineSet
380 -12 m 0,0,1
 309 -12 309 -12 246.5 15 c 128,-1,2
 184 42 184 42 136.5 89.5 c 128,-1,3
 89 137 89 137 62 199.5 c 128,-1,4
 35 262 35 262 35 334 c 0,5,6
 35 405 35 405 62 468 c 128,-1,7
 89 531 89 531 136.5 578.5 c 128,-1,8
 184 626 184 626 247 653 c 128,-1,9
 310 680 310 680 382 680 c 0,10,11
 451 680 451 680 512 655 c 128,-1,12
 573 630 573 630 619.5 585 c 128,-1,13
 666 540 666 540 692.5 480 c 128,-1,14
 719 420 719 420 719 350 c 0,15,16
 715 256 715 256 671 204.5 c 128,-1,17
 627 153 627 153 559 153 c 0,18,19
 525 153 525 153 496 170 c 128,-1,20
 467 187 467 187 454 219 c 1,21,22
 431 187 431 187 400 171 c 128,-1,23
 369 155 369 155 337 155 c 0,24,25
 302 155 302 155 270.5 173.5 c 128,-1,26
 239 192 239 192 219.5 228 c 128,-1,27
 200 264 200 264 200 317 c 0,28,29
 200 393 200 393 227.5 437 c 128,-1,30
 255 481 255 481 299.5 499.5 c 128,-1,31
 344 518 344 518 394 518 c 0,32,33
 424 518 424 518 454.5 512.5 c 128,-1,34
 485 507 485 507 513 498 c 1,35,-1
 513 309 l 2,36,37
 513 275 513 275 529.5 257.5 c 128,-1,38
 546 240 546 240 567 240 c 0,39,40
 599 240 599 240 619 269.5 c 128,-1,41
 639 299 639 299 642 356 c 0,42,43
 642 429 642 429 606.5 486.5 c 128,-1,44
 571 544 571 544 511.5 577 c 128,-1,45
 452 610 452 610 380 610 c 0,46,47
 322 610 322 610 272 588 c 128,-1,48
 222 566 222 566 184 528 c 128,-1,49
 146 490 146 490 125 440 c 128,-1,50
 104 390 104 390 104 333 c 256,51,52
 104 276 104 276 125.5 226 c 128,-1,53
 147 176 147 176 185.5 138 c 128,-1,54
 224 100 224 100 274.5 79 c 128,-1,55
 325 58 325 58 383 58 c 0,56,57
 453 58 453 58 516 94 c 1,58,-1
 516 16 l 1,59,60
 452 -12 452 -12 380 -12 c 0,0,1
352 250 m 0,61,62
 376 250 376 250 397.5 272.5 c 128,-1,63
 419 295 419 295 419 339 c 2,64,-1
 419 423 l 1,65,66
 411 425 411 425 401.5 426 c 128,-1,67
 392 427 392 427 382 427 c 0,68,69
 361 427 361 427 341.5 418.5 c 128,-1,70
 322 410 322 410 309.5 387 c 128,-1,71
 297 364 297 364 297 319 c 0,72,73
 297 285 297 285 313.5 267.5 c 128,-1,74
 330 250 330 250 352 250 c 0,61,62
EndSplineSet
Validated: 1
EndChar

StartChar: colon
Encoding: 58 58 112
Width: 243
GlyphClass: 1
Flags: W
HStem: -12 195<61.3738 182.257> 316 194<60.4219 183.195>
VStem: 24 195<25.3738 146.868 352.112 473.237>
LayerCount: 2
Fore
SplineSet
122 316 m 256,0,1
 82 316 82 316 53 344 c 128,-1,2
 24 372 24 372 24 412 c 0,3,4
 24 453 24 453 53 481.5 c 128,-1,5
 82 510 82 510 122 510 c 256,6,7
 162 510 162 510 190.5 481.5 c 128,-1,8
 219 453 219 453 219 412 c 0,9,10
 219 372 219 372 190.5 344 c 128,-1,11
 162 316 162 316 122 316 c 256,0,1
122 -12 m 256,12,13
 82 -12 82 -12 53 17 c 128,-1,14
 24 46 24 46 24 86 c 0,15,16
 24 127 24 127 53 155 c 128,-1,17
 82 183 82 183 122 183 c 256,18,19
 162 183 162 183 190.5 155 c 128,-1,20
 219 127 219 127 219 86 c 0,21,22
 219 46 219 46 190.5 17 c 128,-1,23
 162 -12 162 -12 122 -12 c 256,12,13
EndSplineSet
Validated: 1
EndChar

StartChar: semicolon
Encoding: 59 59 113
Width: 243
GlyphClass: 1
Flags: W
HStem: 316 194<60.4219 183.195>
VStem: 24 195<28.5625 146.868 352.112 473.237>
LayerCount: 2
Fore
SplineSet
122 316 m 256,0,1
 82 316 82 316 53 344 c 128,-1,2
 24 372 24 372 24 412 c 0,3,4
 24 453 24 453 53 481.5 c 128,-1,5
 82 510 82 510 122 510 c 256,6,7
 162 510 162 510 190.5 481.5 c 128,-1,8
 219 453 219 453 219 412 c 0,9,10
 219 372 219 372 190.5 344 c 128,-1,11
 162 316 162 316 122 316 c 256,0,1
46 -146 m 1,12,-1
 99 -9 l 1,13,14
 67 -1 67 -1 45.5 25.5 c 128,-1,15
 24 52 24 52 24 86 c 0,16,17
 24 127 24 127 53 155 c 128,-1,18
 82 183 82 183 122 183 c 256,19,20
 162 183 162 183 190.5 155 c 128,-1,21
 219 127 219 127 219 86 c 0,22,23
 219 67 219 67 213 50 c 2,24,-1
 136 -146 l 1,25,-1
 46 -146 l 1,12,-1
EndSplineSet
Validated: 1
EndChar

StartChar: bracketleft
Encoding: 91 91 114
Width: 333
GlyphClass: 1
Flags: W
HStem: -161 115<172 300> 552 116<172 300>
VStem: 44 256<-161 -46 552 668> 44 128<-46 552>
LayerCount: 2
Fore
SplineSet
44 -161 m 1,0,-1
 44 668 l 1,1,-1
 300 668 l 1,2,-1
 300 552 l 1,3,-1
 172 552 l 1,4,-1
 172 -46 l 1,5,-1
 300 -46 l 1,6,-1
 300 -161 l 1,7,-1
 44 -161 l 1,0,-1
EndSplineSet
Validated: 1
EndChar

StartChar: backslash
Encoding: 92 92 115
Width: 442
GlyphClass: 1
Flags: W
HStem: 0 21G<268.186 427> 648 20G<15 175.754>
LayerCount: 2
Fore
SplineSet
276 0 m 1,0,-1
 15 668 l 1,1,-1
 168 668 l 1,2,-1
 427 0 l 1,3,-1
 276 0 l 1,0,-1
EndSplineSet
Validated: 1
EndChar

StartChar: bracketright
Encoding: 93 93 116
Width: 333
GlyphClass: 1
Flags: W
HStem: -161 115<33 161> 552 116<33 161>
VStem: 33 256<-161 -46 552 668> 161 128<-46 552>
LayerCount: 2
Fore
SplineSet
33 -161 m 1,0,-1
 33 -46 l 1,1,-1
 161 -46 l 1,2,-1
 161 552 l 1,3,-1
 33 552 l 1,4,-1
 33 668 l 1,5,-1
 289 668 l 1,6,-1
 289 -161 l 1,7,-1
 33 -161 l 1,0,-1
EndSplineSet
Validated: 1
EndChar

StartChar: asciicircum
Encoding: 94 94 117
Width: 589
GlyphClass: 1
Flags: W
HStem: 648 20G<227.607 361.393>
LayerCount: 2
Fore
SplineSet
53 312 m 1,0,-1
 238 668 l 1,1,-1
 351 668 l 1,2,-1
 536 312 l 1,3,-1
 393 312 l 1,4,-1
 295 506 l 1,5,-1
 196 312 l 1,6,-1
 53 312 l 1,0,-1
EndSplineSet
Validated: 1
EndChar

StartChar: underscore
Encoding: 95 95 118
Width: 430
GlyphClass: 1
Flags: W
HStem: -128 128<10 420>
LayerCount: 2
Fore
SplineSet
10 -128 m 1,0,-1
 10 0 l 1,1,-1
 420 0 l 1,2,-1
 420 -128 l 1,3,-1
 10 -128 l 1,0,-1
EndSplineSet
Validated: 1
EndChar

StartChar: grave
Encoding: 96 96 119
Width: 314
GlyphClass: 1
Flags: W
HStem: 574 154<117.618 152.719>
VStem: 53 208
LayerCount: 2
Fore
SplineSet
147 574 m 1,0,1
 128 588 128 588 109.5 602 c 128,-1,2
 91 616 91 616 72 629 c 1,3,4
 53 648 53 648 53 671 c 256,5,6
 53 694 53 694 69.5 711 c 128,-1,7
 86 728 86 728 109 728 c 0,8,9
 135 728 135 728 151 709 c 2,10,-1
 261 574 l 1,11,-1
 147 574 l 1,0,1
EndSplineSet
Validated: 1
EndChar

StartChar: exclam
Encoding: 33 33 120
Width: 283
GlyphClass: 1
Flags: W
HStem: -12 195<81.3738 202.257> 648 20G<44 238>
VStem: 44 195<25.3738 146.868 453.977 668>
LayerCount: 2
Fore
SplineSet
85 243 m 1,0,-1
 44 495 l 1,1,-1
 44 668 l 1,2,-1
 238 668 l 1,3,-1
 238 495 l 1,4,-1
 196 243 l 1,5,-1
 85 243 l 1,0,-1
142 -12 m 256,6,7
 102 -12 102 -12 73 17 c 128,-1,8
 44 46 44 46 44 86 c 0,9,10
 44 127 44 127 73 155 c 128,-1,11
 102 183 102 183 142 183 c 256,12,13
 182 183 182 183 210.5 155 c 128,-1,14
 239 127 239 127 239 86 c 0,15,16
 239 46 239 46 210.5 17 c 128,-1,17
 182 -12 182 -12 142 -12 c 256,6,7
EndSplineSet
Validated: 1
EndChar

StartChar: quotedbl
Encoding: 34 34 121
Width: 410
GlyphClass: 1
Flags: W
HStem: 434 234<54 168 243 356>
VStem: 54 114<434 551> 243 113<434 543.2>
LayerCount: 2
Fore
SplineSet
243 434 m 1,0,-1
 228 668 l 1,1,-1
 370 668 l 1,2,-1
 356 434 l 1,3,-1
 243 434 l 1,0,-1
54 434 m 1,4,-1
 40 668 l 1,5,-1
 182 668 l 1,6,-1
 168 434 l 1,7,-1
 54 434 l 1,4,-1
EndSplineSet
Validated: 1
EndChar

StartChar: numbersign
Encoding: 35 35 122
Width: 783
GlyphClass: 1
Flags: W
HStem: 0 21G<134 277.835 411 554.835> 127 140<44 152 313 429 591 699> 401 140<84 192 352 469 630 738> 648 20G<228.008 371 505.008 649>
LayerCount: 2
Fore
SplineSet
134 0 m 1,0,-1
 152 127 l 1,1,-1
 24 127 l 1,2,-1
 44 266 l 1,3,-1
 172 266 l 1,4,-1
 192 401 l 1,5,-1
 64 401 l 1,6,-1
 84 541 l 1,7,-1
 212 541 l 1,8,-1
 231 668 l 1,9,-1
 371 668 l 1,10,-1
 352 541 l 1,11,-1
 489 541 l 1,12,-1
 508 668 l 1,13,-1
 649 668 l 1,14,-1
 630 541 l 1,15,-1
 759 541 l 1,16,-1
 738 402 l 1,17,-1
 610 402 l 1,18,-1
 591 267 l 1,19,-1
 719 267 l 1,20,-1
 699 127 l 1,21,-1
 570 127 l 1,22,-1
 552 0 l 1,23,-1
 411 0 l 1,24,-1
 429 127 l 1,25,-1
 293 127 l 1,26,-1
 275 0 l 1,27,-1
 134 0 l 1,0,-1
313 267 m 1,28,-1
 450 267 l 1,29,-1
 469 401 l 1,30,-1
 332 401 l 1,31,-1
 313 267 l 1,28,-1
EndSplineSet
Validated: 1
EndChar

StartChar: dollar
Encoding: 36 36 123
Width: 619
GlyphClass: 1
Flags: W
HStem: -11 128<345 407.375> 552 126<211.585 272 345 385.074>
VStem: 28 162<445.01 530.281> 272 73<-87 -8.53333 120 261 420 548 675.759 747> 434 162<141.371 231.136>
LayerCount: 2
Fore
SplineSet
272 -87 m 1,0,-1
 272 -10 l 1,1,2
 179 -2 179 -2 116 41.5 c 128,-1,3
 53 85 53 85 25 157 c 1,4,-1
 169 209 l 1,5,6
 180 172 180 172 206 150 c 128,-1,7
 232 128 232 128 272 120 c 1,8,-1
 272 277 l 1,9,-1
 231 286 l 2,10,11
 177 298 177 298 130.5 320 c 128,-1,12
 84 342 84 342 56 379.5 c 128,-1,13
 28 417 28 417 28 474 c 0,14,15
 28 539 28 539 64 582 c 128,-1,16
 100 625 100 625 156 649 c 128,-1,17
 212 673 212 673 272 678 c 1,18,-1
 272 747 l 1,19,-1
 345 747 l 1,20,-1
 345 678 l 1,21,22
 418 672 418 672 478.5 638 c 128,-1,23
 539 604 539 604 567 535 c 1,24,-1
 424 483 l 1,25,26
 405 532 405 532 345 548 c 1,27,-1
 345 405 l 1,28,-1
 356 403 l 2,29,30
 397 396 397 396 439 383.5 c 128,-1,31
 481 371 481 371 516.5 350 c 128,-1,32
 552 329 552 329 574 295 c 128,-1,33
 596 261 596 261 596 209 c 0,34,35
 596 144 596 144 560 96.5 c 128,-1,36
 524 49 524 49 466.5 22 c 128,-1,37
 409 -5 409 -5 345 -11 c 1,38,-1
 345 -87 l 1,39,-1
 272 -87 l 1,0,-1
272 420 m 1,40,-1
 272 552 l 1,41,42
 236 548 236 548 213 531.5 c 128,-1,43
 190 515 190 515 190 489 c 0,44,45
 190 464 190 464 211 445.5 c 128,-1,46
 232 427 232 427 266 421 c 2,47,-1
 272 420 l 1,40,-1
345 117 m 1,48,49
 379 121 379 121 406.5 137.5 c 128,-1,50
 434 154 434 154 434 189 c 0,51,52
 434 216 434 216 410 233 c 128,-1,53
 386 250 386 250 345 261 c 1,54,-1
 345 117 l 1,48,49
EndSplineSet
Validated: 1
EndChar

StartChar: percent
Encoding: 37 37 124
Width: 977
GlyphClass: 1
Flags: W
HStem: -12 119<702.341 809.975> 0 21G<192 332.012> 264 118<702.341 809.975> 286 118<167.576 275.694> 561 119<167.576 275.694> 648 20G<645.018 786>
VStem: 24 119<428.642 536.24> 300 118<428.642 536.24> 559 118<132.442 238.537> 835 118<132.442 238.537>
LayerCount: 2
Fore
SplineSet
221 286 m 256,0,1
 167 286 167 286 122 312.5 c 128,-1,2
 77 339 77 339 50.5 383.5 c 128,-1,3
 24 428 24 428 24 482 c 0,4,5
 24 537 24 537 50.5 581.5 c 128,-1,6
 77 626 77 626 122 653 c 128,-1,7
 167 680 167 680 221 680 c 256,8,9
 275 680 275 680 320 653 c 128,-1,10
 365 626 365 626 391.5 581.5 c 128,-1,11
 418 537 418 537 418 482 c 0,12,13
 418 428 418 428 391.5 383.5 c 128,-1,14
 365 339 365 339 320 312.5 c 128,-1,15
 275 286 275 286 221 286 c 256,0,1
192 0 m 1,16,-1
 659 668 l 1,17,-1
 786 668 l 1,18,-1
 318 0 l 1,19,-1
 192 0 l 1,16,-1
221 404 m 0,20,21
 254 404 254 404 277 427 c 128,-1,22
 300 450 300 450 300 482 c 0,23,24
 300 515 300 515 277 538 c 128,-1,25
 254 561 254 561 221 561 c 0,26,27
 189 561 189 561 166 538 c 128,-1,28
 143 515 143 515 143 482 c 0,29,30
 143 450 143 450 166 427 c 128,-1,31
 189 404 189 404 221 404 c 0,20,21
756 -12 m 0,32,33
 702 -12 702 -12 657 15 c 128,-1,34
 612 42 612 42 585.5 87 c 128,-1,35
 559 132 559 132 559 186 c 0,36,37
 559 241 559 241 585.5 285 c 128,-1,38
 612 329 612 329 657 355.5 c 128,-1,39
 702 382 702 382 756 382 c 0,40,41
 811 382 811 382 855.5 355.5 c 128,-1,42
 900 329 900 329 926.5 285 c 128,-1,43
 953 241 953 241 953 186 c 0,44,45
 953 132 953 132 926.5 87 c 128,-1,46
 900 42 900 42 855.5 15 c 128,-1,47
 811 -12 811 -12 756 -12 c 0,32,33
756 107 m 256,48,49
 788 107 788 107 811.5 130 c 128,-1,50
 835 153 835 153 835 186 c 0,51,52
 835 218 835 218 811.5 241 c 128,-1,53
 788 264 788 264 756 264 c 256,54,55
 724 264 724 264 700.5 241 c 128,-1,56
 677 218 677 218 677 186 c 0,57,58
 677 153 677 153 700.5 130 c 128,-1,59
 724 107 724 107 756 107 c 256,48,49
EndSplineSet
Validated: 1
EndChar

StartChar: ampersand
Encoding: 38 38 125
Width: 702
GlyphClass: 1
Flags: W
HStem: -13 125<216.832 369.324> 0 21G<504.642 698> 592 114<275.213 374.999>
VStem: 24 159<144.871 249.97> 121 139<479.46 578.297> 394 127<475.566 573.581> 546 127<315.346 389>
LayerCount: 2
Fore
SplineSet
266 -13 m 0,0,1
 195 -13 195 -13 140 16 c 128,-1,2
 85 45 85 45 54.5 92 c 128,-1,3
 24 139 24 139 24 191 c 0,4,5
 24 245 24 245 61.5 297.5 c 128,-1,6
 99 350 99 350 182 385 c 1,7,8
 150 426 150 426 135.5 464 c 128,-1,9
 121 502 121 502 121 536 c 0,10,11
 121 587 121 587 148.5 625 c 128,-1,12
 176 663 176 663 223 684.5 c 128,-1,13
 270 706 270 706 329 706 c 0,14,15
 378 706 378 706 421.5 682.5 c 128,-1,16
 465 659 465 659 493 619 c 128,-1,17
 521 579 521 579 521 531 c 0,18,19
 521 488 521 488 492 441 c 128,-1,20
 463 394 463 394 395 352 c 1,21,-1
 489 244 l 1,22,23
 508 274 508 274 522.5 310 c 128,-1,24
 537 346 537 346 546 389 c 1,25,-1
 673 389 l 1,26,27
 661 315 661 315 633 251 c 128,-1,28
 605 187 605 187 573 145 c 1,29,-1
 698 0 l 1,30,-1
 522 0 l 1,31,-1
 476 53 l 1,32,33
 419 18 419 18 366 2.5 c 128,-1,34
 313 -13 313 -13 266 -13 c 0,0,1
322 437 m 1,35,36
 360 457 360 457 377 481.5 c 128,-1,37
 394 506 394 506 394 528 c 0,38,39
 394 555 394 555 374 573.5 c 128,-1,40
 354 592 354 592 323 592 c 0,41,42
 297 592 297 592 278.5 577.5 c 128,-1,43
 260 563 260 563 260 537 c 0,44,45
 260 518 260 518 274 492 c 128,-1,46
 288 466 288 466 322 437 c 1,35,36
286 112 m 0,47,48
 309 112 309 112 336.5 120.5 c 128,-1,49
 364 129 364 129 392 146 c 1,50,-1
 266 290 l 1,51,52
 222 273 222 273 202.5 248 c 128,-1,53
 183 223 183 223 183 197 c 0,54,55
 183 163 183 163 212 137.5 c 128,-1,56
 241 112 241 112 286 112 c 0,47,48
EndSplineSet
Validated: 1
EndChar

StartChar: quotesingle
Encoding: 39 39 126
Width: 222
GlyphClass: 1
Flags: W
HStem: 434 234<54 168>
VStem: 54 114<434 551>
LayerCount: 2
Fore
SplineSet
54 434 m 1,0,-1
 40 668 l 1,1,-1
 182 668 l 1,2,-1
 168 434 l 1,3,-1
 54 434 l 1,0,-1
EndSplineSet
Validated: 1
EndChar

StartChar: parenleft
Encoding: 40 40 127
Width: 366
GlyphClass: 1
Flags: W
HStem: -161 21G<147 331> 648 20G<119 289>
VStem: 35 141<111.145 456.201>
LayerCount: 2
Fore
SplineSet
180 -161 m 1,0,1
 114 -69 114 -69 74.5 43 c 128,-1,2
 35 155 35 155 35 280 c 0,3,4
 35 384 35 384 64 483 c 128,-1,5
 93 582 93 582 145 668 c 1,6,-1
 289 668 l 1,7,8
 231 580 231 580 203.5 482 c 128,-1,9
 176 384 176 384 176 276 c 0,10,11
 176 152 176 152 221 41 c 128,-1,12
 266 -70 266 -70 331 -161 c 1,13,-1
 180 -161 l 1,0,1
EndSplineSet
Validated: 1
EndChar

StartChar: parenright
Encoding: 41 41 128
Width: 366
GlyphClass: 1
Flags: W
HStem: -161 21G<35 219.5> 648 20G<77 247.5>
VStem: 190 141<111.145 457.758>
LayerCount: 2
Fore
SplineSet
35 -161 m 1,0,1
 101 -70 101 -70 145.5 41 c 128,-1,2
 190 152 190 152 190 276 c 0,3,4
 190 384 190 384 163 482 c 128,-1,5
 136 580 136 580 77 668 c 1,6,-1
 221 668 l 1,7,8
 274 582 274 582 302.5 483 c 128,-1,9
 331 384 331 384 331 280 c 0,10,11
 331 155 331 155 291.5 43 c 128,-1,12
 252 -69 252 -69 187 -161 c 1,13,-1
 35 -161 l 1,0,1
EndSplineSet
Validated: 1
EndChar

StartChar: asterisk
Encoding: 42 42 129
Width: 434
GlyphClass: 1
Flags: W
HStem: 351 317
VStem: 173 88<567 668>
LayerCount: 2
Fore
SplineSet
158 351 m 1,0,-1
 87 402 l 1,1,-1
 146 484 l 1,2,-1
 50 515 l 1,3,-1
 77 598 l 1,4,-1
 173 567 l 1,5,-1
 173 668 l 1,6,-1
 261 668 l 1,7,-1
 261 567 l 1,8,-1
 355 598 l 1,9,-1
 383 515 l 1,10,-1
 288 484 l 1,11,-1
 347 402 l 1,12,-1
 276 351 l 1,13,-1
 217 432 l 1,14,-1
 158 351 l 1,0,-1
EndSplineSet
Validated: 1
EndChar

StartChar: plus
Encoding: 43 43 130
Width: 618
GlyphClass: 1
Flags: W
HStem: 0 21G<245 373> 184 128<53 245 373 565> 476 20G<245 373>
VStem: 245 128<0 184 312 496>
LayerCount: 2
Fore
SplineSet
245 0 m 1,0,-1
 245 184 l 1,1,-1
 53 184 l 1,2,-1
 53 312 l 1,3,-1
 245 312 l 1,4,-1
 245 496 l 1,5,-1
 373 496 l 1,6,-1
 373 312 l 1,7,-1
 565 312 l 1,8,-1
 565 184 l 1,9,-1
 373 184 l 1,10,-1
 373 0 l 1,11,-1
 245 0 l 1,0,-1
EndSplineSet
Validated: 1
EndChar

StartChar: comma
Encoding: 44 44 131
Width: 243
GlyphClass: 1
Flags: W
HStem: -146 329<99.2195 136>
VStem: 24 195<28.5625 146.868>
LayerCount: 2
Fore
SplineSet
46 -146 m 1,0,-1
 99 -9 l 1,1,2
 67 -1 67 -1 45.5 25.5 c 128,-1,3
 24 52 24 52 24 86 c 0,4,5
 24 127 24 127 53 155 c 128,-1,6
 82 183 82 183 122 183 c 256,7,8
 162 183 162 183 190.5 154.5 c 128,-1,9
 219 126 219 126 219 85 c 0,10,11
 219 67 219 67 213 50 c 2,12,-1
 136 -146 l 1,13,-1
 46 -146 l 1,0,-1
EndSplineSet
Validated: 1
EndChar

StartChar: hyphen
Encoding: 45 45 132
Width: 374
GlyphClass: 1
Flags: W
HStem: 184 129<24 350>
VStem: 24 326<184 313>
LayerCount: 2
Fore
SplineSet
24 184 m 1,0,-1
 24 313 l 1,1,-1
 350 313 l 1,2,-1
 350 184 l 1,3,-1
 24 184 l 1,0,-1
EndSplineSet
Validated: 1
EndChar

StartChar: period
Encoding: 46 46 133
Width: 243
GlyphClass: 1
Flags: W
HStem: -12 195<61.3738 182.257>
VStem: 24 195<25.3738 146.868>
LayerCount: 2
Fore
SplineSet
122 -12 m 256,0,1
 82 -12 82 -12 53 17 c 128,-1,2
 24 46 24 46 24 86 c 0,3,4
 24 127 24 127 53 155 c 128,-1,5
 82 183 82 183 122 183 c 256,6,7
 162 183 162 183 190.5 155 c 128,-1,8
 219 127 219 127 219 86 c 0,9,10
 219 46 219 46 190.5 17 c 128,-1,11
 162 -12 162 -12 122 -12 c 256,0,1
EndSplineSet
Validated: 1
EndChar

StartChar: slash
Encoding: 47 47 134
Width: 442
GlyphClass: 1
Flags: W
HStem: 0 21G<15 175.754> 648 20G<268.186 427>
LayerCount: 2
Fore
SplineSet
15 0 m 1,0,-1
 276 668 l 1,1,-1
 427 668 l 1,2,-1
 168 0 l 1,3,-1
 15 0 l 1,0,-1
EndSplineSet
Validated: 1
EndChar

StartChar: braceleft
Encoding: 123 123 135
Width: 370
GlyphClass: 1
Flags: W
HStem: -161 120<255.535 336> 193 123<24 80.0317> 548 120<255.535 336>
VStem: 94 144<-32.7451 180.146 328.607 539.745>
LayerCount: 2
Fore
SplineSet
285 -161 m 2,0,1
 226 -161 226 -161 183 -147.5 c 128,-1,2
 140 -134 140 -134 117 -98.5 c 128,-1,3
 94 -63 94 -63 94 2 c 2,4,-1
 94 97 l 2,5,6
 94 141 94 141 82.5 167 c 128,-1,7
 71 193 71 193 24 193 c 1,8,-1
 24 316 l 1,9,10
 71 316 71 316 82.5 341.5 c 128,-1,11
 94 367 94 367 94 410 c 2,12,-1
 94 506 l 2,13,14
 94 571 94 571 117 606 c 128,-1,15
 140 641 140 641 183 654.5 c 128,-1,16
 226 668 226 668 285 668 c 2,17,-1
 336 668 l 1,18,-1
 336 548 l 1,19,-1
 303 548 l 2,20,21
 272 548 272 548 255 540 c 128,-1,22
 238 532 238 532 238 504 c 2,23,-1
 238 381 l 2,24,25
 238 339 238 339 224.5 314 c 128,-1,26
 211 289 211 289 190 276 c 128,-1,27
 169 263 169 263 144 256 c 1,28,-1
 144 253 l 1,29,30
 169 247 169 247 190 234 c 128,-1,31
 211 221 211 221 224.5 196 c 128,-1,32
 238 171 238 171 238 128 c 2,33,-1
 238 3 l 2,34,35
 238 -25 238 -25 255 -33 c 128,-1,36
 272 -41 272 -41 303 -41 c 2,37,-1
 336 -41 l 1,38,-1
 336 -161 l 1,39,-1
 285 -161 l 2,0,1
EndSplineSet
Validated: 1
EndChar

StartChar: bar
Encoding: 124 124 136
Width: 234
GlyphClass: 1
Flags: W
HStem: -161 21G<44 190> 648 20G<44 190>
VStem: 44 146<-161 668>
LayerCount: 2
Fore
SplineSet
44 -161 m 1,0,-1
 44 668 l 1,1,-1
 190 668 l 1,2,-1
 190 -161 l 1,3,-1
 44 -161 l 1,0,-1
EndSplineSet
Validated: 1
EndChar

StartChar: braceright
Encoding: 125 125 137
Width: 370
GlyphClass: 1
Flags: W
HStem: -161 120<34 115.981> 193 123<290.959 346> 548 120<34 115.981>
VStem: 133 144<-32.7451 180.146 328.607 539.745>
LayerCount: 2
Fore
SplineSet
34 -161 m 1,0,-1
 34 -41 l 1,1,-1
 68 -41 l 2,2,3
 100 -41 100 -41 116.5 -33 c 128,-1,4
 133 -25 133 -25 133 3 c 2,5,-1
 133 128 l 2,6,7
 133 171 133 171 146 196 c 128,-1,8
 159 221 159 221 180.5 234 c 128,-1,9
 202 247 202 247 226 253 c 1,10,-1
 226 256 l 1,11,12
 202 263 202 263 180.5 276 c 128,-1,13
 159 289 159 289 146 314 c 128,-1,14
 133 339 133 339 133 381 c 2,15,-1
 133 504 l 2,16,17
 133 532 133 532 116.5 540 c 128,-1,18
 100 548 100 548 68 548 c 2,19,-1
 34 548 l 1,20,-1
 34 668 l 1,21,-1
 86 668 l 2,22,23
 146 668 146 668 188.5 654.5 c 128,-1,24
 231 641 231 641 254 606 c 128,-1,25
 277 571 277 571 277 506 c 2,26,-1
 277 410 l 2,27,28
 277 367 277 367 288.5 341.5 c 128,-1,29
 300 316 300 316 346 316 c 1,30,-1
 346 193 l 1,31,32
 300 193 300 193 288.5 167 c 128,-1,33
 277 141 277 141 277 97 c 2,34,-1
 277 2 l 2,35,36
 277 -63 277 -63 254 -98.5 c 128,-1,37
 231 -134 231 -134 188.5 -147.5 c 128,-1,38
 146 -161 146 -161 86 -161 c 2,39,-1
 34 -161 l 1,0,-1
EndSplineSet
Validated: 1
EndChar

StartChar: asciitilde
Encoding: 126 126 138
Width: 533
GlyphClass: 1
Flags: W
HStem: 167 123<286.751 378.377> 227 123<154.348 252.552>
LayerCount: 2
Fore
SplineSet
359 167 m 0,0,1
 324 167 324 167 295.5 182 c 128,-1,2
 267 197 267 197 241 212 c 128,-1,3
 215 227 215 227 186 227 c 0,4,5
 168 227 168 227 155.5 212 c 128,-1,6
 143 197 143 197 145 146 c 1,7,-1
 40 184 l 1,8,9
 45 261 45 261 75 305.5 c 128,-1,10
 105 350 105 350 176 350 c 0,11,12
 214 350 214 350 243.5 335 c 128,-1,13
 273 320 273 320 298 305 c 128,-1,14
 323 290 323 290 347 290 c 0,15,16
 364 290 364 290 377 305.5 c 128,-1,17
 390 321 390 321 387 370 c 1,18,-1
 493 333 l 1,19,20
 488 256 488 256 459 211.5 c 128,-1,21
 430 167 430 167 359 167 c 0,0,1
EndSplineSet
Validated: 33
EndChar

StartChar: exclamdown
Encoding: 296 161 139
Width: 283
GlyphClass: 1
Flags: W
HStem: -161 21G<45 238> 325 194<80.4219 203.195>
VStem: 45 193<-161 49.0244 360.188 483.18>
LayerCount: 2
Fore
SplineSet
142 325 m 256,0,1
 102 325 102 325 73 353 c 128,-1,2
 44 381 44 381 44 421 c 0,3,4
 44 462 44 462 73 490.5 c 128,-1,5
 102 519 102 519 142 519 c 256,6,7
 182 519 182 519 210.5 490.5 c 128,-1,8
 239 462 239 462 239 421 c 0,9,10
 239 381 239 381 210.5 353 c 128,-1,11
 182 325 182 325 142 325 c 256,0,1
45 -161 m 1,12,-1
 45 12 l 1,13,-1
 86 265 l 1,14,-1
 197 265 l 1,15,-1
 238 12 l 1,16,-1
 238 -161 l 1,17,-1
 45 -161 l 1,12,-1
EndSplineSet
Validated: 1
EndChar

StartChar: cent
Encoding: 297 162 140
Width: 520
GlyphClass: 1
Flags: W
VStem: 24 155<155.816 343.577> 244 73<-87 -8.41455 115 383 505.153 571>
LayerCount: 2
Fore
SplineSet
244 -87 m 1,0,-1
 244 -11 l 1,1,2
 138 0 138 0 81 70.5 c 128,-1,3
 24 141 24 141 24 251 c 0,4,5
 24 323 24 323 51.5 378 c 128,-1,6
 79 433 79 433 128.5 467 c 128,-1,7
 178 501 178 501 244 508 c 1,8,-1
 244 571 l 1,9,-1
 317 571 l 1,10,-1
 317 507 l 1,11,12
 372 500 372 500 422.5 470.5 c 128,-1,13
 473 441 473 441 502 379 c 1,14,-1
 375 334 l 1,15,16
 366 357 366 357 351 370 c 128,-1,17
 336 383 336 383 318 388 c 1,18,-1
 318 109 l 1,19,20
 357 118 357 118 376 152 c 1,21,-1
 500 107 l 1,22,23
 469 51 469 51 419 24 c 128,-1,24
 369 -3 369 -3 317 -10 c 1,25,-1
 317 -87 l 1,26,-1
 244 -87 l 1,0,-1
244 115 m 1,27,-1
 244 383 l 1,28,29
 216 370 216 370 197.5 338.5 c 128,-1,30
 179 307 179 307 179 250 c 0,31,32
 179 191 179 191 198 159 c 128,-1,33
 217 127 217 127 244 115 c 1,27,-1
EndSplineSet
Validated: 1
EndChar

StartChar: sterling
Encoding: 163 163 141
Width: 617
GlyphClass: 1
Flags: W
HStem: -12 125<324.038 554.464> 24 110<226.656 352.434> 295 73<50 125 324 450> 558 121<266.998 413.776>
VStem: 82 160<418.139 536.123> 173 158<189.747 294.39>
LayerCount: 2
Fore
SplineSet
105 -12 m 1,0,-1
 50 104 l 1,1,2
 109 133 109 133 141 165 c 128,-1,3
 173 197 173 197 173 251 c 0,4,5
 173 274 173 274 163 295 c 1,6,-1
 50 295 l 1,7,-1
 50 368 l 1,8,-1
 125 368 l 1,9,10
 109 399 109 399 95.5 432.5 c 128,-1,11
 82 466 82 466 82 503 c 0,12,13
 82 550 82 550 103.5 583.5 c 128,-1,14
 125 617 125 617 161.5 638 c 128,-1,15
 198 659 198 659 243 669 c 128,-1,16
 288 679 288 679 334 679 c 0,17,18
 421 679 421 679 488.5 641.5 c 128,-1,19
 556 604 556 604 585 536 c 1,20,-1
 449 486 l 1,21,22
 438 525 438 525 405 541.5 c 128,-1,23
 372 558 372 558 336 558 c 0,24,25
 296 558 296 558 269 540 c 128,-1,26
 242 522 242 522 242 490 c 256,27,28
 242 458 242 458 258 428.5 c 128,-1,29
 274 399 274 399 290 368 c 1,30,-1
 450 368 l 1,31,-1
 450 295 l 1,32,-1
 324 295 l 1,33,34
 331 277 331 277 331 255 c 0,35,36
 331 213 331 213 300 177.5 c 128,-1,37
 269 142 269 142 226 115 c 1,38,39
 247 127 247 127 268 130.5 c 128,-1,40
 289 134 289 134 310 134 c 0,41,42
 348 134 348 134 385 123.5 c 128,-1,43
 422 113 422 113 453 113 c 0,44,45
 480 113 480 113 505.5 121 c 128,-1,46
 531 129 531 129 556 144 c 1,47,-1
 600 23 l 1,48,49
 566 6 566 6 527.5 -3 c 128,-1,50
 489 -12 489 -12 440 -12 c 0,51,52
 405 -12 405 -12 371.5 -3 c 128,-1,53
 338 6 338 6 305.5 15 c 128,-1,54
 273 24 273 24 240 24 c 0,55,56
 218 24 218 24 183.5 18 c 128,-1,57
 149 12 149 12 105 -12 c 1,0,-1
EndSplineSet
Validated: 1
EndChar

StartChar: currency
Encoding: 298 164 142
Width: 596
GlyphClass: 1
Flags: W
HStem: 102 119<236.667 359.333> 419 120<235.728 360.557>
VStem: 79 120<259.03 382.397> 397 119<259.03 381.797>
LayerCount: 2
Fore
SplineSet
105 75 m 1,0,-1
 53 127 l 1,1,-1
 120 194 l 1,2,3
 101 221 101 221 90 253 c 128,-1,4
 79 285 79 285 79 321 c 0,5,6
 79 356 79 356 90 387.5 c 128,-1,7
 101 419 101 419 120 446 c 1,8,-1
 53 513 l 1,9,-1
 105 565 l 1,10,-1
 172 498 l 1,11,12
 199 518 199 518 231 528.5 c 128,-1,13
 263 539 263 539 298 539 c 0,14,15
 334 539 334 539 365.5 528.5 c 128,-1,16
 397 518 397 518 424 498 c 1,17,-1
 491 565 l 1,18,-1
 543 513 l 1,19,-1
 476 446 l 1,20,21
 516 391 516 391 516 321 c 0,22,23
 516 285 516 285 505.5 253 c 128,-1,24
 495 221 495 221 476 194 c 1,25,-1
 543 127 l 1,26,-1
 491 75 l 1,27,-1
 424 142 l 1,28,29
 369 102 369 102 298 102 c 256,30,31
 227 102 227 102 172 142 c 1,32,-1
 105 75 l 1,0,-1
298 221 m 256,33,34
 339 221 339 221 368 250.5 c 128,-1,35
 397 280 397 280 397 321 c 256,36,37
 397 362 397 362 368 390.5 c 128,-1,38
 339 419 339 419 298 419 c 256,39,40
 257 419 257 419 228 390.5 c 128,-1,41
 199 362 199 362 199 321 c 256,42,43
 199 280 199 280 228 250.5 c 128,-1,44
 257 221 257 221 298 221 c 256,33,34
EndSplineSet
Validated: 1
EndChar

StartChar: yen
Encoding: 299 165 143
Width: 687
GlyphClass: 1
Flags: W
HStem: 0 21G<265 422> 75 74<136 265 422 552> 212 74<136 249 438 552> 647 20G<10 205.641 480.359 677>
VStem: 265 157<0 75 149 212>
LayerCount: 2
Fore
SplineSet
265 0 m 1,0,-1
 265 75 l 1,1,-1
 136 75 l 1,2,-1
 136 149 l 1,3,-1
 265 149 l 1,4,-1
 265 212 l 1,5,-1
 136 212 l 1,6,-1
 136 286 l 1,7,-1
 249 286 l 1,8,-1
 10 667 l 1,9,-1
 194 667 l 1,10,-1
 343 411 l 1,11,-1
 492 667 l 1,12,-1
 677 667 l 1,13,-1
 438 286 l 1,14,-1
 552 286 l 1,15,-1
 552 212 l 1,16,-1
 422 212 l 1,17,-1
 422 149 l 1,18,-1
 552 149 l 1,19,-1
 552 75 l 1,20,-1
 422 75 l 1,21,-1
 422 0 l 1,22,-1
 265 0 l 1,0,-1
EndSplineSet
Validated: 1
EndChar

StartChar: brokenbar
Encoding: 300 166 144
Width: 216
GlyphClass: 1
Flags: W
HStem: -161 21G<44 172> 648 20G<44 172>
VStem: 44 128<-161 150 358 668>
LayerCount: 2
Fore
SplineSet
44 358 m 1,0,-1
 44 668 l 1,1,-1
 172 668 l 1,2,-1
 172 358 l 1,3,-1
 44 358 l 1,0,-1
44 -161 m 1,4,-1
 44 150 l 1,5,-1
 172 150 l 1,6,-1
 172 -161 l 1,7,-1
 44 -161 l 1,4,-1
EndSplineSet
Validated: 1
EndChar

StartChar: section
Encoding: 167 167 145
Width: 578
GlyphClass: 1
Flags: W
HStem: -173 117<223.091 336.43> 565 115<227.47 344.509>
VStem: 21 149<270.456 340.353> 68 149<497.572 556.903> 351 151<-43.0519 36.373> 398 153<195.374 267.25>
LayerCount: 2
Fore
SplineSet
277 -173 m 0,0,1
 196 -173 196 -173 141.5 -136 c 128,-1,2
 87 -99 87 -99 64 -35 c 1,3,-1
 194 12 l 1,4,5
 203 -22 203 -22 225.5 -39 c 128,-1,6
 248 -56 248 -56 281 -56 c 256,7,8
 314 -56 314 -56 332.5 -42.5 c 128,-1,9
 351 -29 351 -29 351 -7 c 0,10,11
 351 16 351 16 332 34 c 128,-1,12
 313 52 313 52 277 69 c 2,13,-1
 162 125 l 2,14,15
 95 157 95 157 58 198 c 128,-1,16
 21 239 21 239 21 295 c 0,17,18
 21 333 21 333 45 365.5 c 128,-1,19
 69 398 69 398 107 421 c 1,20,21
 89 444 89 444 78.5 470.5 c 128,-1,22
 68 497 68 497 68 527 c 0,23,24
 68 577 68 577 97.5 611 c 128,-1,25
 127 645 127 645 176 662.5 c 128,-1,26
 225 680 225 680 282 680 c 0,27,28
 322 680 322 680 362 670 c 128,-1,29
 402 660 402 660 435.5 635.5 c 128,-1,30
 469 611 469 611 489 568 c 1,31,-1
 359 521 l 1,32,33
 356 528 356 528 348.5 538.5 c 128,-1,34
 341 549 341 549 325 557 c 128,-1,35
 309 565 309 565 281 565 c 0,36,37
 251 565 251 565 234 556 c 128,-1,38
 217 547 217 547 217 531 c 256,39,40
 217 515 217 515 233.5 501.5 c 128,-1,41
 250 488 250 488 278 474 c 2,42,-1
 400 414 l 2,43,44
 472 379 472 379 511.5 342 c 128,-1,45
 551 305 551 305 551 248 c 0,46,47
 551 207 551 207 526.5 172.5 c 128,-1,48
 502 138 502 138 458 114 c 1,49,50
 479 92 479 92 490.5 65 c 128,-1,51
 502 38 502 38 502 5 c 0,52,53
 502 -49 502 -49 473 -89 c 128,-1,54
 444 -129 444 -129 393.5 -151 c 128,-1,55
 343 -173 343 -173 277 -173 c 0,0,1
356 184 m 1,56,57
 376 193 376 193 387 203.5 c 128,-1,58
 398 214 398 214 398 230 c 0,59,60
 398 253 398 253 376.5 267.5 c 128,-1,61
 355 282 355 282 321 298 c 2,62,-1
 211 352 l 1,63,64
 170 332 170 332 170 307 c 0,65,66
 170 287 170 287 187 273.5 c 128,-1,67
 204 260 204 260 231 246 c 2,68,-1
 356 184 l 1,56,57
EndSplineSet
Validated: 1
EndChar

StartChar: dieresis
Encoding: 301 168 146
Width: 452
GlyphClass: 1
Flags: W
HStem: 578 141<80.6582 178.857 274.658 372.373>
VStem: 59 141<599.143 697.342> 253 140<599.143 697.342>
LayerCount: 2
Fore
SplineSet
130 578 m 256,0,1
 101 578 101 578 80 598.5 c 128,-1,2
 59 619 59 619 59 648 c 256,3,4
 59 677 59 677 80 698 c 128,-1,5
 101 719 101 719 130 719 c 256,6,7
 159 719 159 719 179.5 698 c 128,-1,8
 200 677 200 677 200 648 c 256,9,10
 200 619 200 619 179.5 598.5 c 128,-1,11
 159 578 159 578 130 578 c 256,0,1
324 578 m 256,12,13
 295 578 295 578 274 598.5 c 128,-1,14
 253 619 253 619 253 648 c 256,15,16
 253 677 253 677 274 698 c 128,-1,17
 295 719 295 719 324 719 c 256,18,19
 353 719 353 719 373 698 c 128,-1,20
 393 677 393 677 393 648 c 256,21,22
 393 619 393 619 373 598.5 c 128,-1,23
 353 578 353 578 324 578 c 256,12,13
EndSplineSet
Validated: 1
EndChar

StartChar: copyright
Encoding: 169 169 147
Width: 798
GlyphClass: 1
Flags: W
HStem: -12 69<291.88 505.248> 145 85<356.571 463.748> 437 85<356.25 459.464> 610 69<291.88 505.248>
VStem: 53 70<226.904 441.374> 218 112<256.631 411.144> 675 70<226.904 441.374>
LayerCount: 2
Fore
SplineSet
398 -12 m 0,0,1
 327 -12 327 -12 264.5 15 c 128,-1,2
 202 42 202 42 154.5 89.5 c 128,-1,3
 107 137 107 137 80 199.5 c 128,-1,4
 53 262 53 262 53 334 c 0,5,6
 53 405 53 405 80 467.5 c 128,-1,7
 107 530 107 530 154.5 577.5 c 128,-1,8
 202 625 202 625 264.5 652 c 128,-1,9
 327 679 327 679 398 679 c 0,10,11
 470 679 470 679 533 652 c 128,-1,12
 596 625 596 625 643.5 577.5 c 128,-1,13
 691 530 691 530 718 467.5 c 128,-1,14
 745 405 745 405 745 334 c 0,15,16
 745 262 745 262 718 199.5 c 128,-1,17
 691 137 691 137 643.5 89.5 c 128,-1,18
 596 42 596 42 533 15 c 128,-1,19
 470 -12 470 -12 398 -12 c 0,0,1
398 57 m 256,20,21
 455 57 455 57 505.5 78.5 c 128,-1,22
 556 100 556 100 594 138 c 128,-1,23
 632 176 632 176 653.5 226.5 c 128,-1,24
 675 277 675 277 675 334 c 256,25,26
 675 391 675 391 653.5 441 c 128,-1,27
 632 491 632 491 594 529 c 128,-1,28
 556 567 556 567 505.5 588.5 c 128,-1,29
 455 610 455 610 398 610 c 256,30,31
 341 610 341 610 291.5 588.5 c 128,-1,32
 242 567 242 567 204 529 c 128,-1,33
 166 491 166 491 144.5 441 c 128,-1,34
 123 391 123 391 123 334 c 256,35,36
 123 277 123 277 144.5 226.5 c 128,-1,37
 166 176 166 176 204 138 c 128,-1,38
 242 100 242 100 291.5 78.5 c 128,-1,39
 341 57 341 57 398 57 c 256,20,21
401 145 m 0,40,41
 313 145 313 145 265.5 197 c 128,-1,42
 218 249 218 249 218 334 c 0,43,44
 218 391 218 391 241.5 433 c 128,-1,45
 265 475 265 475 306 498.5 c 128,-1,46
 347 522 347 522 401 522 c 0,47,48
 448 522 448 522 493.5 501.5 c 128,-1,49
 539 481 539 481 564 428 c 1,50,-1
 472 394 l 1,51,52
 463 417 463 417 446 427 c 128,-1,53
 429 437 429 437 407 437 c 0,54,55
 378 437 378 437 354 413.5 c 128,-1,56
 330 390 330 390 330 334 c 0,57,58
 330 276 330 276 354.5 253 c 128,-1,59
 379 230 379 230 407 230 c 0,60,61
 454 230 454 230 473 264 c 1,62,-1
 563 231 l 1,63,64
 535 183 535 183 490 164 c 128,-1,65
 445 145 445 145 401 145 c 0,40,41
EndSplineSet
Validated: 1
EndChar

StartChar: questiondown
Encoding: 302 191 148
Width: 614
GlyphClass: 1
Flags: W
HStem: -172 122<225.585 397.395> 324 195<288.805 411.797>
VStem: 50 156<-29.3047 44.5521> 253 194<359.805 483.18>
LayerCount: 2
Fore
SplineSet
350 324 m 0,0,1
 310 324 310 324 281.5 352.5 c 128,-1,2
 253 381 253 381 253 421 c 0,3,4
 253 462 253 462 281.5 490.5 c 128,-1,5
 310 519 310 519 350 519 c 0,6,7
 391 519 391 519 419 490.5 c 128,-1,8
 447 462 447 462 447 421 c 0,9,10
 447 381 447 381 419 352.5 c 128,-1,11
 391 324 391 324 350 324 c 0,0,1
305 -172 m 0,12,13
 239 -172 239 -172 181 -153.5 c 128,-1,14
 123 -135 123 -135 86.5 -97 c 128,-1,15
 50 -59 50 -59 50 -1 c 0,16,17
 50 65 50 65 86.5 101.5 c 128,-1,18
 123 138 123 138 176 163 c 0,19,20
 221 184 221 184 245 202.5 c 128,-1,21
 269 221 269 221 273 255 c 2,22,-1
 274 265 l 1,23,-1
 428 265 l 1,24,-1
 428 253 l 2,25,26
 427 205 427 205 413 175 c 128,-1,27
 399 145 399 145 371.5 124 c 128,-1,28
 344 103 344 103 299 81 c 0,29,30
 253 59 253 59 229.5 46 c 128,-1,31
 206 33 206 33 206 7 c 0,32,33
 206 -18 206 -18 234.5 -34 c 128,-1,34
 263 -50 263 -50 311 -50 c 0,35,36
 355 -50 355 -50 389.5 -33 c 128,-1,37
 424 -16 424 -16 437 22 c 1,38,-1
 574 -28 l 1,39,40
 546 -98 546 -98 475 -135 c 128,-1,41
 404 -172 404 -172 305 -172 c 0,12,13
EndSplineSet
Validated: 1
EndChar

StartChar: germandbls
Encoding: 223 223 149
Width: 621
GlyphClass: 1
Flags: W
HStem: -12 126<319.312 411.964> 0 21G<44 197> 298 117<278 388.065> 556 123<230.881 387.914>
VStem: 44 153<0 521.104> 410 147<436.47 535.111> 443 156<143.146 263.144>
LayerCount: 2
Fore
SplineSet
357 -12 m 0,0,1
 347 -12 347 -12 338 -12 c 128,-1,2
 329 -12 329 -12 319 -11 c 1,3,-1
 278 123 l 1,4,5
 311 114 311 114 345 114 c 0,6,7
 383 114 383 114 413 136 c 128,-1,8
 443 158 443 158 443 198 c 0,9,10
 443 253 443 253 405.5 275.5 c 128,-1,11
 368 298 368 298 309 298 c 2,12,-1
 278 298 l 1,13,-1
 278 415 l 1,14,-1
 304 415 l 2,15,16
 410 415 410 415 410 486 c 0,17,18
 410 516 410 516 387.5 536 c 128,-1,19
 365 556 365 556 315 556 c 0,20,21
 267 556 267 556 241.5 541.5 c 128,-1,22
 216 527 216 527 206.5 498 c 128,-1,23
 197 469 197 469 197 424 c 2,24,-1
 197 0 l 1,25,-1
 44 0 l 1,26,-1
 44 435 l 2,27,28
 44 526 44 526 77 579.5 c 128,-1,29
 110 633 110 633 172 656 c 128,-1,30
 234 679 234 679 319 679 c 0,31,32
 387 679 387 679 440.5 658 c 128,-1,33
 494 637 494 637 525.5 596 c 128,-1,34
 557 555 557 555 557 493 c 0,35,36
 557 451 557 451 540.5 419 c 128,-1,37
 524 387 524 387 504 370 c 1,38,39
 544 349 544 349 571.5 308 c 128,-1,40
 599 267 599 267 599 204 c 0,41,42
 599 131 599 131 568 83 c 128,-1,43
 537 35 537 35 482.5 11.5 c 128,-1,44
 428 -12 428 -12 357 -12 c 0,0,1
EndSplineSet
Validated: 1
EndChar

StartChar: AE
Encoding: 198 198 150
Width: 1016
GlyphClass: 1
Flags: W
HStem: 0 139<639 994> 119 128<341 481> 275 138<639 857> 528 139<639 994>
LayerCount: 2
Fore
SplineSet
5 0 m 1,0,-1
 481 667 l 1,1,-1
 994 667 l 1,2,-1
 994 528 l 1,3,-1
 639 528 l 1,4,-1
 639 413 l 1,5,-1
 857 413 l 1,6,-1
 857 275 l 1,7,-1
 639 275 l 1,8,-1
 639 139 l 1,9,-1
 994 139 l 1,10,-1
 994 0 l 1,11,-1
 481 0 l 1,12,-1
 481 119 l 1,13,-1
 257 119 l 1,14,-1
 177 0 l 1,15,-1
 5 0 l 1,0,-1
341 247 m 1,16,-1
 481 247 l 1,17,-1
 481 453 l 1,18,-1
 341 247 l 1,16,-1
EndSplineSet
Validated: 1
EndChar

StartChar: florin
Encoding: 303 402 151
Width: 377
GlyphClass: 1
Flags: W
HStem: -174 141<15.391 130.5> 381 115<15 97 249 357> 608 121<262.413 357>
VStem: 97 152<-12.3721 381 496 599.745>
LayerCount: 2
Fore
SplineSet
92 -174 m 0,0,1
 73 -174 73 -174 52.5 -171 c 128,-1,2
 32 -168 32 -168 15 -164 c 1,3,-1
 15 -31 l 1,4,5
 23 -32 23 -32 30.5 -32.5 c 128,-1,6
 38 -33 38 -33 45 -33 c 0,7,8
 79 -33 79 -33 88 -13 c 128,-1,9
 97 7 97 7 97 39 c 2,10,-1
 97 381 l 1,11,-1
 15 381 l 1,12,-1
 15 496 l 1,13,-1
 97 496 l 1,14,-1
 97 578 l 2,15,16
 97 666 97 666 142.5 697.5 c 128,-1,17
 188 729 188 729 288 729 c 2,18,-1
 357 729 l 1,19,-1
 357 608 l 1,20,-1
 315 608 l 2,21,22
 275 608 275 608 262 600 c 128,-1,23
 249 592 249 592 249 564 c 2,24,-1
 249 496 l 1,25,-1
 357 496 l 1,26,-1
 357 381 l 1,27,-1
 249 381 l 1,28,-1
 249 -16 l 2,29,30
 249 -94 249 -94 209 -134 c 128,-1,31
 169 -174 169 -174 92 -174 c 0,0,1
EndSplineSet
Validated: 1
EndChar

StartChar: integral
Encoding: 304 8747 152
Width: 486
GlyphClass: 1
Flags: W
HStem: 660 20G<328 358.5>
VStem: 41 113<-104.433 -47.0172> 172 135<226.014 562.641> 180 135<-56.9316 280.986> 333 112<553.017 610.719>
LayerCount: 2
Fore
SplineSet
141 -174 m 0,0,1
 119 -174 119 -174 95.5 -161.5 c 128,-1,2
 72 -149 72 -149 56.5 -128 c 128,-1,3
 41 -107 41 -107 41 -84 c 0,4,5
 42 -61 42 -61 58.5 -45.5 c 128,-1,6
 75 -30 75 -30 97 -30 c 0,7,8
 121 -30 121 -30 137.5 -46.5 c 128,-1,9
 154 -63 154 -63 154 -86 c 0,10,11
 154 -96 154 -96 151 -105 c 1,12,13
 168 -97 168 -97 174 -70.5 c 128,-1,14
 180 -44 180 -44 180 2 c 0,15,16
 180 16 180 16 179.5 50 c 128,-1,17
 179 84 179 84 177.5 130 c 128,-1,18
 176 176 176 176 175 224.5 c 128,-1,19
 174 273 174 273 173 316 c 128,-1,20
 172 359 172 359 172 388 c 0,21,22
 171 475 171 475 184.5 531.5 c 128,-1,23
 198 588 198 588 222.5 620.5 c 128,-1,24
 247 653 247 653 278.5 666.5 c 128,-1,25
 310 680 310 680 346 680 c 0,26,27
 371 680 371 680 393.5 668.5 c 128,-1,28
 416 657 416 657 430.5 636.5 c 128,-1,29
 445 616 445 616 445 590 c 0,30,31
 444 568 444 568 428 552 c 128,-1,32
 412 536 412 536 389 536 c 0,33,34
 365 536 365 536 349 552.5 c 128,-1,35
 333 569 333 569 333 592 c 0,36,37
 333 602 333 602 336 611 c 1,38,39
 307 597 307 597 307 504 c 0,40,41
 307 490 307 490 307.5 456 c 128,-1,42
 308 422 308 422 309.5 376.5 c 128,-1,43
 311 331 311 331 312 282.5 c 128,-1,44
 313 234 313 234 314 190.5 c 128,-1,45
 315 147 315 147 315 118 c 0,46,47
 316 31 316 31 302.5 -25.5 c 128,-1,48
 289 -82 289 -82 264.5 -114.5 c 128,-1,49
 240 -147 240 -147 208.5 -160.5 c 128,-1,50
 177 -174 177 -174 141 -174 c 0,0,1
EndSplineSet
Validated: 33
EndChar

StartChar: approxequal
Encoding: 305 8776 153
Width: 532
GlyphClass: 1
Flags: W
HStem: 59 123<287.581 376.179> 118 125<154.518 253.975> 257 123<287.581 376.179> 317 124<154.518 252.221>
LayerCount: 2
Fore
SplineSet
145 256 m 1,0,-1
 41 294 l 1,1,2
 48 362 48 362 78 401.5 c 128,-1,3
 108 441 108 441 175 441 c 0,4,5
 213 441 213 441 243 426 c 128,-1,6
 273 411 273 411 298 395.5 c 128,-1,7
 323 380 323 380 347 380 c 0,8,9
 362 380 362 380 374 392 c 128,-1,10
 386 404 386 404 387 441 c 1,11,-1
 491 404 l 1,12,13
 484 336 484 336 454.5 296.5 c 128,-1,14
 425 257 425 257 359 257 c 0,15,16
 324 257 324 257 295.5 272 c 128,-1,17
 267 287 267 287 240.5 302 c 128,-1,18
 214 317 214 317 185 317 c 0,19,20
 169 317 169 317 157.5 305.5 c 128,-1,21
 146 294 146 294 145 256 c 1,0,-1
145 57 m 1,22,-1
 41 95 l 1,23,24
 48 163 48 163 78 203 c 128,-1,25
 108 243 108 243 175 243 c 0,26,27
 213 243 213 243 243 228 c 128,-1,28
 273 213 273 213 298 197.5 c 128,-1,29
 323 182 323 182 347 182 c 0,30,31
 362 182 362 182 374 194 c 128,-1,32
 386 206 386 206 387 244 c 1,33,-1
 491 206 l 1,34,35
 484 137 484 137 454.5 98 c 128,-1,36
 425 59 425 59 359 59 c 0,37,38
 324 59 324 59 295.5 74 c 128,-1,39
 267 89 267 89 240.5 103.5 c 128,-1,40
 214 118 214 118 185 118 c 0,41,42
 169 118 169 118 157.5 106.5 c 128,-1,43
 146 95 146 95 145 57 c 1,22,-1
EndSplineSet
Validated: 1
EndChar

StartChar: notequal
Encoding: 306 8800 154
Width: 594
GlyphClass: 1
Flags: W
HStem: 0 21G<47 214.167> 96 129<41 114 357 553> 283 127<41 245 487 553> 475 20G<380.118 547>
LayerCount: 2
Fore
SplineSet
47 0 m 1,0,-1
 114 96 l 1,1,-1
 41 96 l 1,2,-1
 41 225 l 1,3,-1
 204 225 l 1,4,-1
 245 283 l 1,5,-1
 41 283 l 1,6,-1
 41 410 l 1,7,-1
 335 410 l 1,8,-1
 394 495 l 1,9,-1
 547 495 l 1,10,-1
 487 410 l 1,11,-1
 553 410 l 1,12,-1
 553 283 l 1,13,-1
 397 283 l 1,14,-1
 357 225 l 1,15,-1
 553 225 l 1,16,-1
 553 96 l 1,17,-1
 268 96 l 1,18,-1
 200 0 l 1,19,-1
 47 0 l 1,0,-1
EndSplineSet
Validated: 1
EndChar

StartChar: lessequal
Encoding: 307 8804 155
Width: 594
GlyphClass: 1
Flags: W
HStem: 0 128<41 553> 490 20G<470.419 553>
LayerCount: 2
Fore
SplineSet
553 136 m 1,0,-1
 41 260 l 1,1,-1
 41 386 l 1,2,-1
 553 510 l 1,3,-1
 553 381 l 1,4,-1
 216 324 l 1,5,-1
 553 265 l 1,6,-1
 553 136 l 1,0,-1
41 0 m 1,7,-1
 41 128 l 1,8,-1
 553 128 l 1,9,-1
 553 0 l 1,10,-1
 41 0 l 1,7,-1
EndSplineSet
Validated: 1
EndChar

StartChar: greaterequal
Encoding: 308 8805 156
Width: 594
GlyphClass: 1
Flags: W
HStem: 0 128<41 553> 490 20G<41 123.581>
LayerCount: 2
Fore
SplineSet
41 136 m 1,0,-1
 41 265 l 1,1,-1
 378 324 l 1,2,-1
 41 381 l 1,3,-1
 41 510 l 1,4,-1
 553 386 l 1,5,-1
 553 260 l 1,6,-1
 41 136 l 1,0,-1
41 0 m 1,7,-1
 41 128 l 1,8,-1
 553 128 l 1,9,-1
 553 0 l 1,10,-1
 41 0 l 1,7,-1
EndSplineSet
Validated: 1
EndChar

StartChar: lozenge
Encoding: 309 9674 157
Width: 607
GlyphClass: 1
Flags: W
LayerCount: 2
Fore
SplineSet
304 -91 m 1,0,-1
 41 313 l 1,1,-1
 304 716 l 1,2,-1
 566 313 l 1,3,-1
 304 -91 l 1,0,-1
304 124 m 1,4,-1
 428 313 l 1,5,-1
 304 502 l 1,6,-1
 179 313 l 1,7,-1
 304 124 l 1,4,-1
EndSplineSet
Validated: 1
EndChar

StartChar: summation
Encoding: 310 8721 158
Width: 617
GlyphClass: 1
Flags: W
HStem: -162 128<211 576> 540 128<211 576>
LayerCount: 2
Fore
SplineSet
41 -162 m 1,0,-1
 41 -34 l 1,1,-1
 278 254 l 1,2,-1
 41 540 l 1,3,-1
 41 668 l 1,4,-1
 576 668 l 1,5,-1
 576 540 l 1,6,-1
 211 540 l 1,7,-1
 450 254 l 1,8,-1
 211 -34 l 1,9,-1
 576 -34 l 1,10,-1
 576 -162 l 1,11,-1
 41 -162 l 1,0,-1
EndSplineSet
Validated: 1
EndChar

StartChar: minus
Encoding: 311 8722 159
Width: 594
GlyphClass: 1
Flags: W
HStem: 184 128<41 553>
LayerCount: 2
Fore
SplineSet
41 184 m 1,0,-1
 41 312 l 1,1,-1
 553 312 l 1,2,-1
 553 184 l 1,3,-1
 41 184 l 1,0,-1
EndSplineSet
Validated: 1
EndChar

StartChar: uni2215
Encoding: 312 8725 160
Width: 651
GlyphClass: 1
Flags: W
HStem: 0 21G<15 182.012> 648 20G<468.988 636>
LayerCount: 2
Fore
SplineSet
15 0 m 1,0,-1
 483 668 l 1,1,-1
 636 668 l 1,2,-1
 168 0 l 1,3,-1
 15 0 l 1,0,-1
EndSplineSet
Validated: 1
EndChar

StartChar: uni2219
Encoding: 313 8729 161
Width: 277
GlyphClass: 1
Flags: W
HStem: 157 194<78.3738 199.257>
VStem: 41 195<194.374 315.499>
LayerCount: 2
Fore
SplineSet
139 157 m 256,0,1
 99 157 99 157 70 186 c 128,-1,2
 41 215 41 215 41 255 c 0,3,4
 41 296 41 296 70 323.5 c 128,-1,5
 99 351 99 351 139 351 c 256,6,7
 179 351 179 351 207.5 323.5 c 128,-1,8
 236 296 236 296 236 255 c 0,9,10
 236 215 236 215 207.5 186 c 128,-1,11
 179 157 179 157 139 157 c 256,0,1
EndSplineSet
Validated: 1
EndChar

StartChar: radical
Encoding: 314 8730 162
Width: 709
GlyphClass: 1
Flags: W
HStem: -162 21G<284.373 454.277> 93 132<41 183> 648 20G<518.679 668>
LayerCount: 2
Fore
SplineSet
293 -162 m 1,0,-1
 183 93 l 1,1,-1
 41 93 l 1,2,-1
 41 225 l 1,3,-1
 274 225 l 1,4,-1
 354 29 l 1,5,-1
 524 668 l 1,6,-1
 668 668 l 1,7,-1
 449 -162 l 1,8,-1
 293 -162 l 1,0,-1
EndSplineSet
Validated: 1
EndChar

StartChar: infinity
Encoding: 315 8734 163
Width: 749
GlyphClass: 1
Flags: W
HStem: 97 107<174.683 277.194 471.698 573.924> 306 106<174.907 278.731 470.755 573.963>
VStem: 41 120<217.418 293.252> 588 120<217.418 293.252>
LayerCount: 2
Fore
SplineSet
213 97 m 0,0,1
 165 97 165 97 126 117 c 128,-1,2
 87 137 87 137 64 173 c 128,-1,3
 41 209 41 209 41 255 c 256,4,5
 41 301 41 301 64.5 336 c 128,-1,6
 88 371 88 371 128 391.5 c 128,-1,7
 168 412 168 412 217 412 c 0,8,9
 267 412 267 412 305 390.5 c 128,-1,10
 343 369 343 369 374 336 c 1,11,12
 406 369 406 369 444.5 390.5 c 128,-1,13
 483 412 483 412 532 412 c 0,14,15
 582 412 582 412 621.5 391.5 c 128,-1,16
 661 371 661 371 684.5 336 c 128,-1,17
 708 301 708 301 708 255 c 256,18,19
 708 209 708 209 685 173 c 128,-1,20
 662 137 662 137 623.5 117 c 128,-1,21
 585 97 585 97 536 97 c 0,22,23
 482 97 482 97 443.5 120 c 128,-1,24
 405 143 405 143 374 176 c 1,25,26
 343 143 343 143 305 120 c 128,-1,27
 267 97 267 97 213 97 c 0,0,1
220 204 m 0,28,29
 248 204 248 204 269.5 219.5 c 128,-1,30
 291 235 291 235 308 256 c 1,31,32
 291 276 291 276 269.5 291 c 128,-1,33
 248 306 248 306 222 306 c 0,34,35
 197 306 197 306 179 292.5 c 128,-1,36
 161 279 161 279 161 256 c 0,37,38
 161 234 161 234 177.5 219 c 128,-1,39
 194 204 194 204 220 204 c 0,28,29
529 204 m 0,40,41
 555 204 555 204 571.5 219 c 128,-1,42
 588 234 588 234 588 256 c 0,43,44
 588 279 588 279 570.5 292.5 c 128,-1,45
 553 306 553 306 527 306 c 0,46,47
 502 306 502 306 480 291 c 128,-1,48
 458 276 458 276 441 256 c 1,49,50
 458 235 458 235 479.5 219.5 c 128,-1,51
 501 204 501 204 529 204 c 0,40,41
EndSplineSet
Validated: 1
EndChar

StartChar: uni03A9
Encoding: 316 937 164
Width: 656
GlyphClass: 1
Flags: W
HStem: 0 115<35 172 484 621> 564 116<244.211 411.555>
VStem: 35 121<309.319 476.492> 353 268<0 115> 499 122<309.319 476.492>
LayerCount: 2
Fore
SplineSet
35 0 m 1,0,-1
 35 115 l 1,1,-1
 172 115 l 1,2,-1
 172 139 l 1,3,4
 111 178 111 178 73 243.5 c 128,-1,5
 35 309 35 309 35 386 c 0,6,7
 35 447 35 447 57.5 500 c 128,-1,8
 80 553 80 553 120.5 593.5 c 128,-1,9
 161 634 161 634 214 657 c 128,-1,10
 267 680 267 680 328 680 c 256,11,12
 389 680 389 680 442 657 c 128,-1,13
 495 634 495 634 535.5 593.5 c 128,-1,14
 576 553 576 553 598.5 500 c 128,-1,15
 621 447 621 447 621 386 c 0,16,17
 621 309 621 309 583.5 243.5 c 128,-1,18
 546 178 546 178 484 139 c 1,19,-1
 484 115 l 1,20,-1
 621 115 l 1,21,-1
 621 0 l 1,22,-1
 353 0 l 1,23,-1
 353 223 l 1,24,25
 395 229 395 229 428 253 c 128,-1,26
 461 277 461 277 480 313.5 c 128,-1,27
 499 350 499 350 499 392 c 0,28,29
 499 440 499 440 476 479 c 128,-1,30
 453 518 453 518 414 541 c 128,-1,31
 375 564 375 564 328 564 c 256,32,33
 281 564 281 564 241.5 541 c 128,-1,34
 202 518 202 518 179 479 c 128,-1,35
 156 440 156 440 156 392 c 0,36,37
 156 350 156 350 175.5 313.5 c 128,-1,38
 195 277 195 277 228.5 253 c 128,-1,39
 262 229 262 229 303 223 c 1,40,-1
 303 0 l 1,41,-1
 35 0 l 1,0,-1
EndSplineSet
Validated: 1
EndChar

StartChar: estimated
Encoding: 317 8494 165
Width: 604
GlyphClass: 1
Flags: W
HStem: -12 70<213.394 390.213> 249 66<178 426> 440 70<213.394 391.773>
VStem: 41 137<144.129 249 315 353.565>
LayerCount: 2
Fore
SplineSet
303 -12 m 0,0,1
 231 -12 231 -12 171.5 23 c 128,-1,2
 112 58 112 58 76.5 117.5 c 128,-1,3
 41 177 41 177 41 249 c 256,4,5
 41 321 41 321 76.5 380 c 128,-1,6
 112 439 112 439 171.5 474.5 c 128,-1,7
 231 510 231 510 303 510 c 256,8,9
 375 510 375 510 434 474.5 c 128,-1,10
 493 439 493 439 528 380 c 128,-1,11
 563 321 563 321 563 249 c 1,12,-1
 178 249 l 1,13,-1
 178 104 l 1,14,15
 203 82 203 82 235 70 c 128,-1,16
 267 58 267 58 303 58 c 0,17,18
 347 58 347 58 385.5 77 c 128,-1,19
 424 96 424 96 450 128 c 1,20,-1
 518 103 l 1,21,22
 483 51 483 51 426.5 19.5 c 128,-1,23
 370 -12 370 -12 303 -12 c 0,0,1
178 315 m 1,24,-1
 426 315 l 1,25,-1
 426 394 l 1,26,27
 374 440 374 440 303 440 c 0,28,29
 267 440 267 440 235 428 c 128,-1,30
 203 416 203 416 178 394 c 1,31,-1
 178 315 l 1,24,-1
EndSplineSet
Validated: 1
EndChar

StartChar: partialdiff
Encoding: 318 8706 166
Width: 597
GlyphClass: 1
Flags: W
HStem: -11 118<232.801 358.662> 315 120<232.588 359.521> 560 120<172 334.483>
VStem: 41 151<147.481 274.956> 399 157<156.298 395.497>
LayerCount: 2
Fore
SplineSet
182 6 m 0,0,1
 147 20 147 20 114.5 46 c 128,-1,2
 82 72 82 72 61.5 113 c 128,-1,3
 41 154 41 154 41 212 c 0,4,5
 41 274 41 274 71 324.5 c 128,-1,6
 101 375 101 375 152 405 c 128,-1,7
 203 435 203 435 265 435 c 0,8,9
 335 435 335 435 378.5 408.5 c 128,-1,10
 422 382 422 382 442 356 c 1,11,12
 438 419 438 419 412.5 467 c 128,-1,13
 387 515 387 515 329.5 540.5 c 128,-1,14
 272 566 272 566 172 560 c 1,15,-1
 172 680 l 1,16,17
 197 680 197 680 234.5 679 c 128,-1,18
 272 678 272 678 315.5 669.5 c 128,-1,19
 359 661 359 661 401.5 639.5 c 128,-1,20
 444 618 444 618 479 578 c 128,-1,21
 514 538 514 538 535 474 c 128,-1,22
 556 410 556 410 556 315 c 0,23,24
 556 272 556 272 551 228 c 128,-1,25
 546 184 546 184 529 143 c 0,26,27
 506 87 506 87 470.5 54 c 128,-1,28
 435 21 435 21 393.5 6 c 128,-1,29
 352 -9 352 -9 311.5 -11 c 128,-1,30
 271 -13 271 -13 237 -7.5 c 128,-1,31
 203 -2 203 -2 182 6 c 0,0,1
296 107 m 256,32,33
 339 107 339 107 369 137.5 c 128,-1,34
 399 168 399 168 399 211 c 0,35,36
 399 255 399 255 369 285 c 128,-1,37
 339 315 339 315 296 315 c 256,38,39
 253 315 253 315 222.5 285 c 128,-1,40
 192 255 192 255 192 211 c 0,41,42
 192 168 192 168 222.5 137.5 c 128,-1,43
 253 107 253 107 296 107 c 256,32,33
EndSplineSet
Validated: 33
EndChar

StartChar: uni0394
Encoding: 319 916 167
Width: 715
GlyphClass: 1
Flags: W
HStem: 0 115<229 485> 660 20G<347.706 366.324>
LayerCount: 2
Fore
SplineSet
41 0 m 1,0,-1
 357 680 l 1,1,-1
 674 0 l 1,2,-1
 41 0 l 1,0,-1
229 115 m 1,3,-1
 485 115 l 1,4,-1
 357 418 l 1,5,-1
 229 115 l 1,3,-1
EndSplineSet
Validated: 1
EndChar

StartChar: product
Encoding: 320 8719 168
Width: 614
GlyphClass: 1
Flags: W
HStem: -161 21G<41 169 445 573> 552 116<169 445>
VStem: 41 128<-161 552> 445 128<-161 552>
LayerCount: 2
Fore
SplineSet
41 -161 m 1,0,-1
 41 668 l 1,1,-1
 573 668 l 1,2,-1
 573 -161 l 1,3,-1
 445 -161 l 1,4,-1
 445 552 l 1,5,-1
 169 552 l 1,6,-1
 169 -161 l 1,7,-1
 41 -161 l 1,0,-1
EndSplineSet
Validated: 1
EndChar

StartChar: pi
Encoding: 321 960 169
Width: 626
GlyphClass: 1
Flags: W
HStem: 0 105<526.38 602> 380 116<13 104 232 386 514 602>
VStem: 104 128<0 380> 386 128<113.771 380>
LayerCount: 2
Fore
SplineSet
104 0 m 1,0,-1
 104 380 l 1,1,-1
 13 380 l 1,2,-1
 13 496 l 1,3,-1
 602 496 l 1,4,-1
 602 380 l 1,5,-1
 514 380 l 1,6,-1
 514 151 l 2,7,8
 514 122 514 122 526 113.5 c 128,-1,9
 538 105 538 105 569 105 c 2,10,-1
 602 105 l 1,11,-1
 602 0 l 1,12,-1
 524 0 l 2,13,14
 473 0 473 0 442.5 9 c 128,-1,15
 412 18 412 18 399 43.5 c 128,-1,16
 386 69 386 69 386 118 c 2,17,-1
 386 380 l 1,18,-1
 232 380 l 1,19,-1
 232 0 l 1,20,-1
 104 0 l 1,0,-1
EndSplineSet
Validated: 1
EndChar

StartChar: hungarumlaut
Encoding: 322 733 170
Width: 490
GlyphClass: 1
Flags: W
HStem: 574 153<146.003 151 349.003 354>
LayerCount: 2
Fore
SplineSet
37 574 m 1,0,-1
 146 707 l 2,1,2
 163 727 163 727 189 727 c 0,3,4
 213 727 213 727 229 711 c 128,-1,5
 245 695 245 695 245 671 c 0,6,7
 245 658 245 658 240.5 647 c 128,-1,8
 236 636 236 636 226 629 c 2,9,-1
 151 574 l 1,10,-1
 37 574 l 1,0,-1
240 574 m 1,11,-1
 349 707 l 2,12,13
 366 727 366 727 392 727 c 0,14,15
 416 727 416 727 432 711 c 128,-1,16
 448 695 448 695 448 671 c 0,17,18
 448 658 448 658 443.5 647 c 128,-1,19
 439 636 439 636 429 629 c 2,20,-1
 354 574 l 1,21,-1
 240 574 l 1,11,-1
EndSplineSet
Validated: 1
EndChar

StartChar: tilde
Encoding: 323 732 171
Width: 444
GlyphClass: 1
Flags: W
HStem: 569 79<230.82 329.706> 607 82<130.346 223.822>
LayerCount: 2
Fore
SplineSet
295 569 m 0,0,1
 256 569 256 569 224 585 c 0,2,3
 205 595 205 595 194 601 c 128,-1,4
 183 607 183 607 169 607 c 0,5,6
 153 607 153 607 141 598.5 c 128,-1,7
 129 590 129 590 126 574 c 1,8,-1
 37 574 l 1,9,10
 46 629 46 629 77.5 659 c 128,-1,11
 109 689 109 689 162 689 c 0,12,13
 194 689 194 689 213.5 679 c 128,-1,14
 233 669 233 669 249.5 658.5 c 128,-1,15
 266 648 266 648 286 648 c 0,16,17
 300 648 300 648 309.5 653.5 c 128,-1,18
 319 659 319 659 329 669 c 0,19,20
 347 689 347 689 365 689 c 0,21,22
 384 689 384 689 395.5 677.5 c 128,-1,23
 407 666 407 666 407 649 c 0,24,25
 407 630 407 630 390.5 611.5 c 128,-1,26
 374 593 374 593 348.5 581 c 128,-1,27
 323 569 323 569 295 569 c 0,0,1
EndSplineSet
Validated: 1
EndChar

StartChar: endash
Encoding: 324 8211 172
Width: 508
GlyphClass: 1
Flags: W
HStem: 185 128<41 467>
LayerCount: 2
Fore
SplineSet
41 185 m 1,0,-1
 41 313 l 1,1,-1
 467 313 l 1,2,-1
 467 185 l 1,3,-1
 41 185 l 1,0,-1
EndSplineSet
Validated: 1
EndChar

StartChar: emdash
Encoding: 325 8212 173
Width: 842
GlyphClass: 1
Flags: W
HStem: 185 128<41 801>
LayerCount: 2
Fore
SplineSet
41 185 m 1,0,-1
 41 313 l 1,1,-1
 801 313 l 1,2,-1
 801 185 l 1,3,-1
 41 185 l 1,0,-1
EndSplineSet
Validated: 1
EndChar

StartChar: trademark
Encoding: 326 8482 174
Width: 935
GlyphClass: 1
Flags: W
HStem: 301 367<162 271 415 522 787 894> 575 93<41 162 271 391>
VStem: 162 109<301 575> 415 107<301 558> 787 107<301 558>
LayerCount: 2
Fore
SplineSet
415 301 m 1,0,-1
 415 668 l 1,1,-1
 588 668 l 1,2,-1
 654 432 l 1,3,-1
 721 668 l 1,4,-1
 894 668 l 1,5,-1
 894 301 l 1,6,-1
 787 301 l 1,7,-1
 787 558 l 1,8,-1
 703 301 l 1,9,-1
 606 301 l 1,10,-1
 522 558 l 1,11,-1
 522 301 l 1,12,-1
 415 301 l 1,0,-1
162 301 m 1,13,-1
 162 575 l 1,14,-1
 41 575 l 1,15,-1
 41 668 l 1,16,-1
 391 668 l 1,17,-1
 391 575 l 1,18,-1
 271 575 l 1,19,-1
 271 301 l 1,20,-1
 162 301 l 1,13,-1
EndSplineSet
Validated: 1
EndChar

StartChar: uni2113
Encoding: 327 8467 175
Width: 504
GlyphClass: 1
Flags: W
HStem: -12 122<271.598 384.994> 573 107<266.423 333.651>
VStem: 106 151<129.084 157 265 279.231 373 554.433> 339 124<442.508 569.349>
LayerCount: 2
Fore
SplineSet
285 -12 m 0,0,1
 237 -12 237 -12 197.5 3 c 128,-1,2
 158 18 158 18 134 52.5 c 128,-1,3
 110 87 110 87 106 144 c 1,4,-1
 106 157 l 1,5,-1
 41 112 l 1,6,-1
 41 218 l 1,7,-1
 106 265 l 1,8,-1
 106 452 l 2,9,10
 106 535 106 535 130 585 c 128,-1,11
 154 635 154 635 197 657.5 c 128,-1,12
 240 680 240 680 297 680 c 0,13,14
 374 680 374 680 418.5 641.5 c 128,-1,15
 463 603 463 603 463 532 c 0,16,17
 463 486 463 486 443 445.5 c 128,-1,18
 423 405 423 405 378 362 c 128,-1,19
 333 319 333 319 257 264 c 1,20,-1
 257 191 l 2,21,22
 257 147 257 147 272.5 128.5 c 128,-1,23
 288 110 288 110 319 110 c 0,24,25
 342 110 342 110 362 119 c 128,-1,26
 382 128 382 128 398 141 c 1,27,-1
 455 52 l 1,28,29
 433 32 433 32 390 10 c 128,-1,30
 347 -12 347 -12 285 -12 c 0,0,1
257 373 m 1,31,32
 339 435 339 435 339 521 c 0,33,34
 339 573 339 573 299 573 c 0,35,36
 276 573 276 573 266.5 555 c 128,-1,37
 257 537 257 537 257 501 c 2,38,-1
 257 373 l 1,31,32
EndSplineSet
Validated: 1
EndChar

StartChar: Lslash
Encoding: 328 321 176
Width: 586
GlyphClass: 1
Flags: W
HStem: 0 139<251 571> 648 20G<93 251>
VStem: 93 158<139 226 441 668>
LayerCount: 2
Fore
SplineSet
93 0 m 1,0,-1
 93 226 l 1,1,-1
 13 178 l 1,2,-1
 13 300 l 1,3,-1
 93 347 l 1,4,-1
 93 668 l 1,5,-1
 251 668 l 1,6,-1
 251 441 l 1,7,-1
 411 538 l 1,8,-1
 411 416 l 1,9,-1
 251 321 l 1,10,-1
 251 139 l 1,11,-1
 571 139 l 1,12,-1
 571 0 l 1,13,-1
 93 0 l 1,0,-1
EndSplineSet
Validated: 1
EndChar

StartChar: lslash
Encoding: 329 322 177
Width: 322
GlyphClass: 1
Flags: W
HStem: 0 124<225.928 319> 485 20G<286.077 319> 648 20G<59 212>
VStem: 59 153<134.834 228 440 668>
LayerCount: 2
Fore
SplineSet
224 0 m 2,0,1
 163 0 163 0 127 10.5 c 128,-1,2
 91 21 91 21 75 51 c 128,-1,3
 59 81 59 81 59 139 c 2,4,-1
 59 228 l 1,5,-1
 5 195 l 1,6,-1
 5 317 l 1,7,-1
 59 349 l 1,8,-1
 59 668 l 1,9,-1
 212 668 l 1,10,-1
 212 440 l 1,11,-1
 319 505 l 1,12,-1
 319 383 l 1,13,-1
 212 319 l 1,14,-1
 212 179 l 2,15,16
 212 145 212 145 225.5 134.5 c 128,-1,17
 239 124 239 124 277 124 c 2,18,-1
 319 124 l 1,19,-1
 319 0 l 1,20,-1
 224 0 l 2,0,1
EndSplineSet
Validated: 1
EndChar

StartChar: oslash
Encoding: 248 248 178
Width: 573
GlyphClass: 1
Flags: W
HStem: -12 118<224.009 351.258> 392 118<221.997 341.356>
VStem: 24 155<194.39 347.63> 394 155<150.206 315.344>
LayerCount: 2
Fore
SplineSet
287 -12 m 0,0,1
 247 -12 247 -12 208.5 -2 c 128,-1,2
 170 8 170 8 138 27 c 1,3,-1
 92 -26 l 1,4,-1
 36 22 l 1,5,-1
 82 75 l 1,6,7
 55 107 55 107 39.5 150.5 c 128,-1,8
 24 194 24 194 24 250 c 0,9,10
 24 340 24 340 61 397.5 c 128,-1,11
 98 455 98 455 158 482.5 c 128,-1,12
 218 510 218 510 287 510 c 0,13,14
 325 510 325 510 360.5 501.5 c 128,-1,15
 396 493 396 493 427 476 c 1,16,-1
 469 524 l 1,17,-1
 525 476 l 1,18,-1
 486 431 l 1,19,20
 515 399 515 399 532 354 c 128,-1,21
 549 309 549 309 549 250 c 0,22,23
 549 160 549 160 512 102 c 128,-1,24
 475 44 475 44 415 16 c 128,-1,25
 355 -12 355 -12 287 -12 c 0,0,1
185 194 m 1,26,-1
 342 377 l 1,27,28
 318 392 318 392 287 392 c 0,29,30
 242 392 242 392 210.5 360 c 128,-1,31
 179 328 179 328 179 250 c 0,32,33
 179 218 179 218 185 194 c 1,26,-1
287 106 m 0,34,35
 333 106 333 106 363.5 139 c 128,-1,36
 394 172 394 172 394 250 c 0,37,38
 394 270 394 270 392 286 c 128,-1,39
 390 302 390 302 386 316 c 1,40,-1
 223 126 l 1,41,42
 249 106 249 106 287 106 c 0,34,35
EndSplineSet
Validated: 1
EndChar

StartChar: Oslash
Encoding: 216 216 179
Width: 763
GlyphClass: 1
Flags: W
HStem: -12 130<297.415 465.092> 549 130<297.445 466.338>
VStem: 35 167<222.423 445.932> 560 168<221.765 445.742>
LayerCount: 2
Fore
SplineSet
380 -12 m 0,0,1
 322 -12 322 -12 270 3 c 128,-1,2
 218 18 218 18 176 46 c 1,3,-1
 126 -12 l 1,4,-1
 70 36 l 1,5,-1
 120 95 l 1,6,7
 80 139 80 139 57.5 200 c 128,-1,8
 35 261 35 261 35 334 c 0,9,10
 35 438 35 438 79 515.5 c 128,-1,11
 123 593 123 593 200.5 636 c 128,-1,12
 278 679 278 679 380 679 c 0,13,14
 437 679 437 679 487 665.5 c 128,-1,15
 537 652 537 652 578 626 c 1,16,-1
 623 679 l 1,17,-1
 679 631 l 1,18,-1
 635 579 l 1,19,20
 679 534 679 534 703.5 471.5 c 128,-1,21
 728 409 728 409 728 334 c 0,22,23
 728 230 728 230 683.5 152 c 128,-1,24
 639 74 639 74 561 31 c 128,-1,25
 483 -12 483 -12 380 -12 c 0,0,1
226 217 m 1,26,-1
 483 516 l 1,27,28
 440 549 440 549 380 549 c 0,29,30
 332 549 332 549 291.5 524.5 c 128,-1,31
 251 500 251 500 226.5 452.5 c 128,-1,32
 202 405 202 405 202 334 c 0,33,34
 202 300 202 300 208.5 270.5 c 128,-1,35
 215 241 215 241 226 217 c 1,26,-1
380 118 m 0,36,37
 429 118 429 118 470 142.5 c 128,-1,38
 511 167 511 167 535.5 215 c 128,-1,39
 560 263 560 263 560 334 c 0,40,41
 560 408 560 408 532 459 c 1,42,-1
 272 157 l 1,43,44
 295 138 295 138 322 128 c 128,-1,45
 349 118 349 118 380 118 c 0,36,37
EndSplineSet
Validated: 1
EndChar

StartChar: Thorn
Encoding: 330 222 180
Width: 615
GlyphClass: 1
Flags: W
HStem: 0 21G<44 203> 128 141<203 400.979> 425 137<203 400.979> 647 20G<44 203>
VStem: 44 159<0 128 269 425 562 667> 426 167<294.539 399.5>
LayerCount: 2
Fore
SplineSet
44 0 m 1,0,-1
 44 667 l 1,1,-1
 203 667 l 1,2,-1
 203 562 l 1,3,-1
 291 562 l 2,4,5
 377 562 377 562 445.5 544 c 128,-1,6
 514 526 514 526 553.5 478.5 c 128,-1,7
 593 431 593 431 593 343 c 0,8,9
 593 257 593 257 553.5 210 c 128,-1,10
 514 163 514 163 445.5 145.5 c 128,-1,11
 377 128 377 128 291 128 c 2,12,-1
 203 128 l 1,13,-1
 203 0 l 1,14,-1
 44 0 l 1,0,-1
203 269 m 1,15,-1
 296 269 l 2,16,17
 332 269 332 269 361.5 274 c 128,-1,18
 391 279 391 279 408.5 295.5 c 128,-1,19
 426 312 426 312 426 346 c 0,20,21
 426 382 426 382 408.5 398.5 c 128,-1,22
 391 415 391 415 361.5 420 c 128,-1,23
 332 425 332 425 296 425 c 2,24,-1
 203 425 l 1,25,-1
 203 269 l 1,15,-1
EndSplineSet
Validated: 1
EndChar

StartChar: ae
Encoding: 230 230 181
Width: 883
GlyphClass: 1
Flags: W
HStem: -12 118<537.786 689.935> -12 103<196.66 322.128> 209 90<201.026 353 493 719> 396 114<535.319 681.662> 407 103<206.417 333.445>
VStem: 24 157<105.793 188.364>
LayerCount: 2
Fore
SplineSet
207 -12 m 0,0,1
 161 -12 161 -12 119 4.5 c 128,-1,2
 77 21 77 21 50.5 54 c 128,-1,3
 24 87 24 87 24 135 c 0,4,5
 24 166 24 166 38 195.5 c 128,-1,6
 52 225 52 225 88 248.5 c 128,-1,7
 124 272 124 272 188.5 286 c 128,-1,8
 253 300 253 300 353 300 c 1,9,-1
 353 329 l 2,10,11
 353 372 353 372 331.5 389.5 c 128,-1,12
 310 407 310 407 270 407 c 0,13,14
 239 407 239 407 215.5 392.5 c 128,-1,15
 192 378 192 378 184 348 c 1,16,-1
 56 394 l 1,17,18
 81 444 81 444 139.5 477 c 128,-1,19
 198 510 198 510 283 510 c 0,20,21
 336 510 336 510 377.5 499 c 128,-1,22
 419 488 419 488 447 462 c 1,23,24
 515 510 515 510 605 510 c 0,25,26
 687 510 687 510 746.5 471.5 c 128,-1,27
 806 433 806 433 836 365 c 128,-1,28
 866 297 866 297 861 209 c 1,29,-1
 493 209 l 1,30,31
 496 157 496 157 531 131.5 c 128,-1,32
 566 106 566 106 607 106 c 0,33,34
 643 106 643 106 668.5 116.5 c 128,-1,35
 694 127 694 127 709 143 c 1,36,-1
 829 99 l 1,37,38
 790 41 790 41 731.5 14.5 c 128,-1,39
 673 -12 673 -12 612 -12 c 0,40,41
 481 -12 481 -12 405 67 c 1,42,43
 364 18 364 18 312.5 3 c 128,-1,44
 261 -12 261 -12 207 -12 c 0,0,1
492 299 m 1,45,-1
 719 299 l 1,46,47
 718 347 718 347 686 371.5 c 128,-1,48
 654 396 654 396 609 396 c 0,49,50
 567 396 567 396 533 373 c 128,-1,51
 499 350 499 350 492 299 c 1,45,-1
251 91 m 0,52,53
 296 91 296 91 326 115.5 c 128,-1,54
 356 140 356 140 356 201 c 2,55,-1
 356 209 l 1,56,57
 274 210 274 210 227.5 198.5 c 128,-1,58
 181 187 181 187 181 148 c 0,59,60
 181 121 181 121 200 106 c 128,-1,61
 219 91 219 91 251 91 c 0,52,53
EndSplineSet
Validated: 33
EndChar

StartChar: eth
Encoding: 331 240 182
Width: 589
GlyphClass: 1
Flags: W
HStem: -12 113<220.262 352.47> 338 114<219.876 352.799> 604 122<163 274.496>
VStem: 24 156<142.173 295.781> 394 160<167.193 384.117 403 472.771>
LayerCount: 2
Fore
SplineSet
286 -12 m 0,0,1
 210 -12 210 -12 151 16.5 c 128,-1,2
 92 45 92 45 58 97 c 128,-1,3
 24 149 24 149 24 220 c 0,4,5
 24 288 24 288 56 340 c 128,-1,6
 88 392 88 392 140.5 422 c 128,-1,7
 193 452 193 452 253 452 c 0,8,9
 303 452 303 452 337 439 c 128,-1,10
 371 426 371 426 396 403 c 1,11,12
 395 494 395 494 334 547 c 1,13,-1
 271 483 l 1,14,-1
 223 530 l 1,15,-1
 276 583 l 1,16,17
 228 604 228 604 163 604 c 1,18,-1
 163 726 l 1,19,20
 228 726 228 726 279 713.5 c 128,-1,21
 330 701 330 701 370 678 c 1,22,-1
 426 734 l 1,23,-1
 474 686 l 1,24,-1
 426 639 l 1,25,26
 470 606 470 606 498.5 554 c 128,-1,27
 527 502 527 502 540.5 441 c 128,-1,28
 554 380 554 380 554 318 c 0,29,30
 554 225 554 225 526.5 150.5 c 128,-1,31
 499 76 499 76 440 32 c 128,-1,32
 381 -12 381 -12 286 -12 c 0,0,1
286 101 m 256,33,34
 335 101 335 101 364.5 133.5 c 128,-1,35
 394 166 394 166 394 220 c 256,36,37
 394 274 394 274 364 306 c 128,-1,38
 334 338 334 338 286 338 c 0,39,40
 237 338 237 338 208.5 305 c 128,-1,41
 180 272 180 272 180 220 c 0,42,43
 180 166 180 166 208.5 133.5 c 128,-1,44
 237 101 237 101 286 101 c 256,33,34
EndSplineSet
Validated: 1
EndChar

StartChar: thorn
Encoding: 332 254 183
Width: 596
GlyphClass: 1
Flags: W
HStem: -161 21G<50 202> -12 118<268.081 365.802> 392 118<266.793 364.702> 648 20G<50 202>
VStem: 50 152<-161 70 428 668> 50 145<154.262 345.783> 414 158<156.741 337.787>
LayerCount: 2
Fore
SplineSet
50 -161 m 1,0,-1
 50 668 l 1,1,-1
 202 668 l 1,2,-1
 202 428 l 1,3,4
 226 469 226 469 269.5 489.5 c 128,-1,5
 313 510 313 510 353 510 c 0,6,7
 417 510 417 510 466.5 478 c 128,-1,8
 516 446 516 446 544 387 c 128,-1,9
 572 328 572 328 572 247 c 256,10,11
 572 166 572 166 544 108 c 128,-1,12
 516 50 516 50 466.5 19 c 128,-1,13
 417 -12 417 -12 353 -12 c 0,14,15
 313 -12 313 -12 269.5 9 c 128,-1,16
 226 30 226 30 202 70 c 1,17,-1
 202 -161 l 1,18,-1
 50 -161 l 1,0,-1
305 106 m 0,19,20
 349 106 349 106 381.5 142 c 128,-1,21
 414 178 414 178 414 247 c 0,22,23
 414 315 414 315 381.5 353.5 c 128,-1,24
 349 392 349 392 305 392 c 0,25,26
 260 392 260 392 227.5 359.5 c 128,-1,27
 195 327 195 327 195 251 c 0,28,29
 195 174 195 174 227.5 140 c 128,-1,30
 260 106 260 106 305 106 c 0,19,20
EndSplineSet
Validated: 1
EndChar

StartChar: multiply
Encoding: 333 215 184
Width: 539
GlyphClass: 1
Flags: W
LayerCount: 2
Fore
SplineSet
135 22 m 1,0,-1
 44 112 l 1,1,-1
 180 248 l 1,2,-1
 41 385 l 1,3,-1
 132 476 l 1,4,-1
 270 337 l 1,5,-1
 407 476 l 1,6,-1
 498 385 l 1,7,-1
 359 248 l 1,8,-1
 495 112 l 1,9,-1
 404 22 l 1,10,-1
 270 158 l 1,11,-1
 135 22 l 1,0,-1
EndSplineSet
Validated: 1
EndChar

StartChar: divide
Encoding: 334 247 185
Width: 594
GlyphClass: 1
Flags: W
HStem: -12 159<243.722 350.278> 186 128<41 553> 351 159<243.722 350.278>
VStem: 218 158<13.724 121.278 376.724 484.822>
LayerCount: 2
Fore
SplineSet
297 351 m 256,0,1
 265 351 265 351 241.5 374.5 c 128,-1,2
 218 398 218 398 218 431 c 256,3,4
 218 464 218 464 241.5 487 c 128,-1,5
 265 510 265 510 297 510 c 256,6,7
 329 510 329 510 352.5 487 c 128,-1,8
 376 464 376 464 376 431 c 256,9,10
 376 398 376 398 352.5 374.5 c 128,-1,11
 329 351 329 351 297 351 c 256,0,1
41 186 m 1,12,-1
 41 314 l 1,13,-1
 553 314 l 1,14,-1
 553 186 l 1,15,-1
 41 186 l 1,12,-1
297 -12 m 256,16,17
 265 -12 265 -12 241.5 11.5 c 128,-1,18
 218 35 218 35 218 68 c 0,19,20
 218 100 218 100 241.5 123.5 c 128,-1,21
 265 147 265 147 297 147 c 256,22,23
 329 147 329 147 352.5 123.5 c 128,-1,24
 376 100 376 100 376 68 c 0,25,26
 376 35 376 35 352.5 11.5 c 128,-1,27
 329 -12 329 -12 297 -12 c 256,16,17
EndSplineSet
Validated: 1
EndChar

StartChar: OE
Encoding: 335 338 186
Width: 1061
GlyphClass: 1
Flags: W
HStem: -12 130<296.748 465.75> 0 139<683 1039> 275 138<683 901> 528 140<683 1039> 549 131<296.101 466.397>
VStem: 35 167<221.437 446.235> 561 122<221.09 275>
LayerCount: 2
Fore
SplineSet
381 -12 m 256,0,1
 279 -12 279 -12 201 31 c 128,-1,2
 123 74 123 74 79 151.5 c 128,-1,3
 35 229 35 229 35 334 c 0,4,5
 35 438 35 438 79 516 c 128,-1,6
 123 594 123 594 201 637 c 128,-1,7
 279 680 279 680 381 680 c 256,8,9
 483 680 483 680 561 637 c 1,10,-1
 561 668 l 1,11,-1
 1039 668 l 1,12,-1
 1039 528 l 1,13,-1
 683 528 l 1,14,-1
 683 413 l 1,15,-1
 901 413 l 1,16,-1
 901 275 l 1,17,-1
 683 275 l 1,18,-1
 683 139 l 1,19,-1
 1039 139 l 1,20,-1
 1039 0 l 1,21,-1
 561 0 l 1,22,-1
 561 31 l 1,23,24
 483 -12 483 -12 381 -12 c 256,0,1
381 118 m 0,25,26
 430 118 430 118 471 142.5 c 128,-1,27
 512 167 512 167 536.5 215 c 128,-1,28
 561 263 561 263 561 334 c 256,29,30
 561 405 561 405 536.5 453 c 128,-1,31
 512 501 512 501 471 525 c 128,-1,32
 430 549 430 549 381 549 c 0,33,34
 333 549 333 549 292 525 c 128,-1,35
 251 501 251 501 226.5 453 c 128,-1,36
 202 405 202 405 202 334 c 256,37,38
 202 263 202 263 226.5 215 c 128,-1,39
 251 167 251 167 292 142.5 c 128,-1,40
 333 118 333 118 381 118 c 0,25,26
EndSplineSet
Validated: 1
EndChar

StartChar: oe
Encoding: 336 339 187
Width: 937
GlyphClass: 1
Flags: W
HStem: -12 118<222.21 351.075 591.4 745.684> 209 90<547 773> 392 118<221.997 350.706 583.805 741.055>
VStem: 24 155<151.934 347.63>
LayerCount: 2
Fore
SplineSet
287 -12 m 0,0,1
 218 -12 218 -12 158 16 c 128,-1,2
 98 44 98 44 61 102 c 128,-1,3
 24 160 24 160 24 250 c 256,4,5
 24 340 24 340 61 397.5 c 128,-1,6
 98 455 98 455 158 482.5 c 128,-1,7
 218 510 218 510 287 510 c 0,8,9
 340 510 340 510 389 493 c 128,-1,10
 438 476 438 476 475 441 c 1,11,12
 511 474 511 474 558.5 492 c 128,-1,13
 606 510 606 510 660 510 c 0,14,15
 742 510 742 510 801 471 c 128,-1,16
 860 432 860 432 890 364.5 c 128,-1,17
 920 297 920 297 915 209 c 1,18,-1
 547 209 l 1,19,20
 551 157 551 157 585.5 131.5 c 128,-1,21
 620 106 620 106 661 106 c 0,22,23
 698 106 698 106 723 116 c 128,-1,24
 748 126 748 126 763 143 c 1,25,-1
 884 99 l 1,26,27
 845 41 845 41 786.5 14.5 c 128,-1,28
 728 -12 728 -12 666 -12 c 0,29,30
 545 -12 545 -12 473 55 c 1,31,32
 436 21 436 21 387.5 4.5 c 128,-1,33
 339 -12 339 -12 287 -12 c 0,0,1
547 299 m 1,34,-1
 773 299 l 1,35,36
 772 347 772 347 740.5 371.5 c 128,-1,37
 709 396 709 396 664 396 c 0,38,39
 621 396 621 396 587.5 373 c 128,-1,40
 554 350 554 350 547 299 c 1,34,-1
287 106 m 256,41,42
 333 106 333 106 363.5 139 c 128,-1,43
 394 172 394 172 394 250 c 256,44,45
 394 328 394 328 362.5 360 c 128,-1,46
 331 392 331 392 287 392 c 0,47,48
 242 392 242 392 210.5 360 c 128,-1,49
 179 328 179 328 179 250 c 256,50,51
 179 172 179 172 210 139 c 128,-1,52
 241 106 241 106 287 106 c 256,41,42
EndSplineSet
Validated: 33
EndChar

StartChar: Eth
Encoding: 343 208 248
Width: 773
GlyphClass: 2
Flags: W
HStem: 0 133<289 483.444> 275 137<13 131 289 366> 537 131<289 481.188>
VStem: 131 158<133 275 412 537> 575 163<221.226 447.903>
AnchorPoint: "Anchor-1" 430 0 basechar 0
AnchorPoint: "Anchor-0" 420 668 basechar 0
LayerCount: 2
Fore
SplineSet
131 0 m 1,0,-1
 131 275 l 1,1,-1
 13 275 l 1,2,-1
 13 412 l 1,3,-1
 131 412 l 1,4,-1
 131 668 l 1,5,-1
 351 668 l 2,6,7
 433 668 433 668 503.5 651.5 c 128,-1,8
 574 635 574 635 626.5 596.5 c 128,-1,9
 679 558 679 558 708.5 493.5 c 128,-1,10
 738 429 738 429 738 334 c 0,11,12
 738 238 738 238 708.5 174 c 128,-1,13
 679 110 679 110 626.5 71.5 c 128,-1,14
 574 33 574 33 503.5 16.5 c 128,-1,15
 433 0 433 0 351 0 c 2,16,-1
 131 0 l 1,0,-1
289 133 m 1,17,-1
 354 133 l 2,18,19
 397 133 397 133 436.5 140 c 128,-1,20
 476 147 476 147 507.5 167.5 c 128,-1,21
 539 188 539 188 557 228 c 128,-1,22
 575 268 575 268 575 334 c 256,23,24
 575 400 575 400 557 440.5 c 128,-1,25
 539 481 539 481 507.5 501.5 c 128,-1,26
 476 522 476 522 436.5 529.5 c 128,-1,27
 397 537 397 537 354 537 c 2,28,-1
 289 537 l 1,29,-1
 289 412 l 1,30,-1
 366 412 l 1,31,-1
 366 275 l 1,32,-1
 289 275 l 1,33,-1
 289 133 l 1,17,-1
EndSplineSet
Validated: 1
EndChar

StartChar: one.tf
Encoding: 345 -1 250
Width: 632
GlyphClass: 1
Flags: W
HStem: 0 124<101 253 404 532> 448 123<101 234.204> 648 20G<280 404>
VStem: 253 151<124 448>
LayerCount: 2
Fore
SplineSet
101 0 m 1,0,-1
 101 124 l 1,1,-1
 253 124 l 1,2,-1
 253 448 l 1,3,-1
 101 448 l 1,4,-1
 101 571 l 1,5,6
 154 571 154 571 189 576.5 c 128,-1,7
 224 582 224 582 247.5 602.5 c 128,-1,8
 271 623 271 623 289 668 c 1,9,-1
 404 668 l 1,10,-1
 404 124 l 1,11,-1
 532 124 l 1,12,-1
 532 0 l 1,13,-1
 101 0 l 1,0,-1
EndSplineSet
Validated: 1
Substitution2: "'pnum' Proportional Numbers lookup 13 subtable" one
Substitution2: "'aalt' Access All Alternates lookup 0 subtable" one
EndChar

StartChar: eogonek
Encoding: 363 281 268
Width: 566
GlyphClass: 2
Flags: W
HStem: -174 76<320.368 406.732> 210 90<177 403> 397 113<220.239 366.039>
VStem: 186 126<-92.8991 -33.4974>
AnchorPoint: "Anchor-2" 509 10 basechar 0
AnchorPoint: "Anchor-1" 283 0 basechar 0
AnchorPoint: "Anchor-0" 283 496 basechar 0
LayerCount: 2
Fore
SplineSet
328 -174 m 0,0,1
 274 -174 274 -174 243 -159.5 c 128,-1,2
 212 -145 212 -145 199 -124.5 c 128,-1,3
 186 -104 186 -104 186 -85 c 0,4,5
 186 -57 186 -57 203.5 -38 c 128,-1,6
 221 -19 221 -19 244 -8 c 1,7,8
 145 6 145 6 84.5 74 c 128,-1,9
 24 142 24 142 24 251 c 0,10,11
 24 330 24 330 60.5 388 c 128,-1,12
 97 446 97 446 157.5 478 c 128,-1,13
 218 510 218 510 290 510 c 0,14,15
 372 510 372 510 430.5 471.5 c 128,-1,16
 489 433 489 433 519 365.5 c 128,-1,17
 549 298 549 298 544 210 c 1,18,-1
 177 210 l 1,19,20
 181 158 181 158 215.5 132 c 128,-1,21
 250 106 250 106 292 106 c 0,22,23
 327 106 327 106 352.5 116.5 c 128,-1,24
 378 127 378 127 392 143 c 1,25,-1
 513 99 l 1,26,27
 491 67 491 67 462 44.5 c 128,-1,28
 433 22 433 22 400 8 c 0,29,30
 366 -8 366 -8 339 -27 c 128,-1,31
 312 -46 312 -46 312 -68 c 0,32,33
 312 -86 312 -86 327 -92 c 128,-1,34
 342 -98 342 -98 358 -98 c 0,35,36
 373 -98 373 -98 387 -94 c 128,-1,37
 401 -90 401 -90 407 -89 c 1,38,-1
 407 -164 l 1,39,40
 396 -168 396 -168 371.5 -171 c 128,-1,41
 347 -174 347 -174 328 -174 c 0,0,1
177 300 m 1,42,-1
 403 300 l 1,43,44
 402 348 402 348 370 372.5 c 128,-1,45
 338 397 338 397 294 397 c 0,46,47
 251 397 251 397 217.5 374 c 128,-1,48
 184 351 184 351 177 300 c 1,42,-1
EndSplineSet
Validated: 33
EndChar

StartChar: uogonek
Encoding: 383 371 290
Width: 571
GlyphClass: 1
Flags: W
HStem: -174 76<433.368 519.732> -12 118<189 310.27> 476 20G<50 202 366 519>
VStem: 50 152<125.488 496> 299 126<-92.8991 -38.8413> 366 153<133.253 496>
LayerCount: 2
Fore
SplineSet
222 -12 m 0,0,1
 156 -12 156 -12 118.5 12.5 c 128,-1,2
 81 37 81 37 65.5 84 c 128,-1,3
 50 131 50 131 50 198 c 2,4,-1
 50 496 l 1,5,-1
 202 496 l 1,6,-1
 202 236 l 2,7,8
 202 201 202 201 205.5 171 c 128,-1,9
 209 141 209 141 225 123.5 c 128,-1,10
 241 106 241 106 278 106 c 0,11,12
 326 106 326 106 346 136 c 128,-1,13
 366 166 366 166 366 235 c 2,14,-1
 366 496 l 1,15,-1
 519 496 l 1,16,-1
 519 0 l 1,17,-1
 520 0 l 1,18,19
 486 -17 486 -17 455.5 -33.5 c 128,-1,20
 425 -50 425 -50 425 -68 c 256,21,22
 425 -86 425 -86 440 -92 c 128,-1,23
 455 -98 455 -98 471 -98 c 0,24,25
 486 -98 486 -98 500 -94 c 128,-1,26
 514 -90 514 -90 520 -89 c 1,27,-1
 520 -164 l 1,28,29
 509 -168 509 -168 484.5 -171 c 128,-1,30
 460 -174 460 -174 441 -174 c 0,31,32
 387 -174 387 -174 356 -159.5 c 128,-1,33
 325 -145 325 -145 312 -124.5 c 128,-1,34
 299 -104 299 -104 299 -85 c 0,35,36
 299 -63 299 -63 312.5 -45 c 128,-1,37
 326 -27 326 -27 346 -15 c 128,-1,38
 366 -3 366 -3 386 2 c 1,39,-1
 366 70 l 1,40,41
 344 33 344 33 311.5 10.5 c 128,-1,42
 279 -12 279 -12 222 -12 c 0,0,1
EndSplineSet
Validated: 1
EndChar

StartChar: Hbar
Encoding: 392 294 299
Width: 740
GlyphClass: 2
Flags: W
HStem: 0 21G<75 233 508 666> 274 139<233 508> 496 98<15 75 233 508 666 725> 648 20G<75 233 508 666>
VStem: 75 158<0 274 413 496 594 668> 508 158<0 274 413 496 594 668>
AnchorPoint: "Anchor-1" 371 0 basechar 0
AnchorPoint: "Anchor-0" 371 668 basechar 0
LayerCount: 2
Fore
SplineSet
75 0 m 1,0,-1
 75 496 l 1,1,-1
 15 496 l 1,2,-1
 15 594 l 1,3,-1
 75 594 l 1,4,-1
 75 668 l 1,5,-1
 233 668 l 1,6,-1
 233 594 l 1,7,-1
 508 594 l 1,8,-1
 508 668 l 1,9,-1
 666 668 l 1,10,-1
 666 594 l 1,11,-1
 725 594 l 1,12,-1
 725 496 l 1,13,-1
 666 496 l 1,14,-1
 666 0 l 1,15,-1
 508 0 l 1,16,-1
 508 274 l 1,17,-1
 233 274 l 1,18,-1
 233 0 l 1,19,-1
 75 0 l 1,0,-1
233 413 m 1,20,-1
 508 413 l 1,21,-1
 508 496 l 1,22,-1
 233 496 l 1,23,-1
 233 413 l 1,20,-1
EndSplineSet
Validated: 1
EndChar

StartChar: hbar
Encoding: 393 295 300
Width: 629
GlyphClass: 1
Flags: W
HStem: 0 21G<107 259 427 579> 392 118<322.68 460> 555 78<13 107 259 382>
VStem: 107 152<0 357.493 430 555 633 698> 427 152<0 371.07>
LayerCount: 2
Fore
SplineSet
107 0 m 1,0,-1
 107 555 l 1,1,-1
 13 555 l 1,2,-1
 13 633 l 1,3,-1
 107 633 l 1,4,-1
 107 698 l 1,5,-1
 259 698 l 1,6,-1
 259 633 l 1,7,-1
 382 633 l 1,8,-1
 382 555 l 1,9,-1
 259 555 l 1,10,-1
 259 430 l 1,11,12
 276 458 276 458 315.5 484 c 128,-1,13
 355 510 355 510 412 510 c 0,14,15
 508 510 508 510 543.5 456.5 c 128,-1,16
 579 403 579 403 579 302 c 2,17,-1
 579 0 l 1,18,-1
 427 0 l 1,19,-1
 427 264 l 2,20,21
 427 299 427 299 423 328 c 128,-1,22
 419 357 419 357 403.5 374.5 c 128,-1,23
 388 392 388 392 351 392 c 0,24,25
 303 392 303 392 281 357.5 c 128,-1,26
 259 323 259 323 259 255 c 2,27,-1
 259 0 l 1,28,-1
 107 0 l 1,0,-1
EndSplineSet
Validated: 1
EndChar

StartChar: dcroat
Encoding: 410 273 319
Width: 632
GlyphClass: 1
Flags: W
HStem: -12 118<231.329 333.157> 0 21G<412.03 563> 392 118<230.222 329.591> 555 78<243 394 546 612>
VStem: 24 158<159.579 341.684> 394 152<428 555 633 698> 401 145<152.922 344.443>
LayerCount: 2
Fore
SplineSet
243 -12 m 0,0,1
 179 -12 179 -12 129.5 20 c 128,-1,2
 80 52 80 52 52 111.5 c 128,-1,3
 24 171 24 171 24 252 c 256,4,5
 24 333 24 333 52 390.5 c 128,-1,6
 80 448 80 448 129.5 479 c 128,-1,7
 179 510 179 510 243 510 c 0,8,9
 284 510 284 510 327 489.5 c 128,-1,10
 370 469 370 469 394 428 c 1,11,-1
 394 555 l 1,12,-1
 243 555 l 1,13,-1
 243 633 l 1,14,-1
 394 633 l 1,15,-1
 394 698 l 1,16,-1
 546 698 l 1,17,-1
 546 633 l 1,18,-1
 612 633 l 1,19,-1
 612 555 l 1,20,-1
 546 555 l 1,21,-1
 546 194 l 2,22,23
 546 157 546 157 549.5 106 c 128,-1,24
 553 55 553 55 563 0 c 1,25,-1
 418 0 l 1,26,-1
 398 67 l 1,27,28
 367 24 367 24 325.5 6 c 128,-1,29
 284 -12 284 -12 243 -12 c 0,0,1
292 106 m 0,30,31
 336 106 336 106 368.5 139 c 128,-1,32
 401 172 401 172 401 249 c 0,33,34
 401 325 401 325 368.5 358.5 c 128,-1,35
 336 392 336 392 292 392 c 0,36,37
 247 392 247 392 214.5 356 c 128,-1,38
 182 320 182 320 182 252 c 0,39,40
 182 183 182 183 214.5 144.5 c 128,-1,41
 247 106 247 106 292 106 c 0,30,31
EndSplineSet
Validated: 1
EndChar

StartChar: acutecomb
Encoding: 423 769 332
Width: 0
GlyphClass: 4
Flags: W
HStem: 574 153<108.376 143.382>
VStem: 0 208
AnchorPoint: "Anchor-4" 104 727 basemark 0
AnchorPoint: "Anchor-4" 68 496 mark 0
AnchorPoint: "Anchor-0" 68 496 mark 0
LayerCount: 2
Fore
SplineSet
0 574 m 1,0,1
 28 608 28 608 55.5 641.5 c 128,-1,2
 83 675 83 675 111 709 c 0,3,4
 126 727 126 727 152 727 c 0,5,6
 176 727 176 727 192 711 c 128,-1,7
 208 695 208 695 208 671 c 0,8,9
 208 645 208 645 189 629 c 0,10,11
 170 616 170 616 151.5 602 c 128,-1,12
 133 588 133 588 114 574 c 1,13,-1
 0 574 l 1,0,1
EndSplineSet
Validated: 1
Substitution2: "'case' Case-Sensitive Forms lookup 15 subtable" acutecomb.case
Substitution2: "Single Substitution lookup 7 subtable" acutecomb.case
Substitution2: "Single Substitution lookup 6 subtable" acutecomb.case
Substitution2: "Single Substitution lookup 4 subtable" acutecomb.case
Substitution2: "Single Substitution lookup 3 subtable" acutecomb.case
Substitution2: "'aalt' Access All Alternates lookup 0 subtable" acutecomb.case
EndChar

StartChar: acutecomb.case
Encoding: 424 -1 333
Width: 0
GlyphClass: 4
Flags: W
HStem: 731 154<118.063 154.077>
VStem: 0 218
AnchorPoint: "Anchor-4" 109 885 basemark 0
AnchorPoint: "Anchor-4" 70 668 mark 0
AnchorPoint: "Anchor-0" 70 668 mark 0
LayerCount: 2
Fore
SplineSet
0 731 m 1,0,1
 30 765 30 765 59.5 798 c 128,-1,2
 89 831 89 831 119 865 c 0,3,4
 139 885 139 885 162 885 c 256,5,6
 185 885 185 885 201.5 868.5 c 128,-1,7
 218 852 218 852 218 829 c 0,8,9
 218 816 218 816 213 805.5 c 128,-1,10
 208 795 208 795 199 786 c 0,11,12
 180 773 180 773 162 759 c 128,-1,13
 144 745 144 745 125 731 c 1,14,-1
 0 731 l 1,0,1
EndSplineSet
Validated: 1
EndChar

StartChar: uni0306
Encoding: 425 774 334
Width: 0
GlyphClass: 4
Flags: W
HStem: 569 77<97.0464 190.551>
VStem: 0 287
AnchorPoint: "Anchor-4" 144 689 basemark 0
AnchorPoint: "Anchor-4" 144 496 mark 0
AnchorPoint: "Anchor-0" 144 496 mark 0
LayerCount: 2
Fore
SplineSet
143 569 m 0,0,1
 90 569 90 569 49.5 603.5 c 128,-1,2
 9 638 9 638 0 689 c 1,3,-1
 85 689 l 1,4,5
 89 673 89 673 105 659.5 c 128,-1,6
 121 646 121 646 143 646 c 0,7,8
 166 646 166 646 182 659.5 c 128,-1,9
 198 673 198 673 202 689 c 1,10,-1
 287 689 l 1,11,12
 278 638 278 638 237.5 603.5 c 128,-1,13
 197 569 197 569 143 569 c 0,0,1
EndSplineSet
Validated: 1
Substitution2: "'case' Case-Sensitive Forms lookup 15 subtable" uni0306.case
Substitution2: "Single Substitution lookup 7 subtable" uni0306.case
Substitution2: "Single Substitution lookup 6 subtable" uni0306.case
Substitution2: "Single Substitution lookup 4 subtable" uni0306.case
Substitution2: "Single Substitution lookup 3 subtable" uni0306.case
Substitution2: "'aalt' Access All Alternates lookup 0 subtable" uni0306.case
EndChar

StartChar: uni030C
Encoding: 427 780 336
Width: 0
GlyphClass: 4
Flags: W
HStem: 568 152
AnchorPoint: "Anchor-4" 197 720 basemark 0
AnchorPoint: "Anchor-4" 197 496 mark 0
AnchorPoint: "Anchor-0" 197 496 mark 0
LayerCount: 2
Fore
SplineSet
197 568 m 0,0,1
 168 568 168 568 147 587 c 2,2,-1
 0 720 l 1,3,-1
 129 720 l 1,4,-1
 197 659 l 1,5,-1
 265 720 l 1,6,-1
 393 720 l 1,7,-1
 247 587 l 2,8,9
 225 568 225 568 197 568 c 0,0,1
EndSplineSet
Validated: 1
Substitution2: "'case' Case-Sensitive Forms lookup 15 subtable" uni030C.case
Substitution2: "Single Substitution lookup 7 subtable" uni030C.case
Substitution2: "Single Substitution lookup 6 subtable" uni030C.case
Substitution2: "Single Substitution lookup 4 subtable" uni030C.case
Substitution2: "Single Substitution lookup 3 subtable" uni030C.case
Substitution2: "'aalt' Access All Alternates lookup 0 subtable" uni030C.case
EndChar

StartChar: uni030C.alt
Encoding: 428 -1 337
Width: 0
GlyphClass: 1
Flags: W
HStem: 496 192<55.064 100>
VStem: 44 111<614 668.922>
LayerCount: 2
Fore
SplineSet
20 496 m 1,0,1
 26 532 26 532 32 568.5 c 128,-1,2
 38 605 38 605 44 641 c 0,3,4
 48 664 48 664 65.5 676 c 128,-1,5
 83 688 83 688 100 688 c 0,6,7
 126 688 126 688 140.5 669.5 c 128,-1,8
 155 651 155 651 155 631 c 0,9,10
 155 622 155 622 152 614 c 2,11,-1
 100 496 l 1,12,-1
 20 496 l 1,0,1
EndSplineSet
Validated: 1
EndChar

StartChar: uni0327
Encoding: 430 807 339
Width: 0
GlyphClass: 4
Flags: W
HStem: -187 50<16.2523 107.593>
VStem: 121 94<-132.33 -88.5135>
AnchorPoint: "Anchor-3" 108 -187 basemark 0
AnchorPoint: "Anchor-3" 108 0 mark 0
AnchorPoint: "Anchor-1" 108 0 mark 0
LayerCount: 2
Fore
SplineSet
88 -187 m 0,0,1
 64 -187 64 -187 41.5 -183.5 c 128,-1,2
 19 -180 19 -180 0 -174 c 1,3,-1
 16 -124 l 1,4,5
 24 -128 24 -128 41.5 -132.5 c 128,-1,6
 59 -137 59 -137 77 -137 c 256,7,8
 95 -137 95 -137 108 -131 c 128,-1,9
 121 -125 121 -125 121 -110 c 0,10,11
 121 -98 121 -98 111 -91 c 128,-1,12
 101 -84 101 -84 84 -84 c 0,13,14
 72 -84 72 -84 57 -89 c 0,15,16
 48 -92 48 -92 40 -87 c 0,17,18
 33 -83 33 -83 30.5 -74.5 c 128,-1,19
 28 -66 28 -66 32 -59 c 2,20,-1
 84 25 l 1,21,-1
 125 0 l 1,22,-1
 95 -48 l 1,23,24
 109 -45 109 -45 129 -45 c 0,25,26
 148 -45 148 -45 168 -51 c 128,-1,27
 188 -57 188 -57 201.5 -70.5 c 128,-1,28
 215 -84 215 -84 215 -107 c 0,29,30
 215 -136 215 -136 196.5 -153.5 c 128,-1,31
 178 -171 178 -171 149 -179 c 128,-1,32
 120 -187 120 -187 88 -187 c 0,0,1
EndSplineSet
Validated: 1
EndChar

StartChar: uni0302
Encoding: 431 770 340
Width: 0
GlyphClass: 4
Flags: W
HStem: 574 152
AnchorPoint: "Anchor-4" 197 726 basemark 0
AnchorPoint: "Anchor-4" 197 496 mark 0
AnchorPoint: "Anchor-0" 197 496 mark 0
LayerCount: 2
Fore
SplineSet
0 574 m 1,0,-1
 147 706 l 2,1,2
 169 726 169 726 197 726 c 0,3,4
 211 726 211 726 224 720.5 c 128,-1,5
 237 715 237 715 247 706 c 2,6,-1
 393 574 l 1,7,-1
 265 574 l 1,8,-1
 197 635 l 1,9,-1
 129 574 l 1,10,-1
 0 574 l 1,0,-1
EndSplineSet
Validated: 1
Substitution2: "'case' Case-Sensitive Forms lookup 15 subtable" uni0302.case
Substitution2: "Single Substitution lookup 7 subtable" uni0302.case
Substitution2: "Single Substitution lookup 6 subtable" uni0302.case
Substitution2: "Single Substitution lookup 4 subtable" uni0302.case
Substitution2: "Single Substitution lookup 3 subtable" uni0302.case
Substitution2: "'aalt' Access All Alternates lookup 0 subtable" uni0302.case
EndChar

StartChar: uni0302.case
Encoding: 432 -1 341
Width: 0
GlyphClass: 4
Flags: W
HStem: 731 152
AnchorPoint: "Anchor-4" 197 883 basemark 0
AnchorPoint: "Anchor-4" 197 668 mark 0
AnchorPoint: "Anchor-0" 197 668 mark 0
LayerCount: 2
Fore
SplineSet
0 731 m 1,0,-1
 147 864 l 2,1,2
 157 872 157 872 169.5 877.5 c 128,-1,3
 182 883 182 883 196 883 c 0,4,5
 224 883 224 883 245 864 c 2,6,-1
 393 731 l 1,7,-1
 264 731 l 1,8,-1
 196 792 l 1,9,-1
 129 731 l 1,10,-1
 0 731 l 1,0,-1
EndSplineSet
Validated: 1
EndChar

StartChar: uni0326
Encoding: 433 806 342
Width: 0
GlyphClass: 4
Flags: W
HStem: -251 45<52 73.6359>
VStem: 102 118<-186.134 -106.229>
AnchorPoint: "Anchor-3" 110 -251 basemark 0
AnchorPoint: "Anchor-3" 133 0 mark 0
AnchorPoint: "Anchor-1" 133 0 mark 0
LayerCount: 2
Fore
SplineSet
52 -251 m 1,0,-1
 0 -206 l 1,1,2
 47 -206 47 -206 74.5 -190 c 128,-1,3
 102 -174 102 -174 102 -145 c 0,4,5
 102 -124 102 -124 82.5 -108 c 128,-1,6
 63 -92 63 -92 34 -85 c 1,7,-1
 136 -45 l 1,8,9
 183 -64 183 -64 201.5 -89 c 128,-1,10
 220 -114 220 -114 220 -141 c 0,11,12
 220 -187 220 -187 176.5 -219 c 128,-1,13
 133 -251 133 -251 52 -251 c 1,0,-1
EndSplineSet
Validated: 1
EndChar

StartChar: uni0308
Encoding: 434 776 343
Width: 0
GlyphClass: 4
Flags: W
HStem: 578 141<21.6582 119.857 215.658 313.373>
VStem: 0 141<599.143 697.342> 194 140<599.143 697.342>
AnchorPoint: "Anchor-4" 167 719 basemark 0
AnchorPoint: "Anchor-4" 167 496 mark 0
AnchorPoint: "Anchor-0" 167 496 mark 0
LayerCount: 2
Fore
SplineSet
71 578 m 256,0,1
 42 578 42 578 21 598.5 c 128,-1,2
 0 619 0 619 0 648 c 256,3,4
 0 677 0 677 21 698 c 128,-1,5
 42 719 42 719 71 719 c 256,6,7
 100 719 100 719 120.5 698 c 128,-1,8
 141 677 141 677 141 648 c 256,9,10
 141 619 141 619 120.5 598.5 c 128,-1,11
 100 578 100 578 71 578 c 256,0,1
265 578 m 256,12,13
 236 578 236 578 215 598.5 c 128,-1,14
 194 619 194 619 194 648 c 256,15,16
 194 677 194 677 215 698 c 128,-1,17
 236 719 236 719 265 719 c 256,18,19
 294 719 294 719 314 698 c 128,-1,20
 334 677 334 677 334 648 c 256,21,22
 334 619 334 619 314 598.5 c 128,-1,23
 294 578 294 578 265 578 c 256,12,13
EndSplineSet
Validated: 1
Substitution2: "'case' Case-Sensitive Forms lookup 15 subtable" uni0308.case
Substitution2: "Single Substitution lookup 7 subtable" uni0308.case
Substitution2: "Single Substitution lookup 6 subtable" uni0308.case
Substitution2: "Single Substitution lookup 4 subtable" uni0308.case
Substitution2: "Single Substitution lookup 3 subtable" uni0308.case
Substitution2: "'aalt' Access All Alternates lookup 0 subtable" uni0308.case
EndChar

StartChar: uni0307
Encoding: 436 775 345
Width: 0
GlyphClass: 4
Flags: W
HStem: 578 141<21.6582 119.857>
VStem: 0 141<599.143 697.342>
AnchorPoint: "Anchor-4" 71 719 basemark 0
AnchorPoint: "Anchor-4" 71 496 mark 0
AnchorPoint: "Anchor-0" 71 496 mark 0
LayerCount: 2
Fore
SplineSet
71 578 m 256,0,1
 42 578 42 578 21 598.5 c 128,-1,2
 0 619 0 619 0 648 c 256,3,4
 0 677 0 677 21 698 c 128,-1,5
 42 719 42 719 71 719 c 256,6,7
 100 719 100 719 120.5 698 c 128,-1,8
 141 677 141 677 141 648 c 256,9,10
 141 619 141 619 120.5 598.5 c 128,-1,11
 100 578 100 578 71 578 c 256,0,1
EndSplineSet
Validated: 1
Substitution2: "'case' Case-Sensitive Forms lookup 15 subtable" uni0307.case
Substitution2: "Single Substitution lookup 7 subtable" uni0307.case
Substitution2: "Single Substitution lookup 6 subtable" uni0307.case
Substitution2: "Single Substitution lookup 4 subtable" uni0307.case
Substitution2: "Single Substitution lookup 3 subtable" uni0307.case
Substitution2: "'aalt' Access All Alternates lookup 0 subtable" uni0307.case
EndChar

StartChar: Euro
Encoding: 438 8364 347
Width: 673
GlyphClass: 1
Flags: W
HStem: -12 130<324.568 479.688> 231 74<46 95 260 333> 366 74<45 95 262 407> 550 130<324.968 473.843>
VStem: 95 151<305 366>
LayerCount: 2
Fore
SplineSet
396 -12 m 0,0,1
 280 -12 280 -12 204 52.5 c 128,-1,2
 128 117 128 117 104 231 c 1,3,-1
 6 231 l 1,4,-1
 46 305 l 1,5,-1
 95 305 l 1,6,-1
 95 366 l 1,7,-1
 5 366 l 1,8,-1
 45 440 l 1,9,-1
 105 440 l 1,10,11
 131 552 131 552 208 616 c 128,-1,12
 285 680 285 680 400 680 c 0,13,14
 486 680 486 680 550 638 c 128,-1,15
 614 596 614 596 648 525 c 1,16,-1
 519 478 l 1,17,18
 500 516 500 516 466 533 c 128,-1,19
 432 550 432 550 395 550 c 0,20,21
 351 550 351 550 315.5 521.5 c 128,-1,22
 280 493 280 493 262 440 c 1,23,-1
 448 440 l 1,24,-1
 407 366 l 1,25,-1
 247 366 l 1,26,27
 246 357 246 357 245.5 336.5 c 128,-1,28
 245 316 245 316 246 305 c 1,29,-1
 373 305 l 1,30,-1
 333 231 l 1,31,-1
 260 231 l 1,32,33
 278 176 278 176 314.5 147 c 128,-1,34
 351 118 351 118 397 118 c 0,35,36
 432 118 432 118 468 133.5 c 128,-1,37
 504 149 504 149 523 189 c 1,38,-1
 651 142 l 1,39,40
 615 71 615 71 548.5 29.5 c 128,-1,41
 482 -12 482 -12 396 -12 c 0,0,1
EndSplineSet
Validated: 33
EndChar

StartChar: uni2074
Encoding: 439 8308 348
Width: 448
GlyphClass: 1
Flags: W
HStem: 477 87<158 236 337 395>
VStem: 236 101<403 477 564 659>
LayerCount: 2
Fore
SplineSet
236 403 m 1,0,-1
 236 477 l 1,1,-1
 55 477 l 1,2,-1
 55 555 l 1,3,-1
 236 778 l 1,4,-1
 337 778 l 1,5,-1
 337 564 l 1,6,-1
 395 564 l 1,7,-1
 395 477 l 1,8,-1
 337 477 l 1,9,-1
 337 403 l 1,10,-1
 236 403 l 1,0,-1
158 564 m 1,11,-1
 236 564 l 1,12,-1
 236 659 l 1,13,-1
 158 564 l 1,11,-1
EndSplineSet
Validated: 1
EndChar

StartChar: gravecomb
Encoding: 440 768 349
Width: 0
GlyphClass: 4
Flags: W
HStem: 574 154<64.6177 99.7188>
VStem: 0 208
AnchorPoint: "Anchor-4" 104 728 basemark 0
AnchorPoint: "Anchor-4" 139 496 mark 0
AnchorPoint: "Anchor-0" 139 496 mark 0
LayerCount: 2
Fore
SplineSet
94 574 m 1,0,1
 75 588 75 588 56.5 602 c 128,-1,2
 38 616 38 616 19 629 c 1,3,4
 0 648 0 648 0 671 c 256,5,6
 0 694 0 694 16.5 711 c 128,-1,7
 33 728 33 728 56 728 c 0,8,9
 82 728 82 728 98 709 c 2,10,-1
 208 574 l 1,11,-1
 94 574 l 1,0,1
EndSplineSet
Validated: 1
Substitution2: "'case' Case-Sensitive Forms lookup 15 subtable" gravecomb.case
Substitution2: "Single Substitution lookup 7 subtable" gravecomb.case
Substitution2: "Single Substitution lookup 6 subtable" gravecomb.case
Substitution2: "Single Substitution lookup 4 subtable" gravecomb.case
Substitution2: "Single Substitution lookup 3 subtable" gravecomb.case
Substitution2: "'aalt' Access All Alternates lookup 0 subtable" gravecomb.case
EndChar

StartChar: gravecomb.case
Encoding: 441 -1 350
Width: 0
GlyphClass: 4
Flags: W
HStem: 731 154<64.9229 99.8594>
VStem: 0 219
AnchorPoint: "Anchor-4" 110 885 basemark 0
AnchorPoint: "Anchor-4" 147 668 mark 0
AnchorPoint: "Anchor-0" 147 668 mark 0
LayerCount: 2
Fore
SplineSet
94 731 m 1,0,1
 75 745 75 745 57 759 c 128,-1,2
 39 773 39 773 20 786 c 0,3,4
 10 796 10 796 5 805.5 c 128,-1,5
 0 815 0 815 0 829 c 0,6,7
 0 851 0 851 17 868 c 128,-1,8
 34 885 34 885 56 885 c 0,9,10
 79 885 79 885 94 870 c 2,11,-1
 219 731 l 1,12,-1
 94 731 l 1,0,1
EndSplineSet
Validated: 1
EndChar

StartChar: uni030B
Encoding: 442 779 351
Width: 0
GlyphClass: 4
Flags: W
HStem: 574 153<109.003 114 312.003 317>
AnchorPoint: "Anchor-4" 206 727 basemark 0
AnchorPoint: "Anchor-4" 158 496 mark 0
AnchorPoint: "Anchor-0" 158 496 mark 0
LayerCount: 2
Fore
SplineSet
0 574 m 1,0,-1
 109 707 l 2,1,2
 126 727 126 727 152 727 c 0,3,4
 176 727 176 727 192 711 c 128,-1,5
 208 695 208 695 208 671 c 0,6,7
 208 658 208 658 203.5 647 c 128,-1,8
 199 636 199 636 189 629 c 2,9,-1
 114 574 l 1,10,-1
 0 574 l 1,0,-1
203 574 m 1,11,-1
 312 707 l 2,12,13
 329 727 329 727 355 727 c 0,14,15
 379 727 379 727 395 711 c 128,-1,16
 411 695 411 695 411 671 c 0,17,18
 411 658 411 658 406.5 647 c 128,-1,19
 402 636 402 636 392 629 c 2,20,-1
 317 574 l 1,21,-1
 203 574 l 1,11,-1
EndSplineSet
Validated: 1
Substitution2: "'case' Case-Sensitive Forms lookup 15 subtable" uni030B.case
Substitution2: "Single Substitution lookup 7 subtable" uni030B.case
Substitution2: "Single Substitution lookup 6 subtable" uni030B.case
Substitution2: "Single Substitution lookup 4 subtable" uni030B.case
Substitution2: "Single Substitution lookup 3 subtable" uni030B.case
Substitution2: "'aalt' Access All Alternates lookup 0 subtable" uni030B.case
EndChar

StartChar: dotlessi
Encoding: 444 305 353
Width: 301
GlyphClass: 2
Flags: W
HStem: 0 21G<118 271> 381 115<24 118>
VStem: 118 153<0 381>
AnchorPoint: "Anchor-2" 271 10 basechar 0
AnchorPoint: "Anchor-1" 151 0 basechar 0
AnchorPoint: "Anchor-0" 161 496 basechar 0
LayerCount: 2
Fore
SplineSet
118 0 m 1,0,-1
 118 381 l 1,1,-1
 24 381 l 1,2,-1
 24 496 l 1,3,-1
 271 496 l 1,4,-1
 271 0 l 1,5,-1
 118 0 l 1,0,-1
EndSplineSet
Validated: 1
EndChar

StartChar: uni0304
Encoding: 445 772 354
Width: 0
GlyphClass: 4
Flags: W
HStem: 570 98<0 299>
VStem: 0 299<570 668>
AnchorPoint: "Anchor-4" 150 668 basemark 0
AnchorPoint: "Anchor-4" 150 496 mark 0
AnchorPoint: "Anchor-0" 150 496 mark 0
LayerCount: 2
Fore
SplineSet
0 570 m 1,0,-1
 0 668 l 1,1,-1
 299 668 l 1,2,-1
 299 570 l 1,3,-1
 0 570 l 1,0,-1
EndSplineSet
Validated: 1
Substitution2: "'case' Case-Sensitive Forms lookup 15 subtable" uni0304.case
Substitution2: "Single Substitution lookup 7 subtable" uni0304.case
Substitution2: "Single Substitution lookup 6 subtable" uni0304.case
Substitution2: "Single Substitution lookup 4 subtable" uni0304.case
Substitution2: "Single Substitution lookup 3 subtable" uni0304.case
Substitution2: "'aalt' Access All Alternates lookup 0 subtable" uni0304.case
EndChar

StartChar: uni00B5
Encoding: 447 181 356
Width: 591
GlyphClass: 1
Flags: W
HStem: -161 21G<50 207> -12 118<226.538 320.516> 0 124<520.467 587.439> 476 20G<50 202 365 517>
VStem: 50 152<-161 -6.71863 128.659 496> 365 152<141.959 496>
LayerCount: 2
Fore
SplineSet
50 -161 m 1,0,-1
 50 496 l 1,1,-1
 202 496 l 1,2,-1
 202 235 l 2,3,4
 202 200 202 200 207 170.5 c 128,-1,5
 212 141 212 141 228 123.5 c 128,-1,6
 244 106 244 106 275 106 c 0,7,8
 313 106 313 106 339 136 c 128,-1,9
 365 166 365 166 365 234 c 2,10,-1
 365 496 l 1,11,-1
 517 496 l 1,12,-1
 517 163 l 2,13,14
 517 124 517 124 561 124 c 0,15,16
 568 124 568 124 574.5 125 c 128,-1,17
 581 126 581 126 588 130 c 1,18,-1
 588 6 l 1,19,20
 570 2 570 2 556.5 1 c 128,-1,21
 543 0 543 0 528 0 c 0,22,23
 467 0 467 0 429.5 17 c 128,-1,24
 392 34 392 34 375 72 c 1,25,26
 358 41 358 41 326.5 14.5 c 128,-1,27
 295 -12 295 -12 240 -12 c 0,28,29
 216 -12 216 -12 195 -6 c 1,30,31
 200 -29 200 -29 203.5 -51.5 c 128,-1,32
 207 -74 207 -74 207 -95 c 2,33,-1
 207 -161 l 1,34,-1
 50 -161 l 1,0,-1
EndSplineSet
Validated: 1
EndChar

StartChar: uni0328
Encoding: 448 808 357
Width: 0
GlyphClass: 4
Flags: W
HStem: -174 76<134.368 220.732>
VStem: 0 126<-92.8991 -38.9277>
AnchorPoint: "Anchor-2" 221 0 mark 0
LayerCount: 2
Fore
SplineSet
142 -174 m 0,0,1
 88 -174 88 -174 57 -159.5 c 128,-1,2
 26 -145 26 -145 13 -124.5 c 128,-1,3
 0 -104 0 -104 0 -85 c 0,4,5
 0 -50 0 -50 25.5 -29.5 c 128,-1,6
 51 -9 51 -9 80 0 c 1,7,-1
 221 0 l 1,8,9
 187 -17 187 -17 156.5 -33.5 c 128,-1,10
 126 -50 126 -50 126 -68 c 256,11,12
 126 -86 126 -86 141 -92 c 128,-1,13
 156 -98 156 -98 172 -98 c 0,14,15
 187 -98 187 -98 201 -94 c 128,-1,16
 215 -90 215 -90 221 -89 c 1,17,-1
 221 -164 l 1,18,19
 210 -168 210 -168 185.5 -171 c 128,-1,20
 161 -174 161 -174 142 -174 c 0,0,1
EndSplineSet
Validated: 1
Substitution2: "'case' Case-Sensitive Forms lookup 15 subtable" uni0328.case
Substitution2: "Single Substitution lookup 7 subtable" uni0328.case
Substitution2: "Single Substitution lookup 6 subtable" uni0328.case
Substitution2: "Single Substitution lookup 4 subtable" uni0328.case
Substitution2: "Single Substitution lookup 3 subtable" uni0328.case
Substitution2: "'aalt' Access All Alternates lookup 0 subtable" uni0328.case
EndChar

StartChar: uni0328.case
Encoding: 449 -1 358
Width: 0
GlyphClass: 4
Flags: W
HStem: -174 76<134.368 220.732> -12 12<167.397 197.204>
VStem: 0 126<-92.8991 -32.6512>
AnchorPoint: "Anchor-2" 221 0 mark 0
LayerCount: 2
Fore
SplineSet
142 -174 m 0,0,1
 88 -174 88 -174 57 -159.5 c 128,-1,2
 26 -145 26 -145 13 -124.5 c 128,-1,3
 0 -104 0 -104 0 -85 c 0,4,5
 0 -50 0 -50 25.5 -29.5 c 128,-1,6
 51 -9 51 -9 80 0 c 1,7,-1
 221 0 l 1,8,9
 202 -2 202 -2 179.5 -12 c 128,-1,10
 157 -22 157 -22 141.5 -36.5 c 128,-1,11
 126 -51 126 -51 126 -68 c 0,12,13
 126 -86 126 -86 141 -92 c 128,-1,14
 156 -98 156 -98 172 -98 c 0,15,16
 187 -98 187 -98 201 -94 c 128,-1,17
 215 -90 215 -90 221 -89 c 1,18,-1
 221 -164 l 1,19,20
 210 -168 210 -168 185.5 -171 c 128,-1,21
 161 -174 161 -174 142 -174 c 0,0,1
EndSplineSet
Validated: 1
EndChar

StartChar: uni030A
Encoding: 450 778 359
Width: 0
GlyphClass: 4
Flags: W
HStem: 535 86<92.9744 168.243> 715 85<95.9095 168.243>
VStem: 0 85<628.895 704.164> 179 86<631.826 704.164>
AnchorPoint: "Anchor-4" 133 800 basemark 0
AnchorPoint: "Anchor-4" 133 496 mark 0
AnchorPoint: "Anchor-0" 133 496 mark 0
LayerCount: 2
Fore
SplineSet
132 535 m 0,0,1
 96 535 96 535 66 553 c 128,-1,2
 36 571 36 571 18 601.5 c 128,-1,3
 0 632 0 632 0 668 c 0,4,5
 0 705 0 705 18 734.5 c 128,-1,6
 36 764 36 764 66 782 c 128,-1,7
 96 800 96 800 132 800 c 0,8,9
 169 800 169 800 199 782 c 128,-1,10
 229 764 229 764 247 734.5 c 128,-1,11
 265 705 265 705 265 668 c 0,12,13
 265 632 265 632 247 601.5 c 128,-1,14
 229 571 229 571 199 553 c 128,-1,15
 169 535 169 535 132 535 c 0,0,1
132 621 m 0,16,17
 152 621 152 621 165.5 635 c 128,-1,18
 179 649 179 649 179 668 c 0,19,20
 179 688 179 688 165.5 701.5 c 128,-1,21
 152 715 152 715 132 715 c 0,22,23
 113 715 113 715 99 701.5 c 128,-1,24
 85 688 85 688 85 668 c 0,25,26
 85 649 85 649 99 635 c 128,-1,27
 113 621 113 621 132 621 c 0,16,17
EndSplineSet
Validated: 1
Substitution2: "'case' Case-Sensitive Forms lookup 15 subtable" uni030A.case
Substitution2: "Single Substitution lookup 7 subtable" uni030A.case
Substitution2: "Single Substitution lookup 6 subtable" uni030A.case
Substitution2: "Single Substitution lookup 4 subtable" uni030A.case
Substitution2: "Single Substitution lookup 3 subtable" uni030A.case
Substitution2: "'aalt' Access All Alternates lookup 0 subtable" uni030A.case
EndChar

StartChar: uni00AD
Encoding: 173 173 362
Width: 350
GlyphClass: 1
Flags: W
HStem: 184 129<24 326>
VStem: 24 302<184 313>
LayerCount: 2
Fore
SplineSet
24 184 m 1,0,-1
 24 313 l 1,1,-1
 326 313 l 1,2,-1
 326 184 l 1,3,-1
 24 184 l 1,0,-1
EndSplineSet
Validated: 1
EndChar

StartChar: tildecomb
Encoding: 455 771 365
Width: 0
GlyphClass: 4
Flags: W
HStem: 569 79<193.82 292.706> 607 82<93.3458 186.822>
AnchorPoint: "Anchor-4" 185 689 basemark 0
AnchorPoint: "Anchor-4" 185 496 mark 0
AnchorPoint: "Anchor-0" 185 496 mark 0
LayerCount: 2
Fore
SplineSet
258 569 m 0,0,1
 219 569 219 569 187 585 c 0,2,3
 168 595 168 595 157 601 c 128,-1,4
 146 607 146 607 132 607 c 0,5,6
 116 607 116 607 104 598.5 c 128,-1,7
 92 590 92 590 89 574 c 1,8,-1
 0 574 l 1,9,10
 9 629 9 629 40.5 659 c 128,-1,11
 72 689 72 689 125 689 c 0,12,13
 157 689 157 689 176.5 679 c 128,-1,14
 196 669 196 669 212.5 658.5 c 128,-1,15
 229 648 229 648 249 648 c 0,16,17
 263 648 263 648 272.5 653.5 c 128,-1,18
 282 659 282 659 292 669 c 0,19,20
 310 689 310 689 328 689 c 0,21,22
 347 689 347 689 358.5 677.5 c 128,-1,23
 370 666 370 666 370 649 c 0,24,25
 370 630 370 630 353.5 611.5 c 128,-1,26
 337 593 337 593 311.5 581 c 128,-1,27
 286 569 286 569 258 569 c 0,0,1
EndSplineSet
Validated: 1
Substitution2: "'case' Case-Sensitive Forms lookup 15 subtable" tildecomb.case
Substitution2: "Single Substitution lookup 7 subtable" tildecomb.case
Substitution2: "Single Substitution lookup 6 subtable" tildecomb.case
Substitution2: "Single Substitution lookup 4 subtable" tildecomb.case
Substitution2: "Single Substitution lookup 3 subtable" tildecomb.case
Substitution2: "'aalt' Access All Alternates lookup 0 subtable" tildecomb.case
EndChar

StartChar: zero.alt1
Encoding: 457 -1 367
Width: 652
Flags: W
HStem: -12 113<268 394.808> 567 113<268.536 395.244>
VStem: 45 157<247.415 483.361> 462 156<185.885 429.615>
LayerCount: 2
Fore
SplineSet
332 -12 m 0,0,1
 238 -12 238 -12 174 30.5 c 128,-1,2
 110 73 110 73 77.5 151 c 128,-1,3
 45 229 45 229 45 335 c 0,4,5
 45 496 45 496 118 588 c 128,-1,6
 191 680 191 680 332 680 c 0,7,8
 472 680 472 680 545 588 c 128,-1,9
 618 496 618 496 618 335 c 0,10,11
 618 229 618 229 585.5 151 c 128,-1,12
 553 73 553 73 489 30.5 c 128,-1,13
 425 -12 425 -12 332 -12 c 0,0,1
208 246 m 1,14,15
 208 246 208 246 409 534 c 1,16,17
 377 567 377 567 332 567 c 0,18,19
 273 567 273 567 237.5 511.5 c 128,-1,20
 202 456 202 456 202 334 c 0,21,22
 202 285 202 285 208 246 c 1,14,15
332 101 m 0,23,24
 390 101 390 101 426 157.5 c 128,-1,25
 462 214 462 214 462 335 c 0,26,27
 462 363 462 363 460 386.5 c 128,-1,28
 458 410 458 410 454 431 c 1,29,30
 454 431 454 431 251 139 c 1,31,32
 282 101 282 101 332 101 c 0,23,24
EndSplineSet
Validated: 1
Substitution2: "'tnum' Tabular Numbers lookup 14 subtable" zero
Substitution2: "'aalt' Access All Alternates lookup 0 subtable" zero.tf
Substitution2: "'zero' Slashed Zero lookup 0-1" zero
EndChar

StartChar: copyleft
Encoding: 458 127279 368
Width: 798
Flags: W
HStem: -12 69<292.752 506.12> 145 85<334.252 441.429> 437 85<338.536 441.75> 610 69<292.752 506.12>
VStem: 53 70<226.904 441.374> 468 112<256.631 411.144> 675 70<226.904 441.374>
LayerCount: 2
Fore
SplineSet
400 -12 m 0,0,1
 328 -12 328 -12 265 15 c 128,-1,2
 202 42 202 42 154.5 89.5 c 128,-1,3
 107 137 107 137 80 199.5 c 128,-1,4
 53 262 53 262 53 334 c 0,5,6
 53 405 53 405 80 467.5 c 128,-1,7
 107 530 107 530 154.5 577.5 c 128,-1,8
 202 625 202 625 265 652 c 128,-1,9
 328 679 328 679 400 679 c 0,10,11
 471 679 471 679 533.5 652 c 128,-1,12
 596 625 596 625 643.5 577.5 c 128,-1,13
 691 530 691 530 718 467.5 c 128,-1,14
 745 405 745 405 745 334 c 0,15,16
 745 262 745 262 718 199.5 c 128,-1,17
 691 137 691 137 643.5 89.5 c 128,-1,18
 596 42 596 42 533.5 15 c 128,-1,19
 471 -12 471 -12 400 -12 c 0,0,1
400 57 m 256,20,21
 457 57 457 57 506.5 78.5 c 128,-1,22
 556 100 556 100 594 138 c 128,-1,23
 632 176 632 176 653.5 226.5 c 128,-1,24
 675 277 675 277 675 334 c 256,25,26
 675 391 675 391 653.5 441 c 128,-1,27
 632 491 632 491 594 529 c 128,-1,28
 556 567 556 567 506.5 588.5 c 128,-1,29
 457 610 457 610 400 610 c 256,30,31
 343 610 343 610 292.5 588.5 c 128,-1,32
 242 567 242 567 204 529 c 128,-1,33
 166 491 166 491 144.5 441 c 128,-1,34
 123 391 123 391 123 334 c 256,35,36
 123 277 123 277 144.5 226.5 c 128,-1,37
 166 176 166 176 204 138 c 128,-1,38
 242 100 242 100 292.5 78.5 c 128,-1,39
 343 57 343 57 400 57 c 256,20,21
397 145 m 0,40,41
 353 145 353 145 308 164 c 128,-1,42
 263 183 263 183 235 231 c 1,43,44
 235 231 235 231 325 264 c 1,45,46
 344 230 344 230 391 230 c 0,47,48
 419 230 419 230 443.5 253 c 128,-1,49
 468 276 468 276 468 334 c 0,50,51
 468 390 468 390 444 413.5 c 128,-1,52
 420 437 420 437 391 437 c 0,53,54
 369 437 369 437 352 427 c 128,-1,55
 335 417 335 417 326 394 c 1,56,57
 326 394 326 394 234 428 c 1,58,59
 259 481 259 481 304.5 501.5 c 128,-1,60
 350 522 350 522 397 522 c 0,61,62
 451 522 451 522 492 498.5 c 128,-1,63
 533 475 533 475 556.5 433 c 128,-1,64
 580 391 580 391 580 334 c 0,65,66
 580 249 580 249 532.5 197 c 128,-1,67
 485 145 485 145 397 145 c 0,40,41
EndSplineSet
Validated: 1
EndChar

StartChar: f_i
Encoding: 459 64257 369
Width: 636
Flags: W
HStem: 0 21G<87 239 439 592> 380 116<5 87 239 439> 578 180<457.561 575.02> 608 120<252.413 347>
VStem: 87 152<0 380 496 599.745> 426 180<609.561 727.02> 439 153<0 380>
LayerCount: 2
Fore
SplineSet
439 0 m 1,0,-1
 439 380 l 1,1,-1
 239 380 l 1,2,-1
 239 0 l 1,3,-1
 87 0 l 1,4,-1
 87 380 l 1,5,-1
 5 380 l 1,6,-1
 5 496 l 1,7,-1
 87 496 l 1,8,-1
 87 577 l 2,9,10
 87 636 87 636 107 669 c 128,-1,11
 127 702 127 702 169 715 c 128,-1,12
 211 728 211 728 278 728 c 2,13,-1
 347 728 l 1,14,-1
 347 608 l 1,15,-1
 305 608 l 2,16,17
 265 608 265 608 252 600 c 128,-1,18
 239 592 239 592 239 563 c 2,19,-1
 239 496 l 1,20,-1
 592 496 l 1,21,-1
 592 0 l 1,22,-1
 439 0 l 1,0,-1
516 578 m 0,23,24
 479 578 479 578 452.5 604.5 c 128,-1,25
 426 631 426 631 426 668 c 0,26,27
 426 706 426 706 452.5 732 c 128,-1,28
 479 758 479 758 516 758 c 0,29,30
 554 758 554 758 580 732 c 128,-1,31
 606 706 606 706 606 668 c 0,32,33
 606 631 606 631 580 604.5 c 128,-1,34
 554 578 554 578 516 578 c 0,23,24
EndSplineSet
Validated: 1
LCarets2: 1 408
Ligature2: "'liga' Standard Ligatures lookup 0-1" f i
EndChar

StartChar: f_f
Encoding: 460 64256 370
Width: 719
Flags: W
HStem: 0 21G<87 239 439 591> 380 116<5 87 239 439 591 699> 608 120<252.413 347 604.413 699>
VStem: 87 152<0 380 496 599.745> 439 152<0 380 496 599.745>
LayerCount: 2
Fore
SplineSet
439 0 m 1,0,-1
 439 380 l 1,1,-1
 239 380 l 1,2,-1
 239 0 l 1,3,-1
 87 0 l 1,4,-1
 87 380 l 1,5,-1
 5 380 l 1,6,-1
 5 496 l 1,7,-1
 87 496 l 1,8,-1
 87 577 l 2,9,10
 87 636 87 636 107 669 c 128,-1,11
 127 702 127 702 169 715 c 128,-1,12
 211 728 211 728 278 728 c 2,13,-1
 347 728 l 1,14,-1
 347 608 l 1,15,-1
 305 608 l 2,16,17
 265 608 265 608 252 600 c 128,-1,18
 239 592 239 592 239 563 c 2,19,-1
 239 496 l 1,20,-1
 439 496 l 1,21,-1
 439 577 l 2,22,23
 439 636 439 636 459 669 c 128,-1,24
 479 702 479 702 521 715 c 128,-1,25
 563 728 563 728 630 728 c 2,26,-1
 699 728 l 1,27,-1
 699 608 l 1,28,-1
 657 608 l 2,29,30
 617 608 617 608 604 600 c 128,-1,31
 591 592 591 592 591 563 c 2,32,-1
 591 496 l 1,33,-1
 699 496 l 1,34,-1
 699 380 l 1,35,-1
 591 380 l 1,36,-1
 591 0 l 1,37,-1
 439 0 l 1,0,-1
EndSplineSet
Validated: 1
LCarets2: 1 386
Ligature2: "'liga' Standard Ligatures lookup 0-1" f f
EndChar

StartChar: f_f_i
Encoding: 461 64259 371
Width: 973
Flags: W
HStem: 0 21G<87 239 439 591 791 944> 380 116<5 87 239 439 591 791> 578 180<809.561 927.02> 608 120<252.413 347 604.413 699>
VStem: 87 152<0 380 496 599.745> 439 152<0 380 496 599.745> 778 180<609.561 727.02> 791 153<0 380>
LayerCount: 2
Fore
SplineSet
791 0 m 1,0,-1
 791 380 l 1,1,-1
 591 380 l 1,2,-1
 591 0 l 1,3,-1
 439 0 l 1,4,-1
 439 380 l 1,5,-1
 239 380 l 1,6,-1
 239 0 l 1,7,-1
 87 0 l 1,8,-1
 87 380 l 1,9,-1
 5 380 l 1,10,-1
 5 496 l 1,11,-1
 87 496 l 1,12,-1
 87 577 l 2,13,14
 87 636 87 636 107 669 c 128,-1,15
 127 702 127 702 169 715 c 128,-1,16
 211 728 211 728 278 728 c 2,17,-1
 347 728 l 1,18,-1
 347 608 l 1,19,-1
 305 608 l 2,20,21
 265 608 265 608 252 600 c 128,-1,22
 239 592 239 592 239 563 c 2,23,-1
 239 496 l 1,24,-1
 439 496 l 1,25,-1
 439 577 l 2,26,27
 439 636 439 636 459 669 c 128,-1,28
 479 702 479 702 521 715 c 128,-1,29
 563 728 563 728 630 728 c 2,30,-1
 699 728 l 1,31,-1
 699 608 l 1,32,-1
 657 608 l 2,33,34
 617 608 617 608 604 600 c 128,-1,35
 591 592 591 592 591 563 c 2,36,-1
 591 496 l 1,37,-1
 944 496 l 1,38,-1
 944 0 l 1,39,-1
 791 0 l 1,0,-1
868 578 m 0,40,41
 831 578 831 578 804.5 604.5 c 128,-1,42
 778 631 778 631 778 668 c 0,43,44
 778 706 778 706 804.5 732 c 128,-1,45
 831 758 831 758 868 758 c 0,46,47
 906 758 906 758 932 732 c 128,-1,48
 958 706 958 706 958 668 c 0,49,50
 958 631 958 631 932 604.5 c 128,-1,51
 906 578 906 578 868 578 c 0,40,41
EndSplineSet
Validated: 1
LCarets2: 2 402 782
Ligature2: "'liga' Standard Ligatures lookup 0-1" f f i
EndChar

StartChar: f_l
Encoding: 462 64258 372
Width: 718
Flags: W
HStem: 0 124<620.443 715> 380 116<5 87 239 454> 608 120<252.413 347> 648 20G<454 606>
VStem: 87 152<0 380 496 599.745> 454 152<134.834 380 496 668>
LayerCount: 2
Fore
SplineSet
618 0 m 2,0,1
 557 0 557 0 521 10.5 c 128,-1,2
 485 21 485 21 469.5 51.5 c 128,-1,3
 454 82 454 82 454 140 c 2,4,-1
 454 380 l 1,5,-1
 239 380 l 1,6,-1
 239 0 l 1,7,-1
 87 0 l 1,8,-1
 87 380 l 1,9,-1
 5 380 l 1,10,-1
 5 496 l 1,11,-1
 87 496 l 1,12,-1
 87 577 l 2,13,14
 87 636 87 636 107 669 c 128,-1,15
 127 702 127 702 169 715 c 128,-1,16
 211 728 211 728 278 728 c 2,17,-1
 347 728 l 1,18,-1
 347 608 l 1,19,-1
 305 608 l 2,20,21
 265 608 265 608 252 600 c 128,-1,22
 239 592 239 592 239 563 c 2,23,-1
 239 496 l 1,24,-1
 454 496 l 1,25,-1
 454 668 l 1,26,-1
 606 668 l 1,27,-1
 606 180 l 2,28,29
 606 145 606 145 620 134.5 c 128,-1,30
 634 124 634 124 672 124 c 2,31,-1
 715 124 l 1,32,-1
 715 0 l 1,33,-1
 618 0 l 2,0,1
EndSplineSet
Validated: 1
LCarets2: 1 378
Ligature2: "'liga' Standard Ligatures lookup 0-1" f l
EndChar

StartChar: f_f_l
Encoding: 463 64260 373
Width: 1085
Flags: W
HStem: 0 124<987.443 1082> 380 116<5 87 239 454 606 821> 608 120<252.413 347 619.413 714> 648 20G<821 973>
VStem: 87 152<0 380 496 599.745> 454 152<0 380 496 599.745> 821 152<134.834 380 496 668>
CounterMasks: 1 0e
LayerCount: 2
Fore
SplineSet
985 0 m 2,0,1
 924 0 924 0 888 10.5 c 128,-1,2
 852 21 852 21 836.5 51.5 c 128,-1,3
 821 82 821 82 821 140 c 2,4,-1
 821 380 l 1,5,-1
 606 380 l 1,6,-1
 606 0 l 1,7,-1
 454 0 l 1,8,-1
 454 380 l 1,9,-1
 239 380 l 1,10,-1
 239 0 l 1,11,-1
 87 0 l 1,12,-1
 87 380 l 1,13,-1
 5 380 l 1,14,-1
 5 496 l 1,15,-1
 87 496 l 1,16,-1
 87 577 l 2,17,18
 87 636 87 636 107 669 c 128,-1,19
 127 702 127 702 169 715 c 128,-1,20
 211 728 211 728 278 728 c 2,21,-1
 347 728 l 1,22,-1
 347 608 l 1,23,-1
 305 608 l 2,24,25
 265 608 265 608 252 600 c 128,-1,26
 239 592 239 592 239 563 c 2,27,-1
 239 496 l 1,28,-1
 454 496 l 1,29,-1
 454 577 l 2,30,31
 454 636 454 636 474 669 c 128,-1,32
 494 702 494 702 536 715 c 128,-1,33
 578 728 578 728 645 728 c 2,34,-1
 714 728 l 1,35,-1
 714 608 l 1,36,-1
 672 608 l 2,37,38
 632 608 632 608 619 600 c 128,-1,39
 606 592 606 592 606 563 c 2,40,-1
 606 496 l 1,41,-1
 821 496 l 1,42,-1
 821 668 l 1,43,-1
 973 668 l 1,44,-1
 973 180 l 2,45,46
 973 145 973 145 987 134.5 c 128,-1,47
 1001 124 1001 124 1039 124 c 2,48,-1
 1082 124 l 1,49,-1
 1082 0 l 1,50,-1
 985 0 l 2,0,1
EndSplineSet
LCarets2: 2 390 746
Ligature2: "'liga' Standard Ligatures lookup 0-1" f f l
EndChar

StartChar: dong
Encoding: 464 8363 374
Width: 632
InSpiro: 1
Flags: W
HStem: -120 78<58 588> -12 118<231.329 333.157> 0 21G<412.03 563> 392 118<230.222 329.591> 555 78<243 394 546 612>
VStem: 24 158<159.579 341.684> 394 152<428 555 633 698> 401 145<152.922 344.443>
LayerCount: 2
Fore
SplineSet
58 -120 m 1,0,-1
 58 -42 l 1,1,-1
 588 -42 l 1,2,-1
 588 -120 l 1,3,-1
 58 -120 l 1,0,-1
  Spiro
    58 -120 v
    58 -42 v
    588 -42 v
    588 -120 v
    0 0 z
  EndSpiro
EndSplineSet
Refer: 319 273 N 1 0 0 1 0 0 2
EndChar

